<svg xmlns="http://www.w3.org/2000/svg" viewBox="0 0 139.89 165.99"><defs><style>.cls-1{fill:#ffe97b;}.cls-2{fill:#2a7682;}</style></defs><title>資產 20</title><g id="圖層_2" data-name="圖層 2"><g id="圖層_1-2" data-name="圖層 1"><polygon class="cls-1" points="34.91 41.81 29.09 93.95 39.93 117.99 57.87 114.27 62.27 93.95 56.86 78.37 69.94 57.72 78.53 78.37 74.91 88.53 80.9 102.42 80.9 117.99 102.23 117.99 108.66 86.61 105.27 46.82 96.49 38.08 34.91 41.81"/><path class="cls-2" d="M139.83,137.6l-9-111.88a16.34,16.34,0,0,0-16.19-14.89H95.56A16.26,16.26,0,0,0,80.25,0H58.6A16.26,16.26,0,0,0,43.3,10.83h-18A16.33,16.33,0,0,0,9.08,25.73l-9,111.85a16.25,16.25,0,0,0,16.18,17.59h4.47v5.41A5.42,5.42,0,0,0,26.13,166h86.6a5.41,5.41,0,0,0,5.41-5.41v-5.41h5.51A16.25,16.25,0,0,0,139.83,137.6ZM53.19,16.24a5.41,5.41,0,0,1,5.41-5.41H80.26a5.47,5.47,0,0,1,5.48,5.41V32.48H53.19ZM45.83,43.3H93a5.44,5.44,0,0,1,5.31,4.35l4.34,21.69c2.7,13.53,1,30.16-4.24,42.53H85.67v-9A16.15,16.15,0,0,0,81.52,92a16.21,16.21,0,0,0,2.07-18.77L74.15,56.44a5.4,5.4,0,0,0-4.72-2.76h0a5.4,5.4,0,0,0-4.72,2.76L55.27,73.25h0A16.21,16.21,0,0,0,57.34,92a16.11,16.11,0,0,0-4.08,10.83v9H40.42c-5.23-12.37-6.94-29-4.24-42.53l4.34-21.68A5.43,5.43,0,0,1,45.83,43.3Zm23.6,43.31a5.43,5.43,0,0,1-4.73-8.06l4.73-8.41,4.73,8.41A5.43,5.43,0,0,1,69.43,86.61Zm5.48,16.23v9H64v-9a5.41,5.41,0,0,1,5.41-5.41A5.48,5.48,0,0,1,74.91,102.84Zm21.66,19.85v10.83H42.36V122.69ZM21.64,144.34h-5.4a5.4,5.4,0,0,1-5.39-5.87l9-111.86a5.44,5.44,0,0,1,5.39-5H42.44v11.2A16.39,16.39,0,0,0,29.9,45.53L25.57,67.22c-3.33,16.64-1,36.61,6,51.3v15.93A16.33,16.33,0,0,0,21.64,144.34Zm85.75,10.83H31.54v-5.41A5.42,5.42,0,0,1,37,144.34h65a5.48,5.48,0,0,1,5.48,5.42Zm16.26-10.83h-6.44a16.29,16.29,0,0,0-9.89-9.89V118.52c7-14.69,9.3-34.66,6-51.3L109,45.53A16.29,16.29,0,0,0,96.49,32.85V21.65h18.13a5.44,5.44,0,0,1,5.4,5l9,111.88A5.41,5.41,0,0,1,123.65,144.34Z"/><rect class="cls-2" x="47.77" y="8.54" width="42.1" height="25.76"/></g></g></svg>