<svg xmlns="http://www.w3.org/2000/svg" viewBox="0 0 165.8 165.8"><defs><style>.cls-1{fill:#ffe97b;}.cls-2{fill:#2a7682;}</style></defs><title>資產 18</title><g id="圖層_2" data-name="圖層 2"><g id="圖層_1-2" data-name="圖層 1"><path class="cls-1" d="M45,85.75l10.1,6.84L70.69,77.3,84.24,92.59,95.78,79.36l15.57,13.23,11.83-11.83,31.21,31.57s-7.28,24.09-18.24,29.86S115.68,161.8,97.8,161.8s-38.93-2-47.87-7.21S28.87,143.18,22.53,134a233.25,233.25,0,0,1-12.82-21.7L40.1,81.92Z"/><path class="cls-2" d="M82.9,0a83.14,83.14,0,1,0,58.55,24.35A83.08,83.08,0,0,0,82.9,0Zm0,156.09A73.29,73.29,0,0,1,16.29,113.2L40.93,86.66l9.39,9.39a4.85,4.85,0,0,0,6.87,0L68.33,84.91,79.47,96.05a4.84,4.84,0,0,0,6.86,0L97.47,84.91l11.14,11.14a4.85,4.85,0,0,0,6.87,0L125,86.57,149.61,113A73.31,73.31,0,0,1,82.9,156.09ZM47.54,79.53,82.91,41.46l35.42,38L112,85.75,100.91,74.61a4.85,4.85,0,0,0-6.87,0L82.9,85.75,71.76,74.61a4.85,4.85,0,0,0-6.87,0L53.76,85.75Zm105.81,23.23L86.45,31a4.86,4.86,0,0,0-3.55-1.54h0A4.86,4.86,0,0,0,79.34,31L12.52,103a73.19,73.19,0,1,1,140.83-.22Z"/></g></g></svg>