<svg xmlns="http://www.w3.org/2000/svg" xmlns:xlink="http://www.w3.org/1999/xlink" viewBox="0 0 362.08 140.05"><defs><style>.cls-1,.cls-13,.cls-15,.cls-17,.cls-19,.cls-23,.cls-26,.cls-27,.cls-28,.cls-31,.cls-33{fill:none;}.cls-2,.cls-21,.cls-6{fill:#ffe97b;}.cls-3{clip-path:url(#clip-path);}.cls-10,.cls-11,.cls-16,.cls-20,.cls-22,.cls-24,.cls-25,.cls-29,.cls-30,.cls-4,.cls-7,.cls-9{fill:#fff;}.cls-5{fill:#4ba795;}.cls-10,.cls-11,.cls-13,.cls-16,.cls-17,.cls-20,.cls-21,.cls-22,.cls-23,.cls-24,.cls-25,.cls-26,.cls-27,.cls-28,.cls-29,.cls-30,.cls-31,.cls-33,.cls-6,.cls-7,.cls-9{stroke:#4ba795;}.cls-10,.cls-11,.cls-13,.cls-15,.cls-16,.cls-17,.cls-19,.cls-20,.cls-21,.cls-22,.cls-23,.cls-24,.cls-25,.cls-26,.cls-27,.cls-28,.cls-29,.cls-30,.cls-31,.cls-33,.cls-6,.cls-7,.cls-9{stroke-linecap:round;stroke-linejoin:round;}.cls-26,.cls-6,.cls-7{stroke-width:0.81px;}.cls-8{clip-path:url(#clip-path-2);}.cls-9{stroke-width:0.78px;}.cls-10{stroke-width:0.81px;}.cls-11,.cls-13{stroke-width:0.73px;}.cls-12,.cls-14{fill:#efa495;}.cls-12{opacity:0.37;}.cls-15{stroke:#fff;}.cls-15,.cls-16,.cls-17,.cls-19{stroke-width:0.75px;}.cls-18{fill:#2a7682;}.cls-19{stroke:#efa495;}.cls-20,.cls-21{stroke-width:0.38px;}.cls-22,.cls-23{stroke-width:0.66px;}.cls-24{stroke-width:0.83px;}.cls-25{stroke-width:0.79px;}.cls-27,.cls-28,.cls-33{stroke-width:0.5px;}.cls-28{stroke-dasharray:1.96 1.96;}.cls-29{stroke-width:0.63px;}.cls-30,.cls-31{stroke-width:0.67px;}.cls-32{clip-path:url(#clip-path-3);}.cls-33{stroke-dasharray:2;}</style><clipPath id="clip-path"><path class="cls-1" d="M346.41,140.05h-332a3.73,3.73,0,0,1-2.44-6.55L81.64,73.38a3.75,3.75,0,0,1,2.44-.9H276.69a3.75,3.75,0,0,1,2.44.9l69.72,60.12A3.73,3.73,0,0,1,346.41,140.05Z"/></clipPath><clipPath id="clip-path-2"><path class="cls-1" d="M230.23,37.67s-6.24.57-9.9,4.06-9.59,17-9.59,17-4.35,9.28-3.09,9.46,10.33,0,10.33,0L230.63,86.4,255.07,98c2.89-1.73,19.14-10.63,18-13.81-2.88-8-5.69-16-8.84-23.94-2.08-5.19-4.25-13.65-8.72-17.42-5-4.22-10.35-5.38-12.39-5.32S230.23,37.67,230.23,37.67Z"/></clipPath><clipPath id="clip-path-3"><path class="cls-1" d="M37.47,78C35,95.15,22.06,91.41,12.75,91.41c-1.63,0-.91-2.64-3.16,1.29-1.17,2.06-1.56,7.93-2.65,9.63-1.5,2.37-6.57-.1-6.62-1.19C.18,97.9,3.53,97.6,4.09,96.43c1.38-2.87,1.41-11.11.71-12.94a15.36,15.36,0,0,1-1-5.51c0-8.87,7.54-16.06,16.84-16.06S38.74,69.2,37.47,78Z"/></clipPath></defs><title>資產 10</title><g id="圖層_2" data-name="圖層 2"><g id="A"><path class="cls-2" d="M346.41,140.05h-332a3.73,3.73,0,0,1-2.44-6.55L81.64,73.38a3.75,3.75,0,0,1,2.44-.9H276.69a3.75,3.75,0,0,1,2.44.9l69.72,60.12A3.73,3.73,0,0,1,346.41,140.05Z"/><g class="cls-3"><rect class="cls-4" x="183.64" y="-45.57" width="1.21" height="355.67" transform="translate(316.51 -51.98) rotate(90)"/><rect class="cls-4" x="183.64" y="-56.94" width="1.21" height="355.67" transform="translate(305.14 -63.36) rotate(90)"/><rect class="cls-4" x="183.64" y="-68.32" width="1.21" height="355.67" transform="translate(293.76 -74.73) rotate(90)"/><rect class="cls-4" x="183.64" y="-79.69" width="1.21" height="355.67" transform="translate(282.39 -86.1) rotate(90)"/><rect class="cls-4" x="183.64" y="-91.07" width="1.21" height="355.67" transform="translate(271.02 -97.48) rotate(90)"/><rect class="cls-4" x="183.64" y="-102.44" width="1.21" height="355.67" transform="translate(259.64 -108.85) rotate(90)"/></g><path class="cls-5" d="M41.27,100.45H35.56v1.7h4.49l1.7,5.09h1.78Z"/><path class="cls-6" d="M51.7,118.29a5.79,5.79,0,0,0-.5-2.37h0a5.06,5.06,0,0,1-.25-3.11c0-.16.09-.31.13-.47H40.42a6.17,6.17,0,0,1-.21,3.81,5.91,5.91,0,0,0,4.7,8v3.59H40.66v1.7H50.85v-1.7H46.6v-3.59A5.92,5.92,0,0,0,51.7,118.29Z"/><path class="cls-7" d="M39.84,110.64h3l-1.13-3.4H38.59Z"/><path class="cls-7" d="M51.67,110.64l1.25-3.4H43.53l1.14,3.4Z"/><path class="cls-5" d="M52.55,102.15a5.94,5.94,0,0,0-5.35,3.39h8.17l-2.54,6.82a6.38,6.38,0,0,0-.22.81,4.37,4.37,0,0,0-.07.87h0a5.95,5.95,0,0,0,0-11.89Z"/><path class="cls-5" d="M230.23,37.67s-6.24.57-9.9,4.06-9.59,17-9.59,17-4.35,9.28-3.09,9.46,10.33,0,10.33,0L230.63,86.4,255.07,98c2.89-1.73,19.14-10.63,18-13.81-2.88-8-5.69-16-8.84-23.94-2.08-5.19-4.25-13.65-8.72-17.42-5-4.22-10.35-5.38-12.39-5.32S230.23,37.67,230.23,37.67Z"/><g class="cls-8"><rect class="cls-2" x="212.51" y="19.29" width="1.36" height="97.99"/><rect class="cls-2" x="219.46" y="19.29" width="1.36" height="97.99"/><rect class="cls-2" x="226.42" y="19.29" width="1.36" height="97.99"/><path class="cls-2" d="M233.37,47.81v69.47h1.36V47.71A3.26,3.26,0,0,1,233.37,47.81Z"/><path class="cls-2" d="M234.73,36.51V19.29h-1.36v17.2A3.13,3.13,0,0,1,234.73,36.51Z"/><path class="cls-2" d="M241.69,31.19V19.29h-1.36V31.14A4.15,4.15,0,0,1,241.69,31.19Z"/><path class="cls-2" d="M240.33,44.68v72.6h1.36V44.21A3.21,3.21,0,0,1,240.33,44.68Z"/><rect class="cls-2" x="247.28" y="19.29" width="1.36" height="97.99"/><rect class="cls-2" x="254.24" y="19.29" width="1.36" height="97.99"/><rect class="cls-2" x="261.19" y="19.29" width="1.36" height="97.99"/><rect class="cls-2" x="268.15" y="19.29" width="1.36" height="97.99"/></g><path class="cls-9" d="M216.75,66.8,201.83,46.21a40.05,40.05,0,0,1,2-8.71c.35-.89-1.57-3.57-2.63-2a28.4,28.4,0,0,0-2,4.15c-.07-.64-2.69-5.26-2.91-5.87l-1.8-5a1.64,1.64,0,0,0-3.08,1.1l2.3,6.42c-3.62,1.39-8.93,4.78-6.53,7.31,5.58,5.89,5.24,4.06,8.39,6.13l9.71,17.92s1.85,4.23,4.37,9.23A43.06,43.06,0,0,1,220,72C218.17,69,216.75,66.8,216.75,66.8Z"/><path class="cls-10" d="M190.86,45s3.55-1.62,4.52-3.15S194,37.5,194,37.5"/><line class="cls-10" x1="189.8" y1="40.82" x2="192.02" y2="44.46"/><line class="cls-10" x1="192.21" y1="39.45" x2="194.27" y2="43.09"/><path class="cls-5" d="M219.05,106.17a65,65,0,0,1-10.32,4.67c-5.66,2-13.28,4.91-8,7.87s13.45,2.82,17.67,1.27,9.86-1.88,11.13-2.21,2.67-8.94,0-10.41S219.05,106.17,219.05,106.17Z"/><path class="cls-6" d="M237.82,107.51a65.36,65.36,0,0,1-10.33,4.67c-5.66,2-13.27,4.91-8,7.87s13.46,2.82,17.68,1.27,9.85-1.89,11.12-2.21,2.68-8.94,0-10.41S237.82,107.51,237.82,107.51Z"/><path class="cls-11" d="M223.39,21.73s1.53,7,1.82,8.39,3.35,6.93,9.33,6.87,10.31-5,10.66-7.59a11.25,11.25,0,0,0,3.55-2.1c.94-1.12,1.58-7.27-2.18-5.57a2,2,0,0,0-1.2,2s1.67-8.18-4.31-8.36S223.63,16.39,223.39,21.73Z"/><circle class="cls-12" cx="241.87" cy="27.93" r="3.32"/><circle class="cls-12" cx="225.45" cy="29.85" r="3.32"/><rect class="cls-5" x="225.81" y="23.4" width="1.45" height="3.23" rx="0.73" transform="translate(-1.33 20.15) rotate(-5.08)"/><rect class="cls-5" x="236.32" y="22.08" width="1.45" height="3.23" rx="0.73" transform="translate(-1.17 21.08) rotate(-5.08)"/><path class="cls-13" d="M228.76,27.93a2,2,0,0,0,1.47,1"/><path class="cls-14" d="M230.63,31.51s5.31-.2,5.64-1.38,2,1.67.13,2.55S231.57,33.41,230.63,31.51Z"/><path class="cls-11" d="M218.84,72.58s3.3,9.61,4.55,11.73,0,4.48,2.06,8.68.59,1.5,1.09,5,2.22,9.75,2.22,9.75c-9,4.65-13.22,0-13.22,0S203.09,77.84,203,72.43,211.31,66,211.31,66c10.52-3.19,21,13.29,21,13.29l4.09,11.61s7.35,18.2,2.12,18.08A25.25,25.25,0,0,1,228.32,106"/><path class="cls-11" d="M239,72.58s3.29,9.61,4.55,11.73-.06,4.48,2.05,8.68.59,1.5,1.09,5,2.22,9.75,2.22,9.75c-9,4.65-13.21,0-13.21,0s-12.45-29.85-12.58-35.26S231.48,66,231.48,66c10.53-3.19,21,13.29,21,13.29l4.1,11.61s7.34,18.2,2.12,18.08A25.19,25.19,0,0,1,248.5,106"/><path class="cls-5" d="M228.76,16.84s10.06,7.37,16.61,6.85c0,0-.61-1.81,1.2-2s3.62,1,2.9,3.28-4.27,4.39-4.27,4.39L244,32s6.53-2.47,7.88-7c1.41-4.7,3.78-14.42-6.37-20.25s-18,1.71-18,1.71a2.8,2.8,0,0,1-.66.19,9.24,9.24,0,0,0-1.87.91,11,11,0,0,0-4.93,6.82c-.73,3-1,7.16.62,9.88a3,3,0,0,0,1,1.07c.49.28.93.14,1.42.28,0,0-1.27-.37-1.18-3.2,0-.5-.57,2.39,2.49,3.73C224.43,26.15,223.77,19,228.76,16.84Z"/><path class="cls-11" d="M241.07,37.93l2.05-.06c-.39,4.6-6.87,6.53-9.88,6.68s-3-5.86-3-5.86h1.63l-.31-2.17a8.61,8.61,0,0,0,6.62-.19l3.11-1.64-.66,4.93"/><path class="cls-15" d="M228.74,40.51s-.34,6.46,4,6.46,12-6.46,12.34-8"/><path class="cls-5" d="M231.91,121.06s-2-2.09-7.93-2.11-13.52,1-11.42,4.54,9.73,3.94,14.49,7.2,11.64,8.76,12.06-3C239.11,127.67,231.91,125.61,231.91,121.06Z"/><path class="cls-5" d="M244.18,116.56s-2-2.09-7.93-2.11-13.52,1-11.42,4.54,9.73,3.94,14.49,7.2,11.64,8.76,12.06-3C251.38,123.16,244.18,121.11,244.18,116.56Z"/><path class="cls-16" d="M273.78,91.25s-11-15.25-18.91-13.51c-6.9,1.52-11.09,44.43-11.09,44.43s4,5.37,6.47,3.52,8.35-21.25,8.53-25.88l.18-4.62,4.4,6.88S274.07,97.86,273.78,91.25Z"/><line class="cls-16" x1="258.96" y1="95.19" x2="256.19" y2="91.25"/><path class="cls-16" d="M261.37,95s-11-15.25-18.91-13.51C235.56,83,231.37,126,231.37,126s4,5.37,6.47,3.52,8.34-21.25,8.53-25.87l.18-4.63,4.4,6.88S261.66,101.64,261.37,95Z"/><line class="cls-16" x1="246.55" y1="98.97" x2="243.78" y2="95.03"/><path class="cls-16" d="M271.58,88.84s5-5.57,3.67-7S265,75.72,265,75.72s6.37-17.65,20.42-17.65c10.46,0,12.75,8.24,12.75,8.24s9.9,27.78-1.93,44.63a22.44,22.44,0,0,1-15.14-2.32A126.64,126.64,0,0,1,265.71,99l5.87-10.14"/><path class="cls-16" d="M299.47,70.89l12.79,47.5,6.68-1.14s9.89,5.75,9.7,7.3a2.3,2.3,0,0,1-2.91,1.94c-1.17-.39-7.37-4.07-7.37-4.07s-6,4.75-9.29,1-3.21-5.19-3.21-5.19l-5.69-15.53Z"/><path class="cls-17" d="M266,73.29s10.09,1.34,12.17,6.39"/><path class="cls-17" d="M282.64,70.1s1.58,6.38-3.63,13.63"/><path class="cls-18" d="M278.56,26.53C271.91,25,260.87,41.17,270,43.65l3.57-5.32S280.89,27.08,278.56,26.53Z"/><path class="cls-16" d="M269.47,38.36s2.11,7.25-1.48,7.81c0,0,.23,8.06,3.14,10.79a16.91,16.91,0,0,0,8.47-2.59S287.06,48,283,42.52,269.65,35.63,269.47,38.36Z"/><circle class="cls-12" cx="276.97" cy="47.97" r="3.39"/><path class="cls-19" d="M270.32,52.49s2,.56,3.26-.35"/><path class="cls-5" d="M268.79,37.6a7,7,0,0,0,.26,3c.64,1.42,2.35,1.9,3.75,2.14a11.06,11.06,0,0,0,3,.22,5.54,5.54,0,0,0,2.79-1.22c-.21.62-.31,1.28-.52,1.9-.28.83-.56,1.66-.86,2.49a31.43,31.43,0,0,1-2.05,4.82c-1.5,2.65-1.5,6.48,2.7,8.61s6.78,7,2.14,8.16c0,0,4.34,1,4.5-4.17s-3.24-5.1-.65-8.37c-.39.49.22,2.77.32,3.32.33,1.74,1,3.88,2.6,4.88,2.44,1.53,3.42,6.33,0,7.4,0,0,6.15.42,6.39-3.15s-1.38-6.54-2-9.69-1.05-5.26-1.05-5.26.6,8.41-.24,11.47c-.5,1.8,4.5,6.76,6.53,6.76,0,0-2.9-1.82-.56-5.9,1.06-1.83,2.46-3.58,2.95-5.68a10.12,10.12,0,0,0-1.07-6.49,29.93,29.93,0,0,0-2.64,5.65,10,10,0,0,0-.1,6.14c.68,2,5.52,5.22,8,3.13-5.14-1.83-4.55-4.23-3.77-5.41,1-1.55,3.53-4.34,2.36-5.78s-.44-2.85-.52-4.47a13.07,13.07,0,0,0-1.07-3.75,13,13,0,0,1-.74-4c-.16-3.27.41-6.6-.27-9.84a10.63,10.63,0,0,0-4.6-6.54,18.51,18.51,0,0,0-21.37.48S268.83,32.48,268.79,37.6Z"/><rect class="cls-5" x="271.58" y="42" width="0.74" height="3.31" rx="0.37"/><path class="cls-5" d="M266,98s-3.26-3.13-4.64-3c-8.1.68-10.1,6.54-10.42,10.82-.2,2.81,6.72,21.37,25.73,20.1s19.51-15,19.51-15S269.08,102.34,266,98Z"/><path class="cls-20" d="M264.65,73a13.45,13.45,0,0,1-4.66.72,13.81,13.81,0,0,1-4.66-.72l-1.88-17h13.09Z"/><ellipse class="cls-20" cx="259.99" cy="56.32" rx="6.54" ry="1.7"/><ellipse class="cls-5" cx="259.99" cy="56.32" rx="4.88" ry="0.94"/><path class="cls-21" d="M261.45,63.24c-2.41-.86-5.1-2.19-7.3-.87L255.33,73a13.81,13.81,0,0,0,4.66.72,13.45,13.45,0,0,0,4.66-.72l1-8.73A17.84,17.84,0,0,1,261.45,63.24Z"/><path class="cls-16" d="M267.42,86c.36-2.85-6-16.18-6-16.18s4.74-4.74,5.16-6.1-.24-2.13-3.56.53-9,.36-9,.36A1.14,1.14,0,0,0,253,63.1C251.72,62.86,251,65.76,251,67s3,2,4.21,3.14,1.24,3.61,1.24,3.61c0,2.91,1.43,19.73,7.59,19.67S276.1,82.37,276.1,82.37l-9.62-5.62-.62,3.34"/><path class="cls-4" d="M151.68,30.05s-4,.51-4.73,1.12-1.46,1.76-2.55,2.22-13,6.1-14.42,12.12.05.33.05.33a3.69,3.69,0,0,0,1.55,2.61c1.36.78,7.73,3.35,7.71,4S147.63,57,147.63,57l23.75-1.67,4.49,2.26s-.9-2.68-.3-2.55a23.18,23.18,0,0,0,6.55-.83c1.85-.64,4.17-1.92,4.47-3s-1.82-6.6-6-12c-1.61-2.07-2.8-2.75-6-5-.61-.42-3.32-.71-3.57-1.31-.63-1.57-.72-2.84-1.56-3-2.05-.27-3.47-.6-3.47-.6l-4,.86Z"/><path class="cls-16" d="M168.82,15.22s-.47,6.57-.62,8.59S164.42,32,158.52,32s-9.78-4.86-10.4-7.19a3,3,0,0,1-3.42-3.18c0-3.5,2.75-3.66,3.42-2.05,0,0-1.7-3.9-.67-5.17s5.64-5.7,5.64-5.7,14.61-4.7,15.73,6.47"/><path class="cls-5" d="M131.47,84.81s-4,1.85-6.2,1.48-9.77-.21-7.12,4.37,3.22,3.51,8.74,4,12.6-1.39,12.6-1.39Z"/><path class="cls-5" d="M164.49,114s7.12-1.16,6.53-4,7.65,6.78,7.94,9.12,3.13,12.5-4.6,12.5c-2.7,0-6.43.28-7.06-3.14a10,10,0,0,1,.71-5.3,2.34,2.34,0,0,0,.12-2,5.79,5.79,0,0,0-.81-1C167.09,120,164,114.1,164.49,114Z"/><path class="cls-16" d="M156.36,94.12s26.7,1.14,33.46-4.22,1.73-12.24-12.06-9.68a250.19,250.19,0,0,0-28.52,7.43Z"/><path class="cls-16" d="M142.3,96l23.51,18.73s5.29-.4,5.21-4.74L153.21,88.91Z"/><path class="cls-16" d="M191.9,66.74l-4,1.55-.9-4.1h0l-1.19-5.27h0l-1.22-5.43c-1,1-9,1.83-9,1.83l2,11.43,2.4,8s2.89,6.79,9.31,2.11,10.82-7.51,10.82-7.51Z"/><path class="cls-2" d="M152.55,31.76s-2.53-.15-2.88.42,0,11.28,0,11.28l.54,17.95.12,5H157l7.51-2.17,1.23-26.64s0-2.59,0-3.27.6-2.21-.36-2.55-3.22.3-3.22.3-.58.81-.13.84,2.26-.13,2.26-.13.05,2.29-.48,3a6.77,6.77,0,0,1-3.41,2.43,15.88,15.88,0,0,1-5.23.1,6.47,6.47,0,0,1-3-1.65,5.88,5.88,0,0,1-1.55-2.8c0-.56,1.33-.72,1.72-.77S152.62,32.1,152.55,31.76Z"/><circle class="cls-12" cx="150.34" cy="24.69" r="3.39"/><circle class="cls-12" cx="167" cy="23.63" r="3.39"/><path class="cls-18" d="M155.12,13.28s3.85-2.14,7.23-.26c0,0,.45-3.78-4.43-3.38S155.12,13.28,155.12,13.28Z"/><rect class="cls-5" x="152.78" y="18.36" width="1.49" height="3.31" rx="0.74"/><rect class="cls-5" x="163.6" y="17.96" width="1.49" height="3.31" rx="0.74"/><path class="cls-17" d="M159.65,23.43s1.39-.16,1.15-1.15"/><path class="cls-14" d="M155.81,25.18h6.1a.94.94,0,0,1,.87,1.29,3.88,3.88,0,0,1-3.91,2.4,3.7,3.7,0,0,1-4-2.47A.93.93,0,0,1,155.81,25.18Z"/><path class="cls-5" d="M158.55,12s-4.79-3.4-1.54,4.88a12,12,0,0,1-2.28-.63,5,5,0,0,1-2.37-2.37c-.28-.49-1.42-1.84-1.35-2.39,0,0-.45,3.68,1.77,5.5,0,0-3.88,1.26-4.7-1.72,0,0,.76,4.54,2.84,5.62a2.75,2.75,0,0,1-3.64-.83s-.39-2-1.23-1.23-1.83,2.23-1.35,3.5.53,2,1.71,2.28a9.13,9.13,0,0,0,1.71.29L149,26.7l.88,1.18a12.76,12.76,0,0,1-2.9-2.12c-.76-.94.59,1.27.59,1.27s-3.91-1.12-5.24-3.4-4.65-10.14,1.75-18.42A12.23,12.23,0,0,1,157.87.87c.07.1,2-.79,2.37-.82C166.31-.62,171.81,5.64,172,11.3a7.05,7.05,0,0,1-.92,3.84,6.24,6.24,0,0,1-3,2.48,2.06,2.06,0,0,0,.73-2.4,5.56,5.56,0,0,1-3.12,2s2.05-3.64,1.08-5h0s-1.24,4.77-3.72,5.09c0,0,1.47-3.7.83-4.65,0,0-.87,3.42-3.28,4.21,0,0,2.13-5.08.78-5.73S158.55,12,158.55,12Z"/><path class="cls-17" d="M162.36,31.11l-.27,1.77,2.26-.13s1.4,5.14-6.22,5.64-7.44-5.14-7.44-5.14l2.09-.25-.55-3s-3.66.26-5.28,1.17-3.23,5.47-1.49,9.4L148.23,37l.19,3"/><path class="cls-17" d="M152.23,31.77s-2.62-.18-2.68.66.79,34.31.79,34.31"/><path class="cls-17" d="M162.26,31.76s3.18-.83,3.49,0a21,21,0,0,1,.05,2.53c-.05,7.07-.74,26.62-1.35,30.55"/><path class="cls-17" d="M164.76,29.43s4.9-.18,5.63,1.3c1.18,2.41.74,7.53-1.57,9.59l-1.49-5.4L167,39.1"/><path class="cls-17" d="M150.89,38.26a14.39,14.39,0,0,0,7.63,2.06c4.64,0,6.24-3,6.24-3"/><path class="cls-17" d="M145.53,33a36.6,36.6,0,0,0-5.24,2.4C136.47,37.48,131.68,41,130,45.84c-.77,2.3,6.73,6.08,10.26,6.22s5.77-6.37,5.77-6.37"/><path class="cls-17" d="M131.51,45.51s4.59,3.73,9.67,4.37"/><path class="cls-5" d="M123.58,78.67c1.91,8.52,7.24,19.89,19.93,18.5,8.5-.92,10.06-6.44,14-9.18s6.25-.8,12.28-2c7.54-1.53,12.29-8.88,9.84-19.85s-9.9-15.6-17.37-13.75c-6,1.47-7.28,4.23-12,3.41s-8.45-5.14-16.53-2.36c-12.07,4.16-12,16.72-10.14,25.24Z"/><path class="cls-18" d="M157.46,88c3.89-2.74,6.25-.8,12.28-2,7.54-1.53,12.29-8.88,9.84-19.85-.11-.46-.22-.9-.34-1.34,1.79,10.22-2.88,17-10.1,18.49-6,1.22-8.39-.72-12.28,2s-5.45,8.25-14,9.18c-12,1.31-17.46-8.84-19.61-17.16.08.46.18.91.28,1.35,1.91,8.52,7.24,19.89,19.93,18.5,8.5-.92,10.06-6.44,14-9.18Z"/><path class="cls-4" d="M140.49,83.31l-3.6-16a1.57,1.57,0,0,1,1.19-1.87l1.8-.4a1.57,1.57,0,0,1,1.87,1.19l3.59,16a1.57,1.57,0,0,1-1.18,1.87l-1.8.4a1.56,1.56,0,0,1-1.87-1.18Z"/><path class="cls-22" d="M210.88,62.08l-21,4.64-2,.45-4.57,1-2,.44-6.54,1.47-4.56,1-2,.44-5.58,1.25a6.93,6.93,0,0,0,.1-3.45,6.8,6.8,0,0,0-1.57-3.08L166.84,65l2-.45,4.57-1,6.54-1.47,2-.44,6.54-1.46,21-4.64Z"/><line class="cls-23" x1="162.82" y1="68.29" x2="213.57" y2="57.55"/><line class="cls-23" x1="162.82" y1="69.87" x2="213.57" y2="59.13"/><circle class="cls-18" cx="155.55" cy="71.5" r="8.93"/><rect class="cls-18" x="211.23" y="50.01" width="10.09" height="15.09" rx="4.21" transform="translate(225.17 -166.07) rotate(77.38)"/><path class="cls-16" d="M138.44,53.62l1.1-1.56s-7.4-2.82-8.36-3.94c0,0-5.19,5.85-3.9,7.57s20,12.18,20,12.18,2.65,5.24,4.15,6.1,7.53-.65,7.82-4c0,0-1.87-6.09-4.37-6.73a57,57,0,0,0-6.1-1.08s-8.67-8.6-13-9.75"/><line class="cls-17" x1="151.84" y1="67.96" x2="154.58" y2="73.94"/><line class="cls-17" x1="154.68" y1="67.16" x2="157.41" y2="72.69"/><path class="cls-17" d="M171,33s3.54.36,7.51,4.33,7.91,9.66,8.06,13.92c0,1.2-4.68,4.33-11,4.1"/><line class="cls-17" x1="174.09" y1="42.51" x2="176.43" y2="62.31"/><path class="cls-17" d="M175.39,53.48s7.23-.94,9.58-2.62"/><line class="cls-16" x1="183.9" y1="69.87" x2="191.16" y2="67.12"/><path class="cls-24" d="M191.16,67.12s.3,3.76,6.22,2.84S204.25,67,204.53,65s.17-4.45-1.16-5-11.73,1.58-10.86,3.2C193.82,65.62,191.16,67.12,191.16,67.12Z"/><polyline class="cls-24" points="195.67 61.34 196.49 64.84 196.08 66.74"/><polyline class="cls-24" points="198.79 60.67 199.61 64.17 199.2 66.07"/><polyline class="cls-24" points="201.94 60.22 202.76 63.72 202.35 65.62"/><path class="cls-7" d="M93.85,52.84,91,56.37a35.5,35.5,0,0,0,.82,4.23S88,61.84,83,52.53l2.2-2S90.76,50.13,93.85,52.84Z"/><path class="cls-5" d="M129.81,110.56l6.2-3.41a11.93,11.93,0,0,0,8,3.41c5.12.18,12.12,3.83,7.88,6.49s-7.49,1.09-11.92,1.68-9,2.56-8.87-.69S130.7,111.46,129.81,110.56Z"/><path class="cls-7" d="M104.76,88.2c7.66,13.28,27.9,25.29,27.9,25.29,3.66.26,4.86-3.91,4.86-3.91s-23.15-27.33-26.9-30.29-14.23,4.32-14.23,4.32,7.25,12.66,10.53,12.08l1.55-2"/><path class="cls-5" d="M98.16,42.33c.2,1.49-.94,3.75-1.8,3.87s-2.55-1.77-2.75-3.26a2.33,2.33,0,1,1,4.55-.61Z"/><path class="cls-5" d="M98.82,47.28C99,48.77,97.89,51,97,51.14s-2.55-1.76-2.75-3.25a2.32,2.32,0,1,1,4.54-.61Z"/><path class="cls-5" d="M99.48,52.23c.2,1.49-.93,3.75-1.79,3.86s-2.55-1.76-2.75-3.25a2.32,2.32,0,1,1,4.54-.61Z"/><path class="cls-5" d="M100.15,57.18c.2,1.49-.94,3.75-1.8,3.86s-2.55-1.76-2.75-3.25a2.33,2.33,0,1,1,4.55-.61Z"/><path class="cls-5" d="M100.81,62.13c.2,1.49-.93,3.75-1.79,3.86s-2.55-1.77-2.75-3.26a2.32,2.32,0,1,1,4.54-.6Z"/><path class="cls-5" d="M98.66,65.38s-3.13,1.38-1,5.23l.7-2.21.94,3s1.22-1.36,1-2.43l.61,1S102.31,65.55,98.66,65.38Z"/><path class="cls-25" d="M103,38.89s-2.24,3.77-.37,4.48,2-.34,1.49,1.45-3.75,9-6.68,9-8.07-3.15-8.35-6.28a15.83,15.83,0,0,1-1.81-1c-1.4-1.28-2.53-3.72-.84-5.26a2.5,2.5,0,0,1,4.11,1l.33-3.54L94,35.06l7.47-.28Z"/><circle class="cls-12" cx="92.09" cy="45.23" r="3.57"/><path class="cls-14" d="M101.89,47.86a29.55,29.55,0,0,0-3.65-.75c-.9,0-2.25,3.79,1.84,3.59Z"/><rect class="cls-5" x="96.61" y="38.89" width="1.57" height="3.48" rx="0.78" transform="translate(11.53 -20.72) rotate(12.9)"/><path class="cls-5" d="M102.14,35.45s.06,3.89-1.5,4.13c0,0,4.48.52,4.25-2.55,0,0,.69,2.73-1.42,3.6,0,0,2.52.18,3.14-3.23s1.22-6.88-4.37-11.14S89.91,21.5,87,22.91c0,0-1.77-.84-4.22.86s-10.78,12-6,21.46c3.9,7.76,14.92,6.4,14.92,6.4l-1.11-1.42-1.45-2.28a2.59,2.59,0,0,0-.83-.74,3,3,0,0,1-1.87-1.54c-.65-1.23-1.4-2.31-.71-3.32a6.05,6.05,0,0,1,1.92-1.64s2.2,3,4.62,3.07c0,0-2.36-1.87-1.1-3.61a2.09,2.09,0,0,0,2,2,8.49,8.49,0,0,1,.54-4.61,2.5,2.5,0,0,0,1.07,2.92s-.53-3,.94-4.72c0,0,1,2.55,0,3.15,0,0,3.74-.48,3.55-3.72,0,0,.34,3.24-.75,3.72C98.46,38.89,102.53,39.32,102.14,35.45Z"/><path class="cls-7" d="M93.65,66.4l7.36,40,5.9-1.14s6.84,2.49,4.67,4.25-7,.83-7,.83-5.89.7-7.3.25-2.06-2.63-1.53-4.4-9.42-33.39-9.42-33.39S88.82,63.59,93.65,66.4Z"/><path class="cls-5" d="M73.71,59.28l3-2.82s3.68-3.74,4.77-3.74c.53,0,2.75-.15,4,.56s1.64,2.4,2,3.18c.71,1.5,1.69,3.5,2.59,4a4.1,4.1,0,0,0,1.86.41s1.83,5.24,1.73,5.57a30.46,30.46,0,0,1-2.65,5c-.77.87-7.5,6.36-7.8,10.21a11.51,11.51,0,0,0,1.15,6.3,48.42,48.42,0,0,0-6.07-.41c-1.82.13-13.38,1.72-17.11,4.84a74.56,74.56,0,0,1-.06-9c.34-2.13,2.83-12.62,7.47-18.09S73.71,59.28,73.71,59.28Z"/><path class="cls-17" d="M91.92,60.83c-2.73,1-4.89-5.5-4.89-5.5-1.15-3.57-5.55-2.61-5.55-2.61l-6.8,5.67s-16.39,13.77-13.51,34c0,0,13.91-7.24,23.49-4,0,0-5-5.69,2.37-12.81s7.12-8.59,5.81-11.86a25.83,25.83,0,0,1-1-3.06"/><path class="cls-7" d="M46,31.84l15.23,13s15.84,17.48,21,17.64,6.94-4.53,4.23-8S68.2,42.31,68.2,42.31L50,27.9s.7-7.94.23-8.68-1.6-.31-2.08,1.37A11.46,11.46,0,0,1,47,23.35S44,17,42.22,17.2s-9.91,5.84-6.94,9C39.6,30.81,42.64,31,46,31.84Z"/><line class="cls-26" x1="35.56" y1="22.52" x2="39.3" y2="25.67"/><line class="cls-26" x1="37.85" y1="20.07" x2="41.49" y2="24.33"/><line class="cls-26" x1="40.58" y1="18.11" x2="44.04" y2="22.8"/><path class="cls-7" d="M71.34,93.68l17-10.11S94,97.46,99.12,99.16a38.52,38.52,0,0,1-15.67,13.25C71.23,117.7,57.59,109.55,62,94.25c0-.12.52-.32.61-.38.6-.35,1.22-.69,1.84-1a53,53,0,0,1,12.35-5,30.5,30.5,0,0,1,4.28-.51,3.81,3.81,0,0,0,1.13-.11Z"/><line class="cls-7" x1="61.89" y1="92.36" x2="62" y2="94.25"/><path class="cls-7" d="M61.27,97.44S71.19,91.29,75.84,91"/><path class="cls-7" d="M65.38,92.36a24,24,0,0,0,.75,2.32"/><path class="cls-7" d="M68.56,91a18.1,18.1,0,0,0,.58,2.06"/><path class="cls-7" d="M72.54,89.34a13.08,13.08,0,0,0,.38,2.15"/><path class="cls-7" d="M76.45,88.17a11.92,11.92,0,0,0,0,2.47"/><path class="cls-4" d="M63.65,96s1.55,11.32,11.86,10.8a24.73,24.73,0,0,0,15.95-6.51"/><path class="cls-27" d="M63.65,96s.05.37.19,1"/><path class="cls-28" d="M64.41,98.89c1.21,3.32,4.18,8.3,11.1,8A25.79,25.79,0,0,0,90,101.63"/><path class="cls-27" d="M90.73,101a9.53,9.53,0,0,0,.73-.68"/><path class="cls-7" d="M96.08,90c7.66,13.28,27.9,25.29,27.9,25.29,3.66.26,4.86-3.91,4.86-3.91S105.68,84,101.94,81s-14.23,4.32-14.23,4.32S95,98,98.24,97.44l1.55-2"/><path class="cls-6" d="M83.21,86.62s8,16.15,13.7,17c0,0,2.84-1.82,2.21-4.44,0,0-9.64-12-10.8-15.59C88.32,83.57,83.82,84.15,83.21,86.62Z"/><path class="cls-5" d="M76.34,45.77c-1.17.95-3.69,1.15-4.24.48s.19-3.1,1.36-4a2.32,2.32,0,1,1,2.88,3.56Z"/><path class="cls-5" d="M72.46,48.91c-1.17.94-3.7,1.15-4.24.48s.19-3.1,1.36-4a2.33,2.33,0,1,1,2.88,3.57Z"/><path class="cls-5" d="M68.57,52.05c-1.17.94-3.69,1.15-4.23.47s.18-3.09,1.35-4a2.33,2.33,0,1,1,2.88,3.57Z"/><path class="cls-5" d="M64.69,55.19c-1.17.94-3.69,1.15-4.24.47s.19-3.1,1.36-4a2.33,2.33,0,1,1,2.88,3.57Z"/><path class="cls-5" d="M60.8,58.32c-1.17,1-3.69,1.15-4.23.48s.18-3.1,1.35-4a2.32,2.32,0,1,1,2.88,3.56Z"/><path class="cls-5" d="M56.9,58.18s-2.8-2-5,1.86l2.25-.56L52.1,61.84s1.8.33,2.58-.43l-.55,1.05S58.65,61.38,56.9,58.18Z"/><polyline class="cls-24" points="105.18 107.85 108.28 108.21 110.72 110.03"/><path class="cls-6" d="M122.64,114.74l6.2-3.41a11.89,11.89,0,0,0,8,3.41c5.12.19,12.11,3.83,7.88,6.49s-7.49,1.09-11.93,1.68-9,2.56-8.87-.69S123.54,115.64,122.64,114.74Z"/><path class="cls-29" d="M14.29,68.51s1.92.32,2.68-6.45c.54-4.8-3.66-8.14-6.08-11.74A9.47,9.47,0,0,1,9,44.09c.25-2.51-.52-4.86-3.54-3.2C0,43.88.61,51.1.79,56.36c.14,3.93.45,9.23,3.78,11.91a6.59,6.59,0,0,0,3.88,1.4,11.41,11.41,0,0,0,2.73-.23C12,69.28,13.58,68.38,14.29,68.51Z"/><path class="cls-5" d="M15.23,56.21a2.58,2.58,0,0,1-1.06,2.17c-1.33.78-2.38-.83-3.22-1.59a8.33,8.33,0,0,0-.87-.7L10,56c-.17.85-.24,1.7-.48,2.54A1,1,0,0,1,8,59.2a17.68,17.68,0,0,1-2.68-2.27A4.46,4.46,0,0,0,5,58a1.05,1.05,0,0,1-1.53.62A10.94,10.94,0,0,1,.79,56.35c.27,8,2.22,16.49,13.5,12.16,0,0,1.92.33,2.68-6.45A9,9,0,0,0,15.23,56.21Z"/><path class="cls-29" d="M37.47,78C35,95.15,22.06,91.41,12.75,91.41c-1.63,0-.91-2.64-3.16,1.29-1.17,2.06-1.56,7.93-2.65,9.63-1.5,2.37-6.57-.1-6.62-1.19C.18,97.9,3.53,97.6,4.09,96.43c1.38-2.87,1.41-11.11.71-12.94a15.36,15.36,0,0,1-1-5.51c0-8.87,7.54-16.06,16.84-16.06S38.74,69.2,37.47,78Z"/><path class="cls-30" d="M23.82,98s3.44,5.19,4.67,5.8-.31,3.17,0,4.49,3.18,2.58,5.06,1.37,2.19-2.11.93-3.56-3.33-2.81-1.65-5.62,5.17-13-.51-20.42S20.18,86.82,23.82,98Z"/><path class="cls-30" d="M13,80.73S10,93,9.07,99.61s-2.65,7.66-1.53,9.21,4.8,1.94,6.15.33-.33-3.5-.38-5.84,2.92-7.91,2.92-7.91L23,85.85l-2.22-8.38S14.18,74.38,13,80.73Z"/><ellipse class="cls-5" cx="23.69" cy="72" rx="10" ry="8.48"/><circle class="cls-2" cx="23.24" cy="90.53" r="12.87"/><path class="cls-4" d="M23.38,74c-.54-3.47-1.74-8.37-2.09-9.79a9.57,9.57,0,0,1,2.35-.28,11.19,11.19,0,0,1,3,.42C25,65.91,24.06,70,23.38,74Z"/><path class="cls-5" d="M23.64,64.3a10.89,10.89,0,0,1,2.27.24c-1.14,1.53-1.92,4.19-2.52,7.14-.54-2.79-1.26-5.8-1.61-7.2a9.46,9.46,0,0,1,1.86-.18m0-.81a10.09,10.09,0,0,0-2.84.39s2.44,9.56,2.44,12.69a1.53,1.53,0,0,0,0,.46c.18,0,1.23-11.38,4.26-12.86a11.19,11.19,0,0,0-3.88-.68Z"/><path class="cls-7" d="M27.52,78.29c0,2.37-1.92,3-4.28,3s-4.29-.64-4.29-3a4.29,4.29,0,0,1,8.57,0Z"/><ellipse class="cls-5" cx="23.24" cy="78.14" rx="1.93" ry="1.57"/><circle class="cls-18" cx="27.71" cy="72.83" r="0.83"/><circle class="cls-18" cx="18.79" cy="72.53" r="0.83"/><path class="cls-5" d="M30.27,66.71s4-3.09,6.29,6.66S31,83.63,30,78.59Z"/><path class="cls-5" d="M17.28,67.35S13.85,63.63,10,72.86s3.79,11.06,5.62,6.25Z"/><path class="cls-31" d="M9.44,106.46a5.36,5.36,0,0,1,.93,3.69"/><path class="cls-31" d="M12,106.13a5.06,5.06,0,0,1,.7,3.75"/><path class="cls-31" d="M30.4,107.25s1.22.46.9,2.9"/><path class="cls-31" d="M32,106.46s1.63.33,1.51,3.23"/><path class="cls-31" d="M3.06,99.84a2.37,2.37,0,0,0-1.82,2.33"/><path class="cls-31" d="M5.19,100.64a2.77,2.77,0,0,0-1.6,2.53"/><ellipse class="cls-5" cx="7.17" cy="92.78" rx="2.01" ry="1.09" transform="translate(-82.01 66.21) rotate(-68.99)"/><g class="cls-32"><ellipse class="cls-5" cx="4.82" cy="82.74" rx="4.06" ry="6.53"/></g><circle class="cls-33" cx="23.24" cy="90.53" r="9.09"/><path class="cls-6" d="M72.36,135.31H62.52a1.33,1.33,0,0,1-1.3-1.07l-1.78-9h16l-1.79,9A1.33,1.33,0,0,1,72.36,135.31Z"/><path class="cls-4" d="M76.38,121.12a.46.46,0,0,1-.29-.38,8.7,8.7,0,0,0-17.3,0,.46.46,0,0,1-.29.38A3.06,3.06,0,1,0,62,126a.46.46,0,0,1,.7,0,3.06,3.06,0,0,0,4.44.22.47.47,0,0,1,.64,0A3.06,3.06,0,0,0,72.2,126a.46.46,0,0,1,.7,0A3,3,0,0,0,75.27,127a3.06,3.06,0,0,0,1.11-5.89Z"/><path class="cls-5" d="M67.44,133.8a.66.66,0,0,1-.66-.67v-4.25a.66.66,0,1,1,1.32,0v4.25A.66.66,0,0,1,67.44,133.8Z"/><path class="cls-5" d="M64.12,133.8a.67.67,0,0,1-.66-.56L62.8,129a.67.67,0,0,1,.55-.76.67.67,0,0,1,.76.56l.66,4.25a.67.67,0,0,1-.55.76Z"/><path class="cls-5" d="M70.76,133.8h-.1a.67.67,0,0,1-.55-.76l.66-4.25a.67.67,0,0,1,.76-.56.67.67,0,0,1,.55.76l-.66,4.26A.67.67,0,0,1,70.76,133.8Z"/><circle class="cls-5" cx="65.14" cy="117.34" r="1.06"/><circle class="cls-5" cx="69.83" cy="117.34" r="1.06"/><circle class="cls-5" cx="67.44" cy="122.89" r="1.06"/><circle class="cls-5" cx="61.98" cy="121.68" r="1.06"/><circle class="cls-5" cx="72.9" cy="121.68" r="1.06"/><path class="cls-7" d="M96.07,129.57H86.23a1.34,1.34,0,0,1-1.31-1.08l-1.78-9h16l-1.78,9A1.33,1.33,0,0,1,96.07,129.57Z"/><path class="cls-5" d="M100.08,115.37a.47.47,0,0,1-.28-.38,8.7,8.7,0,0,0-17.3,0,.46.46,0,0,1-.29.38,3.06,3.06,0,1,0,3.48,4.84.47.47,0,0,1,.7,0,3.06,3.06,0,0,0,2.32,1.07,3,3,0,0,0,2.11-.85.48.48,0,0,1,.65,0,3,3,0,0,0,2.11.85,3.06,3.06,0,0,0,2.32-1.07.47.47,0,0,1,.7,0A3.11,3.11,0,0,0,99,121.27a3.07,3.07,0,0,0,1.1-5.9Z"/><path class="cls-5" d="M91.15,128.05a.67.67,0,0,1-.67-.66v-4.26a.67.67,0,0,1,1.33,0v4.26A.67.67,0,0,1,91.15,128.05Z"/><path class="cls-5" d="M87.82,128.05a.66.66,0,0,1-.65-.56l-.67-4.26a.67.67,0,0,1,1.32-.2l.66,4.25a.65.65,0,0,1-.55.76Z"/><path class="cls-5" d="M94.47,128.05h-.1a.66.66,0,0,1-.56-.76l.67-4.25a.66.66,0,1,1,1.31.2l-.66,4.26A.67.67,0,0,1,94.47,128.05Z"/><circle class="cls-4" cx="88.85" cy="111.59" r="1.06"/><circle class="cls-4" cx="93.54" cy="111.59" r="1.06"/><circle class="cls-4" cx="91.15" cy="117.14" r="1.06"/><circle class="cls-4" cx="85.69" cy="115.94" r="1.06"/><circle class="cls-4" cx="96.61" cy="115.94" r="1.06"/><circle class="cls-4" cx="177.85" cy="19.86" r="1.51"/><rect class="cls-4" x="178.77" y="14.93" width="1.25" height="5.93" rx="0.62" transform="translate(13.19 -51.97) rotate(17.1)"/><circle class="cls-4" cx="182.27" cy="21.22" r="1.51"/><rect class="cls-4" x="183.18" y="16.29" width="1.25" height="5.93" rx="0.62" transform="translate(13.79 -53.2) rotate(17.1)"/><rect class="cls-4" x="179.51" y="14.43" width="5.87" height="2.82" rx="1.25" transform="translate(12.72 -52.95) rotate(17.1)"/><circle class="cls-5" cx="124.94" cy="30.37" r="2.2"/><rect class="cls-5" x="125.15" y="24.37" width="1.35" height="6.41" rx="0.68" transform="translate(-2.94 30.87) rotate(-13.83)"/><rect class="cls-5" x="124.51" y="23.86" width="3.96" height="1.9" rx="0.84" transform="translate(-2.26 30.95) rotate(-13.83)"/><path class="cls-2" d="M346.41,140.05h-332a3.73,3.73,0,0,1-2.44-6.55L81.64,73.38a3.75,3.75,0,0,1,2.44-.9H276.69a3.75,3.75,0,0,1,2.44.9l69.72,60.12A3.73,3.73,0,0,1,346.41,140.05Z"/><g class="cls-3"><rect class="cls-4" x="183.64" y="-45.57" width="1.21" height="355.67" transform="translate(316.51 -51.98) rotate(90)"/><rect class="cls-4" x="183.64" y="-56.94" width="1.21" height="355.67" transform="translate(305.14 -63.36) rotate(90)"/><rect class="cls-4" x="183.64" y="-68.32" width="1.21" height="355.67" transform="translate(293.76 -74.73) rotate(90)"/><rect class="cls-4" x="183.64" y="-79.69" width="1.21" height="355.67" transform="translate(282.39 -86.1) rotate(90)"/><rect class="cls-4" x="183.64" y="-91.07" width="1.21" height="355.67" transform="translate(271.02 -97.48) rotate(90)"/><rect class="cls-4" x="183.64" y="-102.44" width="1.21" height="355.67" transform="translate(259.64 -108.85) rotate(90)"/></g><path class="cls-5" d="M41.27,100.45H35.56v1.7h4.49l1.7,5.09h1.78Z"/><path class="cls-6" d="M51.7,118.29a5.79,5.79,0,0,0-.5-2.37h0a5.06,5.06,0,0,1-.25-3.11c0-.16.09-.31.13-.47H40.42a6.17,6.17,0,0,1-.21,3.81,5.91,5.91,0,0,0,4.7,8v3.59H40.66v1.7H50.85v-1.7H46.6v-3.59A5.92,5.92,0,0,0,51.7,118.29Z"/><path class="cls-7" d="M39.84,110.64h3l-1.13-3.4H38.59Z"/><path class="cls-7" d="M51.67,110.64l1.25-3.4H43.53l1.14,3.4Z"/><path class="cls-5" d="M52.55,102.15a5.94,5.94,0,0,0-5.35,3.39h8.17l-2.54,6.82a6.38,6.38,0,0,0-.22.81,4.37,4.37,0,0,0-.07.87h0a5.95,5.95,0,0,0,0-11.89Z"/><path class="cls-5" d="M230.23,37.67s-6.24.57-9.9,4.06-9.59,17-9.59,17-4.35,9.28-3.09,9.46,10.33,0,10.33,0L230.63,86.4,255.07,98c2.89-1.73,19.14-10.63,18-13.81-2.88-8-5.69-16-8.84-23.94-2.08-5.19-4.25-13.65-8.72-17.42-5-4.22-10.35-5.38-12.39-5.32S230.23,37.67,230.23,37.67Z"/><g class="cls-8"><rect class="cls-2" x="212.51" y="19.29" width="1.36" height="97.99"/><rect class="cls-2" x="219.46" y="19.29" width="1.36" height="97.99"/><rect class="cls-2" x="226.42" y="19.29" width="1.36" height="97.99"/><path class="cls-2" d="M233.37,47.81v69.47h1.36V47.71A3.26,3.26,0,0,1,233.37,47.81Z"/><path class="cls-2" d="M234.73,36.51V19.29h-1.36v17.2A3.13,3.13,0,0,1,234.73,36.51Z"/><path class="cls-2" d="M241.69,31.19V19.29h-1.36V31.14A4.15,4.15,0,0,1,241.69,31.19Z"/><path class="cls-2" d="M240.33,44.68v72.6h1.36V44.21A3.21,3.21,0,0,1,240.33,44.68Z"/><rect class="cls-2" x="247.28" y="19.29" width="1.36" height="97.99"/><rect class="cls-2" x="254.24" y="19.29" width="1.36" height="97.99"/><rect class="cls-2" x="261.19" y="19.29" width="1.36" height="97.99"/><rect class="cls-2" x="268.15" y="19.29" width="1.36" height="97.99"/></g><path class="cls-9" d="M216.75,66.8,201.83,46.21a40.05,40.05,0,0,1,2-8.71c.35-.89-1.57-3.57-2.63-2a28.4,28.4,0,0,0-2,4.15c-.07-.64-2.69-5.26-2.91-5.87l-1.8-5a1.64,1.64,0,0,0-3.08,1.1l2.3,6.42c-3.62,1.39-8.93,4.78-6.53,7.31,5.58,5.89,5.24,4.06,8.39,6.13l9.71,17.92s1.85,4.23,4.37,9.23A43.06,43.06,0,0,1,220,72C218.17,69,216.75,66.8,216.75,66.8Z"/><path class="cls-10" d="M190.86,45s3.55-1.62,4.52-3.15S194,37.5,194,37.5"/><line class="cls-10" x1="189.8" y1="40.82" x2="192.02" y2="44.46"/><line class="cls-10" x1="192.21" y1="39.45" x2="194.27" y2="43.09"/><path class="cls-5" d="M219.05,106.17a65,65,0,0,1-10.32,4.67c-5.66,2-13.28,4.91-8,7.87s13.45,2.82,17.67,1.27,9.86-1.88,11.13-2.21,2.67-8.94,0-10.41S219.05,106.17,219.05,106.17Z"/><path class="cls-6" d="M237.82,107.51a65.36,65.36,0,0,1-10.33,4.67c-5.66,2-13.27,4.91-8,7.87s13.46,2.82,17.68,1.27,9.85-1.89,11.12-2.21,2.68-8.94,0-10.41S237.82,107.51,237.82,107.51Z"/><path class="cls-11" d="M223.39,21.73s1.53,7,1.82,8.39,3.35,6.93,9.33,6.87,10.31-5,10.66-7.59a11.25,11.25,0,0,0,3.55-2.1c.94-1.12,1.58-7.27-2.18-5.57a2,2,0,0,0-1.2,2s1.67-8.18-4.31-8.36S223.63,16.39,223.39,21.73Z"/><circle class="cls-12" cx="241.87" cy="27.93" r="3.32"/><circle class="cls-12" cx="225.45" cy="29.85" r="3.32"/><rect class="cls-5" x="225.81" y="23.4" width="1.45" height="3.23" rx="0.73" transform="translate(-1.33 20.15) rotate(-5.08)"/><rect class="cls-5" x="236.32" y="22.08" width="1.45" height="3.23" rx="0.73" transform="translate(-1.17 21.08) rotate(-5.08)"/><path class="cls-13" d="M228.76,27.93a2,2,0,0,0,1.47,1"/><path class="cls-14" d="M230.63,31.51s5.31-.2,5.64-1.38,2,1.67.13,2.55S231.57,33.41,230.63,31.51Z"/><path class="cls-11" d="M218.84,72.58s3.3,9.61,4.55,11.73,0,4.48,2.06,8.68.59,1.5,1.09,5,2.22,9.75,2.22,9.75c-9,4.65-13.22,0-13.22,0S203.09,77.84,203,72.43,211.31,66,211.31,66c10.52-3.19,21,13.29,21,13.29l4.09,11.61s7.35,18.2,2.12,18.08A25.25,25.25,0,0,1,228.32,106"/><path class="cls-11" d="M239,72.58s3.29,9.61,4.55,11.73-.06,4.48,2.05,8.68.59,1.5,1.09,5,2.22,9.75,2.22,9.75c-9,4.65-13.21,0-13.21,0s-12.45-29.85-12.58-35.26S231.48,66,231.48,66c10.53-3.19,21,13.29,21,13.29l4.1,11.61s7.34,18.2,2.12,18.08A25.19,25.19,0,0,1,248.5,106"/><path class="cls-5" d="M228.76,16.84s10.06,7.37,16.61,6.85c0,0-.61-1.81,1.2-2s3.62,1,2.9,3.28-4.27,4.39-4.27,4.39L244,32s6.53-2.47,7.88-7c1.41-4.7,3.78-14.42-6.37-20.25s-18,1.71-18,1.71a2.8,2.8,0,0,1-.66.19,9.24,9.24,0,0,0-1.87.91,11,11,0,0,0-4.93,6.82c-.73,3-1,7.16.62,9.88a3,3,0,0,0,1,1.07c.49.28.93.14,1.42.28,0,0-1.27-.37-1.18-3.2,0-.5-.57,2.39,2.49,3.73C224.43,26.15,223.77,19,228.76,16.84Z"/><path class="cls-11" d="M241.07,37.93l2.05-.06c-.39,4.6-6.87,6.53-9.88,6.68s-3-5.86-3-5.86h1.63l-.31-2.17a8.61,8.61,0,0,0,6.62-.19l3.11-1.64-.66,4.93"/><path class="cls-15" d="M228.74,40.51s-.34,6.46,4,6.46,12-6.46,12.34-8"/><path class="cls-5" d="M231.91,121.06s-2-2.09-7.93-2.11-13.52,1-11.42,4.54,9.73,3.94,14.49,7.2,11.64,8.76,12.06-3C239.11,127.67,231.91,125.61,231.91,121.06Z"/><path class="cls-5" d="M244.18,116.56s-2-2.09-7.93-2.11-13.52,1-11.42,4.54,9.73,3.94,14.49,7.2,11.64,8.76,12.06-3C251.38,123.16,244.18,121.11,244.18,116.56Z"/><path class="cls-16" d="M273.78,91.25s-11-15.25-18.91-13.51c-6.9,1.52-11.09,44.43-11.09,44.43s4,5.37,6.47,3.52,8.35-21.25,8.53-25.88l.18-4.62,4.4,6.88S274.07,97.86,273.78,91.25Z"/><line class="cls-16" x1="258.96" y1="95.19" x2="256.19" y2="91.25"/><path class="cls-16" d="M261.37,95s-11-15.25-18.91-13.51C235.56,83,231.37,126,231.37,126s4,5.37,6.47,3.52,8.34-21.25,8.53-25.87l.18-4.63,4.4,6.88S261.66,101.64,261.37,95Z"/><line class="cls-16" x1="246.55" y1="98.97" x2="243.78" y2="95.03"/><path class="cls-16" d="M271.58,88.84s5-5.57,3.67-7S265,75.72,265,75.72s6.37-17.65,20.42-17.65c10.46,0,12.75,8.24,12.75,8.24s9.9,27.78-1.93,44.63a22.44,22.44,0,0,1-15.14-2.32A126.64,126.64,0,0,1,265.71,99l5.87-10.14"/><path class="cls-16" d="M299.47,70.89l12.79,47.5,6.68-1.14s9.89,5.75,9.7,7.3a2.3,2.3,0,0,1-2.91,1.94c-1.17-.39-7.37-4.07-7.37-4.07s-6,4.75-9.29,1-3.21-5.19-3.21-5.19l-5.69-15.53Z"/><path class="cls-17" d="M266,73.29s10.09,1.34,12.17,6.39"/><path class="cls-17" d="M282.64,70.1s1.58,6.38-3.63,13.63"/><path class="cls-18" d="M278.56,26.53C271.91,25,260.87,41.17,270,43.65l3.57-5.32S280.89,27.08,278.56,26.53Z"/><path class="cls-16" d="M269.47,38.36s2.11,7.25-1.48,7.81c0,0,.23,8.06,3.14,10.79a16.91,16.91,0,0,0,8.47-2.59S287.06,48,283,42.52,269.65,35.63,269.47,38.36Z"/><circle class="cls-12" cx="276.97" cy="47.97" r="3.39"/><path class="cls-19" d="M270.32,52.49s2,.56,3.26-.35"/><path class="cls-5" d="M268.79,37.6a7,7,0,0,0,.26,3c.64,1.42,2.35,1.9,3.75,2.14a11.06,11.06,0,0,0,3,.22,5.54,5.54,0,0,0,2.79-1.22c-.21.62-.31,1.28-.52,1.9-.28.83-.56,1.66-.86,2.49a31.43,31.43,0,0,1-2.05,4.82c-1.5,2.65-1.5,6.48,2.7,8.61s6.78,7,2.14,8.16c0,0,4.34,1,4.5-4.17s-3.24-5.1-.65-8.37c-.39.49.22,2.77.32,3.32.33,1.74,1,3.88,2.6,4.88,2.44,1.53,3.42,6.33,0,7.4,0,0,6.15.42,6.39-3.15s-1.38-6.54-2-9.69-1.05-5.26-1.05-5.26.6,8.41-.24,11.47c-.5,1.8,4.5,6.76,6.53,6.76,0,0-2.9-1.82-.56-5.9,1.06-1.83,2.46-3.58,2.95-5.68a10.12,10.12,0,0,0-1.07-6.49,29.93,29.93,0,0,0-2.64,5.65,10,10,0,0,0-.1,6.14c.68,2,5.52,5.22,8,3.13-5.14-1.83-4.55-4.23-3.77-5.41,1-1.55,3.53-4.34,2.36-5.78s-.44-2.85-.52-4.47a13.07,13.07,0,0,0-1.07-3.75,13,13,0,0,1-.74-4c-.16-3.27.41-6.6-.27-9.84a10.63,10.63,0,0,0-4.6-6.54,18.51,18.51,0,0,0-21.37.48S268.83,32.48,268.79,37.6Z"/><rect class="cls-5" x="271.58" y="42" width="0.74" height="3.31" rx="0.37"/><path class="cls-5" d="M266,98s-3.26-3.13-4.64-3c-8.1.68-10.1,6.54-10.42,10.82-.2,2.81,6.72,21.37,25.73,20.1s19.51-15,19.51-15S269.08,102.34,266,98Z"/><path class="cls-20" d="M264.65,73a13.45,13.45,0,0,1-4.66.72,13.81,13.81,0,0,1-4.66-.72l-1.88-17h13.09Z"/><ellipse class="cls-20" cx="259.99" cy="56.32" rx="6.54" ry="1.7"/><ellipse class="cls-5" cx="259.99" cy="56.32" rx="4.88" ry="0.94"/><path class="cls-21" d="M261.45,63.24c-2.41-.86-5.1-2.19-7.3-.87L255.33,73a13.81,13.81,0,0,0,4.66.72,13.45,13.45,0,0,0,4.66-.72l1-8.73A17.84,17.84,0,0,1,261.45,63.24Z"/><path class="cls-16" d="M267.42,86c.36-2.85-6-16.18-6-16.18s4.74-4.74,5.16-6.1-.24-2.13-3.56.53-9,.36-9,.36A1.14,1.14,0,0,0,253,63.1C251.72,62.86,251,65.76,251,67s3,2,4.21,3.14,1.24,3.61,1.24,3.61c0,2.91,1.43,19.73,7.59,19.67S276.1,82.37,276.1,82.37l-9.62-5.62-.62,3.34"/><path class="cls-4" d="M151.68,30.05s-4,.51-4.73,1.12-1.46,1.76-2.55,2.22-13,6.1-14.42,12.12.05.33.05.33a3.69,3.69,0,0,0,1.55,2.61c1.36.78,7.73,3.35,7.71,4S147.63,57,147.63,57l23.75-1.67,4.49,2.26s-.9-2.68-.3-2.55a23.18,23.18,0,0,0,6.55-.83c1.85-.64,4.17-1.92,4.47-3s-1.82-6.6-6-12c-1.61-2.07-2.8-2.75-6-5-.61-.42-3.32-.71-3.57-1.31-.63-1.57-.72-2.84-1.56-3-2.05-.27-3.47-.6-3.47-.6l-4,.86Z"/><path class="cls-16" d="M168.82,15.22s-.47,6.57-.62,8.59S164.42,32,158.52,32s-9.78-4.86-10.4-7.19a3,3,0,0,1-3.42-3.18c0-3.5,2.75-3.66,3.42-2.05,0,0-1.7-3.9-.67-5.17s5.64-5.7,5.64-5.7,14.61-4.7,15.73,6.47"/><path class="cls-5" d="M131.47,84.81s-4,1.85-6.2,1.48-9.77-.21-7.12,4.37,3.22,3.51,8.74,4,12.6-1.39,12.6-1.39Z"/><path class="cls-5" d="M164.49,114s7.12-1.16,6.53-4,7.65,6.78,7.94,9.12,3.13,12.5-4.6,12.5c-2.7,0-6.43.28-7.06-3.14a10,10,0,0,1,.71-5.3,2.34,2.34,0,0,0,.12-2,5.79,5.79,0,0,0-.81-1C167.09,120,164,114.1,164.49,114Z"/><path class="cls-16" d="M156.36,94.12s26.7,1.14,33.46-4.22,1.73-12.24-12.06-9.68a250.19,250.19,0,0,0-28.52,7.43Z"/><path class="cls-16" d="M142.3,96l23.51,18.73s5.29-.4,5.21-4.74L153.21,88.91Z"/><path class="cls-16" d="M191.9,66.74l-4,1.55-.9-4.1h0l-1.19-5.27h0l-1.22-5.43c-1,1-9,1.83-9,1.83l2,11.43,2.4,8s2.89,6.79,9.31,2.11,10.82-7.51,10.82-7.51Z"/><path class="cls-2" d="M152.55,31.76s-2.53-.15-2.88.42,0,11.28,0,11.28l.54,17.95.12,5H157l7.51-2.17,1.23-26.64s0-2.59,0-3.27.6-2.21-.36-2.55-3.22.3-3.22.3-.58.81-.13.84,2.26-.13,2.26-.13.05,2.29-.48,3a6.77,6.77,0,0,1-3.41,2.43,15.88,15.88,0,0,1-5.23.1,6.47,6.47,0,0,1-3-1.65,5.88,5.88,0,0,1-1.55-2.8c0-.56,1.33-.72,1.72-.77S152.62,32.1,152.55,31.76Z"/><circle class="cls-12" cx="150.34" cy="24.69" r="3.39"/><circle class="cls-12" cx="167" cy="23.63" r="3.39"/><path class="cls-18" d="M155.12,13.28s3.85-2.14,7.23-.26c0,0,.45-3.78-4.43-3.38S155.12,13.28,155.12,13.28Z"/><rect class="cls-5" x="152.78" y="18.36" width="1.49" height="3.31" rx="0.74"/><rect class="cls-5" x="163.6" y="17.96" width="1.49" height="3.31" rx="0.74"/><path class="cls-17" d="M159.65,23.43s1.39-.16,1.15-1.15"/><path class="cls-14" d="M155.81,25.18h6.1a.94.94,0,0,1,.87,1.29,3.88,3.88,0,0,1-3.91,2.4,3.7,3.7,0,0,1-4-2.47A.93.93,0,0,1,155.81,25.18Z"/><path class="cls-5" d="M158.55,12s-4.79-3.4-1.54,4.88a12,12,0,0,1-2.28-.63,5,5,0,0,1-2.37-2.37c-.28-.49-1.42-1.84-1.35-2.39,0,0-.45,3.68,1.77,5.5,0,0-3.88,1.26-4.7-1.72,0,0,.76,4.54,2.84,5.62a2.75,2.75,0,0,1-3.64-.83s-.39-2-1.23-1.23-1.83,2.23-1.35,3.5.53,2,1.71,2.28a9.13,9.13,0,0,0,1.71.29L149,26.7l.88,1.18a12.76,12.76,0,0,1-2.9-2.12c-.76-.94.59,1.27.59,1.27s-3.91-1.12-5.24-3.4-4.65-10.14,1.75-18.42A12.23,12.23,0,0,1,157.87.87c.07.1,2-.79,2.37-.82C166.31-.62,171.81,5.64,172,11.3a7.05,7.05,0,0,1-.92,3.84,6.24,6.24,0,0,1-3,2.48,2.06,2.06,0,0,0,.73-2.4,5.56,5.56,0,0,1-3.12,2s2.05-3.64,1.08-5h0s-1.24,4.77-3.72,5.09c0,0,1.47-3.7.83-4.65,0,0-.87,3.42-3.28,4.21,0,0,2.13-5.08.78-5.73S158.55,12,158.55,12Z"/><path class="cls-17" d="M162.36,31.11l-.27,1.77,2.26-.13s1.4,5.14-6.22,5.64-7.44-5.14-7.44-5.14l2.09-.25-.55-3s-3.66.26-5.28,1.17-3.23,5.47-1.49,9.4L148.23,37l.19,3"/><path class="cls-17" d="M152.23,31.77s-2.62-.18-2.68.66.79,34.31.79,34.31"/><path class="cls-17" d="M162.26,31.76s3.18-.83,3.49,0a21,21,0,0,1,.05,2.53c-.05,7.07-.74,26.62-1.35,30.55"/><path class="cls-17" d="M164.76,29.43s4.9-.18,5.63,1.3c1.18,2.41.74,7.53-1.57,9.59l-1.49-5.4L167,39.1"/><path class="cls-17" d="M150.89,38.26a14.39,14.39,0,0,0,7.63,2.06c4.64,0,6.24-3,6.24-3"/><path class="cls-17" d="M145.53,33a36.6,36.6,0,0,0-5.24,2.4C136.47,37.48,131.68,41,130,45.84c-.77,2.3,6.73,6.08,10.26,6.22s5.77-6.37,5.77-6.37"/><path class="cls-17" d="M131.51,45.51s4.59,3.73,9.67,4.37"/><path class="cls-5" d="M123.58,78.67c1.91,8.52,7.24,19.89,19.93,18.5,8.5-.92,10.06-6.44,14-9.18s6.25-.8,12.28-2c7.54-1.53,12.29-8.88,9.84-19.85s-9.9-15.6-17.37-13.75c-6,1.47-7.28,4.23-12,3.41s-8.45-5.14-16.53-2.36c-12.07,4.16-12,16.72-10.14,25.24Z"/><path class="cls-18" d="M157.46,88c3.89-2.74,6.25-.8,12.28-2,7.54-1.53,12.29-8.88,9.84-19.85-.11-.46-.22-.9-.34-1.34,1.79,10.22-2.88,17-10.1,18.49-6,1.22-8.39-.72-12.28,2s-5.45,8.25-14,9.18c-12,1.31-17.46-8.84-19.61-17.16.08.46.18.91.28,1.35,1.91,8.52,7.24,19.89,19.93,18.5,8.5-.92,10.06-6.44,14-9.18Z"/><path class="cls-4" d="M140.49,83.31l-3.6-16a1.57,1.57,0,0,1,1.19-1.87l1.8-.4a1.57,1.57,0,0,1,1.87,1.19l3.59,16a1.57,1.57,0,0,1-1.18,1.87l-1.8.4a1.56,1.56,0,0,1-1.87-1.18Z"/><path class="cls-22" d="M210.88,62.08l-21,4.64-2,.45-4.57,1-2,.44-6.54,1.47-4.56,1-2,.44-5.58,1.25a6.93,6.93,0,0,0,.1-3.45,6.8,6.8,0,0,0-1.57-3.08L166.84,65l2-.45,4.57-1,6.54-1.47,2-.44,6.54-1.46,21-4.64Z"/><line class="cls-23" x1="162.82" y1="68.29" x2="213.57" y2="57.55"/><line class="cls-23" x1="162.82" y1="69.87" x2="213.57" y2="59.13"/><circle class="cls-18" cx="155.55" cy="71.5" r="8.93"/><rect class="cls-18" x="211.23" y="50.01" width="10.09" height="15.09" rx="4.21" transform="translate(225.17 -166.07) rotate(77.38)"/><path class="cls-16" d="M138.44,53.62l1.1-1.56s-7.4-2.82-8.36-3.94c0,0-5.19,5.85-3.9,7.57s20,12.18,20,12.18,2.65,5.24,4.15,6.1,7.53-.65,7.82-4c0,0-1.87-6.09-4.37-6.73a57,57,0,0,0-6.1-1.08s-8.67-8.6-13-9.75"/><line class="cls-17" x1="151.84" y1="67.96" x2="154.58" y2="73.94"/><line class="cls-17" x1="154.68" y1="67.16" x2="157.41" y2="72.69"/><path class="cls-17" d="M171,33s3.54.36,7.51,4.33,7.91,9.66,8.06,13.92c0,1.2-4.68,4.33-11,4.1"/><line class="cls-17" x1="174.09" y1="42.51" x2="176.43" y2="62.31"/><path class="cls-17" d="M175.39,53.48s7.23-.94,9.58-2.62"/><line class="cls-16" x1="183.9" y1="69.87" x2="191.16" y2="67.12"/><path class="cls-24" d="M191.16,67.12s.3,3.76,6.22,2.84S204.25,67,204.53,65s.17-4.45-1.16-5-11.73,1.58-10.86,3.2C193.82,65.62,191.16,67.12,191.16,67.12Z"/><polyline class="cls-24" points="195.67 61.34 196.49 64.84 196.08 66.74"/><polyline class="cls-24" points="198.79 60.67 199.61 64.17 199.2 66.07"/><polyline class="cls-24" points="201.94 60.22 202.76 63.72 202.35 65.62"/><path class="cls-7" d="M93.85,52.84,91,56.37a35.5,35.5,0,0,0,.82,4.23S88,61.84,83,52.53l2.2-2S90.76,50.13,93.85,52.84Z"/><path class="cls-5" d="M129.81,110.56l6.2-3.41a11.93,11.93,0,0,0,8,3.41c5.12.18,12.12,3.83,7.88,6.49s-7.49,1.09-11.92,1.68-9,2.56-8.87-.69S130.7,111.46,129.81,110.56Z"/><path class="cls-7" d="M104.76,88.2c7.66,13.28,27.9,25.29,27.9,25.29,3.66.26,4.86-3.91,4.86-3.91s-23.15-27.33-26.9-30.29-14.23,4.32-14.23,4.32,7.25,12.66,10.53,12.08l1.55-2"/><path class="cls-5" d="M98.16,42.33c.2,1.49-.94,3.75-1.8,3.87s-2.55-1.77-2.75-3.26a2.33,2.33,0,1,1,4.55-.61Z"/><path class="cls-5" d="M98.82,47.28C99,48.77,97.89,51,97,51.14s-2.55-1.76-2.75-3.25a2.32,2.32,0,1,1,4.54-.61Z"/><path class="cls-5" d="M99.48,52.23c.2,1.49-.93,3.75-1.79,3.86s-2.55-1.76-2.75-3.25a2.32,2.32,0,1,1,4.54-.61Z"/><path class="cls-5" d="M100.15,57.18c.2,1.49-.94,3.75-1.8,3.86s-2.55-1.76-2.75-3.25a2.33,2.33,0,1,1,4.55-.61Z"/><path class="cls-5" d="M100.81,62.13c.2,1.49-.93,3.75-1.79,3.86s-2.55-1.77-2.75-3.26a2.32,2.32,0,1,1,4.54-.6Z"/><path class="cls-5" d="M98.66,65.38s-3.13,1.38-1,5.23l.7-2.21.94,3s1.22-1.36,1-2.43l.61,1S102.31,65.55,98.66,65.38Z"/><path class="cls-25" d="M103,38.89s-2.24,3.77-.37,4.48,2-.34,1.49,1.45-3.75,9-6.68,9-8.07-3.15-8.35-6.28a15.83,15.83,0,0,1-1.81-1c-1.4-1.28-2.53-3.72-.84-5.26a2.5,2.5,0,0,1,4.11,1l.33-3.54L94,35.06l7.47-.28Z"/><circle class="cls-12" cx="92.09" cy="45.23" r="3.57"/><path class="cls-14" d="M101.89,47.86a29.55,29.55,0,0,0-3.65-.75c-.9,0-2.25,3.79,1.84,3.59Z"/><rect class="cls-5" x="96.61" y="38.89" width="1.57" height="3.48" rx="0.78" transform="translate(11.53 -20.72) rotate(12.9)"/><path class="cls-5" d="M102.14,35.45s.06,3.89-1.5,4.13c0,0,4.48.52,4.25-2.55,0,0,.69,2.73-1.42,3.6,0,0,2.52.18,3.14-3.23s1.22-6.88-4.37-11.14S89.91,21.5,87,22.91c0,0-1.77-.84-4.22.86s-10.78,12-6,21.46c3.9,7.76,14.92,6.4,14.92,6.4l-1.11-1.42-1.45-2.28a2.59,2.59,0,0,0-.83-.74,3,3,0,0,1-1.87-1.54c-.65-1.23-1.4-2.31-.71-3.32a6.05,6.05,0,0,1,1.92-1.64s2.2,3,4.62,3.07c0,0-2.36-1.87-1.1-3.61a2.09,2.09,0,0,0,2,2,8.49,8.49,0,0,1,.54-4.61,2.5,2.5,0,0,0,1.07,2.92s-.53-3,.94-4.72c0,0,1,2.55,0,3.15,0,0,3.74-.48,3.55-3.72,0,0,.34,3.24-.75,3.72C98.46,38.89,102.53,39.32,102.14,35.45Z"/><path class="cls-7" d="M93.65,66.4l7.36,40,5.9-1.14s6.84,2.49,4.67,4.25-7,.83-7,.83-5.89.7-7.3.25-2.06-2.63-1.53-4.4-9.42-33.39-9.42-33.39S88.82,63.59,93.65,66.4Z"/><path class="cls-5" d="M73.71,59.28l3-2.82s3.68-3.74,4.77-3.74c.53,0,2.75-.15,4,.56s1.64,2.4,2,3.18c.71,1.5,1.69,3.5,2.59,4a4.1,4.1,0,0,0,1.86.41s1.83,5.24,1.73,5.57a30.46,30.46,0,0,1-2.65,5c-.77.87-7.5,6.36-7.8,10.21a11.51,11.51,0,0,0,1.15,6.3,48.42,48.42,0,0,0-6.07-.41c-1.82.13-13.38,1.72-17.11,4.84a74.56,74.56,0,0,1-.06-9c.34-2.13,2.83-12.62,7.47-18.09S73.71,59.28,73.71,59.28Z"/><path class="cls-17" d="M91.92,60.83c-2.73,1-4.89-5.5-4.89-5.5-1.15-3.57-5.55-2.61-5.55-2.61l-6.8,5.67s-16.39,13.77-13.51,34c0,0,13.91-7.24,23.49-4,0,0-5-5.69,2.37-12.81s7.12-8.59,5.81-11.86a25.83,25.83,0,0,1-1-3.06"/><path class="cls-7" d="M46,31.84l15.23,13s15.84,17.48,21,17.64,6.94-4.53,4.23-8S68.2,42.31,68.2,42.31L50,27.9s.7-7.94.23-8.68-1.6-.31-2.08,1.37A11.46,11.46,0,0,1,47,23.35S44,17,42.22,17.2s-9.91,5.84-6.94,9C39.6,30.81,42.64,31,46,31.84Z"/><line class="cls-26" x1="35.56" y1="22.52" x2="39.3" y2="25.67"/><line class="cls-26" x1="37.85" y1="20.07" x2="41.49" y2="24.33"/><line class="cls-26" x1="40.58" y1="18.11" x2="44.04" y2="22.8"/><path class="cls-7" d="M71.34,93.68l17-10.11S94,97.46,99.12,99.16a38.52,38.52,0,0,1-15.67,13.25C71.23,117.7,57.59,109.55,62,94.25c0-.12.52-.32.61-.38.6-.35,1.22-.69,1.84-1a53,53,0,0,1,12.35-5,30.5,30.5,0,0,1,4.28-.51,3.81,3.81,0,0,0,1.13-.11Z"/><line class="cls-7" x1="61.89" y1="92.36" x2="62" y2="94.25"/><path class="cls-7" d="M61.27,97.44S71.19,91.29,75.84,91"/><path class="cls-7" d="M65.38,92.36a24,24,0,0,0,.75,2.32"/><path class="cls-7" d="M68.56,91a18.1,18.1,0,0,0,.58,2.06"/><path class="cls-7" d="M72.54,89.34a13.08,13.08,0,0,0,.38,2.15"/><path class="cls-7" d="M76.45,88.17a11.92,11.92,0,0,0,0,2.47"/><path class="cls-4" d="M63.65,96s1.55,11.32,11.86,10.8a24.73,24.73,0,0,0,15.95-6.51"/><path class="cls-27" d="M63.65,96s.05.37.19,1"/><path class="cls-28" d="M64.41,98.89c1.21,3.32,4.18,8.3,11.1,8A25.79,25.79,0,0,0,90,101.63"/><path class="cls-27" d="M90.73,101a9.53,9.53,0,0,0,.73-.68"/><path class="cls-7" d="M96.08,90c7.66,13.28,27.9,25.29,27.9,25.29,3.66.26,4.86-3.91,4.86-3.91S105.68,84,101.94,81s-14.23,4.32-14.23,4.32S95,98,98.24,97.44l1.55-2"/><path class="cls-6" d="M83.21,86.62s8,16.15,13.7,17c0,0,2.84-1.82,2.21-4.44,0,0-9.64-12-10.8-15.59C88.32,83.57,83.82,84.15,83.21,86.62Z"/><path class="cls-5" d="M76.34,45.77c-1.17.95-3.69,1.15-4.24.48s.19-3.1,1.36-4a2.32,2.32,0,1,1,2.88,3.56Z"/><path class="cls-5" d="M72.46,48.91c-1.17.94-3.7,1.15-4.24.48s.19-3.1,1.36-4a2.33,2.33,0,1,1,2.88,3.57Z"/><path class="cls-5" d="M68.57,52.05c-1.17.94-3.69,1.15-4.23.47s.18-3.09,1.35-4a2.33,2.33,0,1,1,2.88,3.57Z"/><path class="cls-5" d="M64.69,55.19c-1.17.94-3.69,1.15-4.24.47s.19-3.1,1.36-4a2.33,2.33,0,1,1,2.88,3.57Z"/><path class="cls-5" d="M60.8,58.32c-1.17,1-3.69,1.15-4.23.48s.18-3.1,1.35-4a2.32,2.32,0,1,1,2.88,3.56Z"/><path class="cls-5" d="M56.9,58.18s-2.8-2-5,1.86l2.25-.56L52.1,61.84s1.8.33,2.58-.43l-.55,1.05S58.65,61.38,56.9,58.18Z"/><polyline class="cls-24" points="105.18 107.85 108.28 108.21 110.72 110.03"/><path class="cls-6" d="M122.64,114.74l6.2-3.41a11.89,11.89,0,0,0,8,3.41c5.12.19,12.11,3.83,7.88,6.49s-7.49,1.09-11.93,1.68-9,2.56-8.87-.69S123.54,115.64,122.64,114.74Z"/><path class="cls-29" d="M14.29,68.51s1.92.32,2.68-6.45c.54-4.8-3.66-8.14-6.08-11.74A9.47,9.47,0,0,1,9,44.09c.25-2.51-.52-4.86-3.54-3.2C0,43.88.61,51.1.79,56.36c.14,3.93.45,9.23,3.78,11.91a6.59,6.59,0,0,0,3.88,1.4,11.41,11.41,0,0,0,2.73-.23C12,69.28,13.58,68.38,14.29,68.51Z"/><path class="cls-5" d="M15.23,56.21a2.58,2.58,0,0,1-1.06,2.17c-1.33.78-2.38-.83-3.22-1.59a8.33,8.33,0,0,0-.87-.7L10,56c-.17.85-.24,1.7-.48,2.54A1,1,0,0,1,8,59.2a17.68,17.68,0,0,1-2.68-2.27A4.46,4.46,0,0,0,5,58a1.05,1.05,0,0,1-1.53.62A10.94,10.94,0,0,1,.79,56.35c.27,8,2.22,16.49,13.5,12.16,0,0,1.92.33,2.68-6.45A9,9,0,0,0,15.23,56.21Z"/><path class="cls-29" d="M37.47,78C35,95.15,22.06,91.41,12.75,91.41c-1.63,0-.91-2.64-3.16,1.29-1.17,2.06-1.56,7.93-2.65,9.63-1.5,2.37-6.57-.1-6.62-1.19C.18,97.9,3.53,97.6,4.09,96.43c1.38-2.87,1.41-11.11.71-12.94a15.36,15.36,0,0,1-1-5.51c0-8.87,7.54-16.06,16.84-16.06S38.74,69.2,37.47,78Z"/><path class="cls-30" d="M23.82,98s3.44,5.19,4.67,5.8-.31,3.17,0,4.49,3.18,2.58,5.06,1.37,2.19-2.11.93-3.56-3.33-2.81-1.65-5.62,5.17-13-.51-20.42S20.18,86.82,23.82,98Z"/><path class="cls-30" d="M13,80.73S10,93,9.07,99.61s-2.65,7.66-1.53,9.21,4.8,1.94,6.15.33-.33-3.5-.38-5.84,2.92-7.91,2.92-7.91L23,85.85l-2.22-8.38S14.18,74.38,13,80.73Z"/><ellipse class="cls-5" cx="23.69" cy="72" rx="10" ry="8.48"/><circle class="cls-2" cx="23.24" cy="90.53" r="12.87"/><path class="cls-4" d="M23.38,74c-.54-3.47-1.74-8.37-2.09-9.79a9.57,9.57,0,0,1,2.35-.28,11.19,11.19,0,0,1,3,.42C25,65.91,24.06,70,23.38,74Z"/><path class="cls-5" d="M23.64,64.3a10.89,10.89,0,0,1,2.27.24c-1.14,1.53-1.92,4.19-2.52,7.14-.54-2.79-1.26-5.8-1.61-7.2a9.46,9.46,0,0,1,1.86-.18m0-.81a10.09,10.09,0,0,0-2.84.39s2.44,9.56,2.44,12.69a1.53,1.53,0,0,0,0,.46c.18,0,1.23-11.38,4.26-12.86a11.19,11.19,0,0,0-3.88-.68Z"/><path class="cls-7" d="M27.52,78.29c0,2.37-1.92,3-4.28,3s-4.29-.64-4.29-3a4.29,4.29,0,0,1,8.57,0Z"/><ellipse class="cls-5" cx="23.24" cy="78.14" rx="1.93" ry="1.57"/><circle class="cls-18" cx="27.71" cy="72.83" r="0.83"/><circle class="cls-18" cx="18.79" cy="72.53" r="0.83"/><path class="cls-5" d="M30.27,66.71s4-3.09,6.29,6.66S31,83.63,30,78.59Z"/><path class="cls-5" d="M17.28,67.35S13.85,63.63,10,72.86s3.79,11.06,5.62,6.25Z"/><path class="cls-31" d="M9.44,106.46a5.36,5.36,0,0,1,.93,3.69"/><path class="cls-31" d="M12,106.13a5.06,5.06,0,0,1,.7,3.75"/><path class="cls-31" d="M30.4,107.25s1.22.46.9,2.9"/><path class="cls-31" d="M32,106.46s1.63.33,1.51,3.23"/><path class="cls-31" d="M3.06,99.84a2.37,2.37,0,0,0-1.82,2.33"/><path class="cls-31" d="M5.19,100.64a2.77,2.77,0,0,0-1.6,2.53"/><ellipse class="cls-5" cx="7.17" cy="92.78" rx="2.01" ry="1.09" transform="translate(-82.01 66.21) rotate(-68.99)"/><g class="cls-32"><ellipse class="cls-5" cx="4.82" cy="82.74" rx="4.06" ry="6.53"/></g><circle class="cls-33" cx="23.24" cy="90.53" r="9.09"/><path class="cls-6" d="M72.36,135.31H62.52a1.33,1.33,0,0,1-1.3-1.07l-1.78-9h16l-1.79,9A1.33,1.33,0,0,1,72.36,135.31Z"/><path class="cls-4" d="M76.38,121.12a.46.46,0,0,1-.29-.38,8.7,8.7,0,0,0-17.3,0,.46.46,0,0,1-.29.38A3.06,3.06,0,1,0,62,126a.46.46,0,0,1,.7,0,3.06,3.06,0,0,0,4.44.22.47.47,0,0,1,.64,0A3.06,3.06,0,0,0,72.2,126a.46.46,0,0,1,.7,0A3,3,0,0,0,75.27,127a3.06,3.06,0,0,0,1.11-5.89Z"/><path class="cls-5" d="M67.44,133.8a.66.66,0,0,1-.66-.67v-4.25a.66.66,0,1,1,1.32,0v4.25A.66.66,0,0,1,67.44,133.8Z"/><path class="cls-5" d="M64.12,133.8a.67.67,0,0,1-.66-.56L62.8,129a.67.67,0,0,1,.55-.76.67.67,0,0,1,.76.56l.66,4.25a.67.67,0,0,1-.55.76Z"/><path class="cls-5" d="M70.76,133.8h-.1a.67.67,0,0,1-.55-.76l.66-4.25a.67.67,0,0,1,.76-.56.67.67,0,0,1,.55.76l-.66,4.26A.67.67,0,0,1,70.76,133.8Z"/><circle class="cls-5" cx="65.14" cy="117.34" r="1.06"/><circle class="cls-5" cx="69.83" cy="117.34" r="1.06"/><circle class="cls-5" cx="67.44" cy="122.89" r="1.06"/><circle class="cls-5" cx="61.98" cy="121.68" r="1.06"/><circle class="cls-5" cx="72.9" cy="121.68" r="1.06"/><path class="cls-7" d="M96.07,129.57H86.23a1.34,1.34,0,0,1-1.31-1.08l-1.78-9h16l-1.78,9A1.33,1.33,0,0,1,96.07,129.57Z"/><path class="cls-5" d="M100.08,115.37a.47.47,0,0,1-.28-.38,8.7,8.7,0,0,0-17.3,0,.46.46,0,0,1-.29.38,3.06,3.06,0,1,0,3.48,4.84.47.47,0,0,1,.7,0,3.06,3.06,0,0,0,2.32,1.07,3,3,0,0,0,2.11-.85.48.48,0,0,1,.65,0,3,3,0,0,0,2.11.85,3.06,3.06,0,0,0,2.32-1.07.47.47,0,0,1,.7,0A3.11,3.11,0,0,0,99,121.27a3.07,3.07,0,0,0,1.1-5.9Z"/><path class="cls-5" d="M91.15,128.05a.67.67,0,0,1-.67-.66v-4.26a.67.67,0,0,1,1.33,0v4.26A.67.67,0,0,1,91.15,128.05Z"/><path class="cls-5" d="M87.82,128.05a.66.66,0,0,1-.65-.56l-.67-4.26a.67.67,0,0,1,1.32-.2l.66,4.25a.65.65,0,0,1-.55.76Z"/><path class="cls-5" d="M94.47,128.05h-.1a.66.66,0,0,1-.56-.76l.67-4.25a.66.66,0,1,1,1.31.2l-.66,4.26A.67.67,0,0,1,94.47,128.05Z"/><circle class="cls-4" cx="88.85" cy="111.59" r="1.06"/><circle class="cls-4" cx="93.54" cy="111.59" r="1.06"/><circle class="cls-4" cx="91.15" cy="117.14" r="1.06"/><circle class="cls-4" cx="85.69" cy="115.94" r="1.06"/><circle class="cls-4" cx="96.61" cy="115.94" r="1.06"/><circle class="cls-4" cx="177.85" cy="19.86" r="1.51"/><rect class="cls-4" x="178.77" y="14.93" width="1.25" height="5.93" rx="0.62" transform="translate(13.19 -51.97) rotate(17.1)"/><circle class="cls-4" cx="182.27" cy="21.22" r="1.51"/><rect class="cls-4" x="183.18" y="16.29" width="1.25" height="5.93" rx="0.62" transform="translate(13.79 -53.2) rotate(17.1)"/><rect class="cls-4" x="179.51" y="14.43" width="5.87" height="2.82" rx="1.25" transform="translate(12.72 -52.95) rotate(17.1)"/><circle class="cls-5" cx="124.94" cy="30.37" r="2.2"/><rect class="cls-5" x="125.15" y="24.37" width="1.35" height="6.41" rx="0.68" transform="translate(-2.94 30.87) rotate(-13.83)"/><rect class="cls-5" x="124.51" y="23.86" width="3.96" height="1.9" rx="0.84" transform="translate(-2.26 30.95) rotate(-13.83)"/></g></g></svg>