<svg xmlns="http://www.w3.org/2000/svg" viewBox="0 0 118.29 116.32"><defs><style>.cls-1,.cls-12,.cls-21,.cls-4,.cls-6,.cls-9{fill:#ffe97b;}.cls-1,.cls-10,.cls-11,.cls-12,.cls-13,.cls-19,.cls-20,.cls-22,.cls-23,.cls-24,.cls-4,.cls-6,.cls-7,.cls-8,.cls-9{stroke:#4ba795;}.cls-1,.cls-10,.cls-11,.cls-12,.cls-13,.cls-16,.cls-17,.cls-18,.cls-19,.cls-20,.cls-22,.cls-23,.cls-24,.cls-4,.cls-6,.cls-7,.cls-8,.cls-9{stroke-linecap:round;stroke-linejoin:round;}.cls-1{stroke-width:0.62px;}.cls-13,.cls-19,.cls-2,.cls-7,.cls-8{fill:#fff;}.cls-3,.cls-5{fill:#4ba795;}.cls-4{stroke-width:0.72px;}.cls-5{font-size:3.01px;font-family:CP-Font, CP Font-83pv-RKSJ-H;}.cls-6{stroke-width:0.69px;}.cls-24,.cls-7{stroke-width:0.77px;}.cls-16,.cls-8{stroke-width:0.75px;}.cls-9{stroke-width:0.88px;}.cls-10,.cls-11,.cls-16,.cls-17,.cls-18,.cls-20,.cls-22,.cls-23,.cls-24{fill:none;}.cls-10,.cls-11,.cls-17{stroke-width:0.5px;}.cls-11{stroke-dasharray:0.95 0.95;}.cls-12,.cls-22{stroke-width:0.81px;}.cls-13{stroke-width:0.73px;}.cls-14,.cls-15{fill:#efa495;}.cls-15{opacity:0.37;}.cls-16,.cls-17,.cls-18{stroke:#fff;}.cls-18{stroke-width:0.43px;}.cls-19{stroke-width:0.82px;}.cls-20{stroke-width:0.8px;}.cls-23{stroke-width:0.78px;}.cls-25{fill:#2a7682;}</style></defs><title>資產 21</title><g id="圖層_2" data-name="圖層 2"><g id="C"><rect class="cls-1" x="9.85" y="20.55" width="37.01" height="23.39" transform="translate(3.21 -2.56) rotate(5.48)"/><path class="cls-2" d="M30.69,26.87a10.58,10.58,0,0,0,5-1.46c2.18-1.41,5.37-3,5.9.73s1,4.28,1.87,4.58-2.71,3.22-5.06,3.22S30.69,26.87,30.69,26.87Z"/><path class="cls-2" d="M36.74,36.1s5.63-1.79,6.52-3.16,3.46,5.94-4.53,9.47Z"/><rect class="cls-3" x="62.72" y="50.83" width="1.82" height="23.81" rx="0.91" transform="translate(-9.13 10.86) rotate(-9.11)"/><rect class="cls-4" x="47.4" y="53.66" width="16.54" height="11.95" rx="2.52" transform="translate(-8.74 9.57) rotate(-9.11)"/><text class="cls-5" transform="translate(49.5 61.9) rotate(-9.11)">ＧＯＧＯ</text><path class="cls-6" d="M75.74,105.44s-2.89-2.48-4.38-1.87-4.16,3.45-2,5.6,5.52,5,10,3.59c0,0,3.2-3.5.92-5.84Z"/><path class="cls-7" d="M79.71,84l-1.63,9.71-2.56,12s3.61,3.44,5.14,1.11c0,0,3.64-9.48,3.17-11.71,0,0,3.51-6.25,3.86-9.29C87.69,85.88,82.54,83.49,79.71,84Z"/><path class="cls-3" d="M68.81,106.19s3.44,4.36,5.45,4.91,4.48,1.22,6,.61c0,0,.48,1-2.24,1.38a8.68,8.68,0,0,1-6.15-1.82C70.81,110.46,68.21,109,68.81,106.19Z"/><path class="cls-6" d="M100.52,107.84s-3.78-.44-4.68.9-1.52,5.19,1.51,5.74,7.39,1.09,10.34-2.64c0,0,.7-4.69-2.5-5.35Z"/><path class="cls-7" d="M91.86,87.87l4.07,9,4.59,11.41s4.92.84,4.89-1.94c0,0-2.28-9.9-3.92-11.49,0,0-.57-7.15-2-9.87C99.51,84.94,93.9,85.84,91.86,87.87Z"/><path class="cls-3" d="M95.19,112.34s5.29,1.7,7.27,1,4.39-1.49,5.29-2.83c0,0,1,.59-1.09,2.39a8.72,8.72,0,0,1-6.12,1.93C99.23,114.76,96.28,115,95.19,112.34Z"/><path class="cls-7" d="M77.29,74.85,75.52,89.53a20.6,20.6,0,0,0,14.81.84l.43-7.26.45,7.44s10.11,2.13,13.75-2.66l-3.9-13.45Z"/><path class="cls-7" d="M101.44,55.85,108,62l3.89,3.42s10.87.75,3.35,3.53c-5.6,2.07-5.6-1.35-5.6-1.35l-6.27-4.33-5.12-3.59Z"/><path class="cls-3" d="M83.58,47.45s-5.74,0-11.57,9.73c0,0,2.53,5.61,8.06,5.54,0,0-3.66,10.3-3.73,13.21s22.89,6.15,26.35-1.87l-3-14a8.9,8.9,0,0,0,4.22-3.73S96.42,43.87,83.58,47.45Z"/><path class="cls-8" d="M84.63,46.36l.5,2.14A3.59,3.59,0,0,0,88,50.12a3.54,3.54,0,0,0,2.79-1.84l-.45-3.21S85.28,47.07,84.63,46.36Z"/><path class="cls-9" d="M79.22,29.88s-5.76,0-6.39,1.82,4.42,3.37,11.58,3.17S79.22,29.88,79.22,29.88Z"/><path class="cls-3" d="M39.38,107.46s4.56.31,5.55-2.48c.41-1.13,2.45-5,6-3.82s3.37,5.37-.29,8c-1.64,1.17-2.61,2.64-4.12,4-1.7,1.5-5.36,2.34-7.51,1.17C37.92,113.67,37.52,107.58,39.38,107.46Z"/><path class="cls-7" d="M28.35,70.49,34.77,86s1.7,13.56,3.32,18,2.38,4.29,5.34,3.37c3.91-1.21-2.66-22.43-2.66-22.43L37.53,68.61Z"/><path class="cls-7" d="M13.61,68.61,12.1,84.93s-3.92,13-4.42,17.74c-.14,5.23-.69,6.9,3.23,7.25,3.07.26,7.41-22.87,7.41-22.87L22.6,71.34Z"/><path class="cls-8" d="M14.33,55.41,9.11,68.47s2.8,6.18,14.77,3.36L23,58.08l.89,13.75s10,2.42,16.67-3.6L35.42,55.07S20.23,52.65,14.33,55.41Z"/><line class="cls-2" x1="31.61" y1="54.58" x2="35.31" y2="71.26"/><line class="cls-10" x1="31.61" y1="54.58" x2="31.72" y2="55.07"/><line class="cls-11" x1="31.92" y1="55.99" x2="35.1" y2="70.31"/><line class="cls-10" x1="35.2" y1="70.77" x2="35.31" y2="71.26"/><path class="cls-8" d="M33.21,41.57s2.53,10.82,8.13,9.55,8.17-15.06,8.17-15.06l.64-4.38-3.9-2.4s-1.77,1.25-.46,2.76,1.32,1,.79,2.15a3.63,3.63,0,0,0-.13,3.17c.46,1-4.77,6.81-4.77,6.81l-1.89-4.78A8.84,8.84,0,0,0,33.21,41.57Z"/><path class="cls-8" d="M12.32,36.77S5,46.18,10.14,48.24,17,44.48,17,44.48,21,36,12.32,36.77Z"/><path class="cls-12" d="M7.12,36.73s8.43-11,15.15-11c3.82,0,7.26-.69,12.92,3.55,2.28,1.71,5,6.66,6.49,11.1,0,0-4.15,1.45-7.47,2.49l2.21,13.42s-18.38,3-23.13,0l2-13.25S7.12,42.12,7.12,36.73Z"/><path class="cls-13" d="M23,22.69l-1.37,4.75s5,2,7.31.3l.08-2.89S26,21.32,23,22.69Z"/><path class="cls-8" d="M34.93,7.14a10.34,10.34,0,0,1,1,6.65c-.72,3.72.48,3.63,1.06,4.07s-2.45,8.2-6.05,7.48S25,23.12,24.14,20.1c0,0-3.06-1.16-1.34-4.36,1.51-2.82,3.38.24,3.38.24s-1.64-6.07.09-7.16S34.07,4.87,34.93,7.14Z"/><rect class="cls-3" x="32.37" y="13.83" width="0.99" height="2.47" rx="0.49" transform="translate(4.57 -7.44) rotate(13.88)"/><path class="cls-14" d="M34.85,21l-3.72-1.33s-1.58,2.63,1.71,3.85C33.26,23.67,34.28,22.81,34.85,21Z"/><path class="cls-3" d="M24.49,15.11S25.2,18,27.14,18.6c0,0-.79-5.63-.23-6.72a1.25,1.25,0,0,1,1,1.28S29.19,13,29,11.25c0,0,.81,1.41.53,2.06A2,2,0,0,0,31,10.85s1.46,1.06.9,2.21c0,0,1.56,0,1.22-2.34,0,0,1.7,1.86,1.06,2.94,0,0,1.87-1,1.18-2.62,0,0,.91,2,0,2.49,0,0,6.77-7-3.45-12.86,0,0-10.82-2.74-15.39,2.85s-4.07,11.61.36,15.86S25.6,22.7,25.6,22.7l-1.46-2.6s-1.85-.72-1.87-1.75a10.28,10.28,0,0,1,.53-2.61s.48-1.05,1.14-1S24.49,15.11,24.49,15.11Z"/><path class="cls-3" d="M18.69,2.57S6-3.26,4.34,9.75s10,12.59,6.33,14.7-4.31,2-4.31,2a15.31,15.31,0,0,0,4.38-.08,6.62,6.62,0,0,0,3-1.16c1.3-1,1.2-2.74,1.36-4.24a.84.84,0,0,1,.1-.39c.49-.76.79,1,.82,1.2a5.82,5.82,0,0,1-1.7,4.43c-.25.27-.9,1.16-1.25,1.21,0,0,9.82-1.23,7.07-7.46C18.31,15.81,18.69,2.57,18.69,2.57Z"/><path class="cls-12" d="M29.7,31S28,35.49,32.09,42.71a2.19,2.19,0,0,0,2.12.16"/><line class="cls-12" x1="15.6" y1="40.87" x2="17.94" y2="31.24"/><circle class="cls-15" cx="29.05" cy="18.39" r="2.56"/><path class="cls-16" d="M15,53.62s12.6,2.09,19.74,0"/><path class="cls-16" d="M15,49.26s11.37,2.08,18.5,0"/><path class="cls-16" d="M16.23,45.35s9.85,2,17-.09"/><path class="cls-16" d="M17.52,41.1a58.58,58.58,0,0,0,12.5.21"/><path class="cls-16" d="M17.94,36.73s3.72,1.25,10.76.42"/><path class="cls-3" d="M7.58,107.32s5.13,1.15,5.19,0,4-3.37,6.89-.9,1.22,6.31-3.11,7.31c-1.94.45-3.51,2.13-5.46,2.43s-4.47.24-5.7-1.66C4.67,113.38,5.81,106.71,7.58,107.32Z"/><path class="cls-12" d="M44,97.54s1.1,7.44.93,9.88c-1.23.87-3.52.83-5.18.83-.73,0-2.53-7.15-3-9.18C36.75,99,42.59,98.67,44,97.54Z"/><path class="cls-12" d="M8.13,98.64a14.23,14.23,0,0,0,7.47.85s-1.79,7.87-2.57,8.68c0,0-5.12,1.07-5.49-.27A59.73,59.73,0,0,1,8.13,98.64Z"/><line class="cls-10" x1="9.13" y1="101.17" x2="8.81" y2="108.32"/><line class="cls-10" x1="10.96" y1="101.39" x2="10.03" y2="109.19"/><line class="cls-10" x1="13.15" y1="101.59" x2="11.77" y2="108.29"/><line class="cls-10" x1="38.6" y1="101.16" x2="40.77" y2="108.71"/><line class="cls-10" x1="40.77" y1="100.83" x2="42.11" y2="108.47"/><line class="cls-10" x1="42.93" y1="100.45" x2="43.73" y2="108.25"/><path class="cls-10" d="M37.19,100.89s2.18.46,6.82-1.15"/><path class="cls-10" d="M7.85,100.64a19.42,19.42,0,0,0,7.3.75"/><path class="cls-3" d="M31.25,26.92S23.31,40.7,19.73,50.67l2.87,1.1s6.58-18.94,11.09-23.53C33.69,28.24,33.53,26.09,31.25,26.92Z"/><path class="cls-3" d="M10.14,48.24,0,70.52l15.6,7.57L26.89,51.22S16.24,48.09,10.14,48.24Z"/><line class="cls-17" x1="9.11" y1="50.39" x2="24.83" y2="54.31"/><circle class="cls-2" cx="18.39" cy="2.57" r="0.87"/><circle class="cls-2" cx="18.4" cy="4.4" r="1.48"/><circle class="cls-2" cx="17.84" cy="7.13" r="1.6"/><circle class="cls-2" cx="19.38" cy="6.27" r="0.98"/><circle class="cls-2" cx="16.76" cy="9.25" r="0.76"/><circle class="cls-2" cx="17.74" cy="8.88" r="0.98"/><circle class="cls-2" cx="16.56" cy="10.01" r="0.56"/><path class="cls-18" d="M45.42,104.35a2.94,2.94,0,0,1,2.74,1.15"/><path class="cls-18" d="M46.45,102.65a2.94,2.94,0,0,1,2.74,1.15"/><path class="cls-18" d="M13.79,106.69s1.84.65,1.94,2.25"/><path class="cls-18" d="M15.47,105.62s1.84.66,1.94,2.26"/><path class="cls-19" d="M79.22,34.26a32.13,32.13,0,0,0,0,4.48c.18,1.78-1,1.47-1,1.47a7.11,7.11,0,0,0,7.25,6.32c6.62.06,5.52-5.21,5.52-5.21a8.47,8.47,0,0,0,1.35-1.72,2.73,2.73,0,0,0-.87-3c-1.29-.91-2,.85-2.86,1.46,0-1.39.15-2.8.23-4.19Z"/><rect class="cls-3" x="80.16" y="36.03" width="1.01" height="2.63" rx="0.51" transform="translate(-1.52 3.48) rotate(-2.45)"/><path class="cls-14" d="M79.84,42.29l2.66-.71a2.28,2.28,0,0,1-1.18,2.66A3.4,3.4,0,0,1,79.84,42.29Z"/><path class="cls-9" d="M82.52,24.42l-.42.3a12.49,12.49,0,0,0-4.47,7.05c0,.25-.34,2.42,0,2.48,0,0,12.35,2.6,20.67-1.43a10.1,10.1,0,0,0-1.62-6.07C93.33,22.09,86.58,21.69,82.52,24.42Z"/><path class="cls-3" d="M85.3,35.08a3.41,3.41,0,0,0,3.26,3s.76-1.63,1.54-1.5,2.1-.63,2.15,1.19a5.63,5.63,0,0,1-1.31,3.55c-.54.91-.18,2.83-1.18,3.91s2.56.56,2.94-.36c0,0,.58.1.29.48s1.68-.85,1.68-2.44c0,0,.72-.73.58.28,0,0,6.87-3.41,2.78-9.94A115.82,115.82,0,0,1,85.3,35.08Z"/><path class="cls-3" d="M77.53,34.32A2.3,2.3,0,0,0,79,37.73l.53-2.91Z"/><path class="cls-20" d="M77.63,31.77a46.06,46.06,0,0,0,20.11-1"/><path class="cls-7" d="M74.3,58,71,61.62l-5.79,6.67s-4.73,1-5.31,1.64,2.4,2.79,7.19,1.73c0,0,1,.1.92-2L73.63,65l6.47-4.32A6,6,0,0,0,74.3,58Z"/><path class="cls-21" d="M83.28,57.38V69.06a3.42,3.42,0,0,0,3.42,3.42H97.41a3.4,3.4,0,0,0,3.16-2.11c1.57-3.83,4.09-12.08-.26-18.06A3.34,3.34,0,0,0,97.61,51H89.67A6.39,6.39,0,0,0,83.28,57.38Z"/><path class="cls-21" d="M80.1,48.59a6.05,6.05,0,0,1,4.53,4.86l2-1.06S86.49,48,83,47.52C83,47.52,80.89,46.82,80.1,48.59Z"/><path class="cls-21" d="M93,47.73a6.05,6.05,0,0,1,3.87,5.4l2.12-.8S99.42,48,96,47C96,47,94,46.07,93,47.73Z"/><path class="cls-21" d="M84.14,67.76a9,9,0,0,1-6.23,1.13,2.23,2.23,0,0,0-.53,2s6.33,2.15,8.39-1.88C85.77,69,86.08,68.13,84.14,67.76Z"/><path class="cls-22" d="M88.13,53.13s-.44,19.32-.44,21.31"/><rect class="cls-23" x="89.86" y="61.34" width="10.06" height="9.21" rx="2.87"/><line class="cls-23" x1="90.76" y1="57.15" x2="99.92" y2="57.15"/><rect class="cls-2" x="97.86" y="57.15" width="1.3" height="2.79" rx="0.65"/><circle class="cls-3" cx="95.03" cy="66.27" r="2.03"/><circle class="cls-3" cx="93.26" cy="64.69" r="1.08"/><circle class="cls-3" cx="96.79" cy="64.69" r="1.08"/><path class="cls-24" d="M76.88,87.63a24.6,24.6,0,0,0,11.76,1"/><path class="cls-24" d="M92.76,88.91a24.48,24.48,0,0,0,11.51-2.58"/><circle class="cls-15" cx="85.33" cy="40.03" r="2.64"/><polygon class="cls-25" points="24.83 50.65 12.46 76.57 15.6 78.09 26.89 51.22 24.83 50.65"/></g></g></svg>