<svg xmlns="http://www.w3.org/2000/svg" viewBox="0 0 227.94 173.38"><defs><style>.cls-1,.cls-14,.cls-2,.cls-21,.cls-23,.cls-27,.cls-28,.cls-29,.cls-30,.cls-31,.cls-33,.cls-4{fill:#ffe97b;}.cls-1,.cls-10,.cls-12,.cls-13,.cls-14,.cls-15,.cls-16,.cls-19,.cls-2,.cls-21,.cls-23,.cls-24,.cls-25,.cls-26,.cls-27,.cls-28,.cls-29,.cls-30,.cls-31,.cls-32,.cls-33,.cls-35,.cls-38,.cls-5,.cls-6,.cls-7{stroke:#4ba795;}.cls-1,.cls-10,.cls-12,.cls-13,.cls-14,.cls-15,.cls-16,.cls-18,.cls-19,.cls-2,.cls-20,.cls-21,.cls-23,.cls-24,.cls-25,.cls-26,.cls-27,.cls-28,.cls-29,.cls-30,.cls-31,.cls-32,.cls-33,.cls-34,.cls-35,.cls-36,.cls-37,.cls-38,.cls-5,.cls-6,.cls-7{stroke-linecap:round;stroke-linejoin:round;}.cls-1{stroke-width:1.23px;}.cls-2{stroke-width:0.88px;}.cls-3,.cls-34{fill:#4ba795;}.cls-12,.cls-13,.cls-15,.cls-24,.cls-25,.cls-5,.cls-6,.cls-7,.cls-9{fill:#fff;}.cls-38,.cls-5{stroke-width:1.16px;}.cls-6{stroke-width:1.67px;}.cls-7{stroke-width:0.58px;stroke-dasharray:2.32;}.cls-8{fill:#bc4d26;}.cls-9{font-size:2.73px;font-family:CP-Font, CP Font-83pv-RKSJ-H;}.cls-10,.cls-16,.cls-18,.cls-19,.cls-20,.cls-26,.cls-32,.cls-35,.cls-36,.cls-37,.cls-38{fill:none;}.cls-10{stroke-width:2.32px;}.cls-11{fill:#2a7682;}.cls-12,.cls-14,.cls-19{stroke-width:0.86px;}.cls-13,.cls-21{stroke-width:0.91px;}.cls-15{stroke-width:0.84px;}.cls-16,.cls-18{stroke-width:0.8px;}.cls-17,.cls-22{fill:#efa495;}.cls-18,.cls-20,.cls-36,.cls-37{stroke:#fff;}.cls-20{stroke-width:0.99px;}.cls-22{opacity:0.37;}.cls-23{stroke-width:0.8px;}.cls-24{stroke-width:0.77px;}.cls-25,.cls-31,.cls-32{stroke-width:0.78px;}.cls-26{stroke-width:0.75px;}.cls-27{stroke-width:0.72px;}.cls-28{stroke-width:0.51px;}.cls-29{stroke-width:0.97px;}.cls-30{stroke-width:0.69px;}.cls-33{stroke-width:0.88px;}.cls-34{stroke:#ffe97b;stroke-width:0.63px;}.cls-35,.cls-37{stroke-width:0.74px;}.cls-36{stroke-width:0.5px;stroke-dasharray:2.02;}</style></defs><title>資產 12</title><g id="圖層_2" data-name="圖層 2"><g id="B"><line class="cls-1" x1="133.1" y1="12.54" x2="150.31" y2="33.44"/><rect class="cls-2" x="132.05" y="13.6" width="6.86" height="3.66" rx="1.83" transform="translate(21.1 89.66) rotate(-39.48)"/><rect class="cls-2" x="135.42" y="17.69" width="6.86" height="3.66" rx="1.83" transform="translate(19.27 92.74) rotate(-39.48)"/><rect class="cls-2" x="139.13" y="22.2" width="6.86" height="3.66" rx="1.83" transform="translate(17.25 96.13) rotate(-39.48)"/><rect class="cls-3" x="51.25" y="79.02" width="4.21" height="85.63" rx="2.1"/><rect class="cls-3" x="119.04" y="79.02" width="4.21" height="85.63" rx="2.1"/><rect class="cls-3" x="215.57" y="79.02" width="4.21" height="85.63" rx="2.1"/><rect class="cls-4" x="31.33" y="75.27" width="196.13" height="7.51" rx="3.48"/><rect class="cls-5" x="38.08" y="56.23" width="66.7" height="18.65" rx="3.48"/><rect class="cls-3" x="38.08" y="62.21" width="17.38" height="7.19" rx="0.55"/><rect class="cls-6" x="101.55" y="35.95" width="66.7" height="38.93" rx="5.02"/><line class="cls-7" x1="119.04" y1="35.95" x2="119.04" y2="71.53"/><path class="cls-8" d="M121.52,35.49H113a8.89,8.89,0,0,1-8.9-8.9h26.32A8.89,8.89,0,0,1,121.52,35.49Z"/><path class="cls-3" d="M121.52,35.49H113a8.89,8.89,0,0,1-8.9-8.9h26.32A8.89,8.89,0,0,1,121.52,35.49Z"/><path class="cls-4" d="M133.42,21.06h26.32a0,0,0,0,1,0,0v1.27A7.63,7.63,0,0,1,152.11,30H141.05a7.63,7.63,0,0,1-7.63-7.63V21.06A0,0,0,0,1,133.42,21.06Z"/><path class="cls-8" d="M150.85,35.49h-8.53a8.9,8.9,0,0,1-8.9-8.9h26.32A8.89,8.89,0,0,1,150.85,35.49Z"/><path class="cls-3" d="M150.85,35.49h-8.53a8.9,8.9,0,0,1-8.9-8.9h26.32A8.89,8.89,0,0,1,150.85,35.49Z"/><text class="cls-9" transform="translate(38.91 66.8)">Barbecue</text><line class="cls-10" x1="5.85" y1="126.38" x2="43.86" y2="148.25"/><line class="cls-10" x1="5.85" y1="126.38" x2="43.86" y2="148.25"/><line class="cls-10" x1="43.86" y1="126.38" x2="5.85" y2="148.25"/><rect class="cls-11" x="4.35" y="120.9" width="4.21" height="43.75" rx="1.5"/><rect class="cls-11" x="41.76" y="120.9" width="4.21" height="43.75" rx="1.5"/><rect class="cls-4" y="111.64" width="47.97" height="12.37" rx="3.69"/><rect class="cls-4" y="79.71" width="8.46" height="43.73" rx="3.48"/><line class="cls-1" x1="133.1" y1="12.54" x2="150.31" y2="33.44"/><rect class="cls-2" x="132.05" y="13.6" width="6.86" height="3.66" rx="1.83" transform="translate(21.1 89.66) rotate(-39.48)"/><rect class="cls-2" x="135.42" y="17.69" width="6.86" height="3.66" rx="1.83" transform="translate(19.27 92.74) rotate(-39.48)"/><rect class="cls-2" x="139.13" y="22.2" width="6.86" height="3.66" rx="1.83" transform="translate(17.25 96.13) rotate(-39.48)"/><rect class="cls-3" x="51.25" y="79.02" width="4.21" height="85.63" rx="2.1"/><rect class="cls-3" x="119.04" y="79.02" width="4.21" height="85.63" rx="2.1"/><rect class="cls-3" x="215.57" y="79.02" width="4.21" height="85.63" rx="2.1"/><rect class="cls-4" x="31.33" y="75.27" width="196.13" height="7.51" rx="3.48"/><rect class="cls-5" x="38.08" y="56.23" width="66.7" height="18.65" rx="3.48"/><rect class="cls-3" x="38.08" y="62.21" width="17.38" height="7.19" rx="0.55"/><rect class="cls-6" x="101.55" y="35.95" width="66.7" height="38.93" rx="5.02"/><line class="cls-7" x1="119.04" y1="35.95" x2="119.04" y2="71.53"/><path class="cls-8" d="M121.52,35.49H113a8.89,8.89,0,0,1-8.9-8.9h26.32A8.89,8.89,0,0,1,121.52,35.49Z"/><path class="cls-3" d="M121.52,35.49H113a8.89,8.89,0,0,1-8.9-8.9h26.32A8.89,8.89,0,0,1,121.52,35.49Z"/><path class="cls-4" d="M133.42,21.06h26.32a0,0,0,0,1,0,0v1.27A7.63,7.63,0,0,1,152.11,30H141.05a7.63,7.63,0,0,1-7.63-7.63V21.06A0,0,0,0,1,133.42,21.06Z"/><path class="cls-8" d="M150.85,35.49h-8.53a8.9,8.9,0,0,1-8.9-8.9h26.32A8.89,8.89,0,0,1,150.85,35.49Z"/><path class="cls-3" d="M150.85,35.49h-8.53a8.9,8.9,0,0,1-8.9-8.9h26.32A8.89,8.89,0,0,1,150.85,35.49Z"/><text class="cls-9" transform="translate(38.91 66.8)">Barbecue</text><line class="cls-10" x1="5.85" y1="126.38" x2="43.86" y2="148.25"/><line class="cls-10" x1="5.85" y1="126.38" x2="43.86" y2="148.25"/><line class="cls-10" x1="43.86" y1="126.38" x2="5.85" y2="148.25"/><rect class="cls-11" x="4.35" y="120.9" width="4.21" height="43.75" rx="1.5"/><rect class="cls-11" x="41.76" y="120.9" width="4.21" height="43.75" rx="1.5"/><rect class="cls-4" y="111.64" width="47.97" height="12.37" rx="3.69"/><rect class="cls-4" y="79.71" width="8.46" height="43.73" rx="3.48"/><polygon class="cls-12" points="195.58 58.93 182.29 58.93 180.94 74.71 195.58 80.68 199.64 65.47 195.58 58.93"/><path class="cls-3" d="M175.41,151.63s-1.72,4.26-4.86,5.35-8.54,2.25-7.8,8.29,9.27,2.55,18.29-.38,5.81-3.11,5.78-5.75S186.28,144.93,175.41,151.63Z"/><path class="cls-13" d="M179.47,97.55l-2.15,29.9.07,23.17s2.85,5,8.38,3.19c0,0,1.81-14.58.19-26.48,0,0,7.89-19.5,7.73-27.85Z"/><path class="cls-13" d="M192,98.14l.3,30V156s3.24,4.73,8.6,2.35c0,0,2.58-19.54,0-31.24,0,0,6.27-20.19,5.43-28.49Z"/><path class="cls-14" d="M180.92,59.9a31.29,31.29,0,0,0,17.24,1.22c9.91-2,2.94-21.12,2.94-21.12l-15.48,2.48Z"/><path class="cls-12" d="M176.42,96.54l-.52,4.65s11.93,3.38,16.32.46V75.6s-8,.18-11.28-.89C178.92,74.07,176.42,96.54,176.42,96.54Z"/><path class="cls-12" d="M182.13,74.71s8.1,1.93,14.47.24l11.17,16.77L209,102.1s-14.88,3.77-20.09.74V85"/><path class="cls-3" d="M191.67,37.68s-12.25-.25-17.78,14.5c0,0-1.73,5.55,4.23,5.92h1.29l-10.3,41.79s5.29,3.33,9.65-.92C178.76,99,186.68,43,191.67,37.68Z"/><path class="cls-3" d="M198.6,37.68s11.06.93,14,4.8c0,0,8,6.47,8,8.36s-7.92,11.81-7.92,11.81L217.48,99s-14,5.53-21.43,2.2S198.6,37.68,198.6,37.68Z"/><path class="cls-15" d="M191.67,36V38.8L188.39,40s2.76,4.94,6.71,4,6.08-2.92,6-3.93l-2.94-.81.88-3Z"/><path class="cls-15" d="M187.79,32s1.14,4.44,7.45,4.72a8.75,8.75,0,0,0,9.4-7c.28-2.42.28-5,1.14-7.17s-.43-5.15-.43-5.15-8.46-4.23-11.11-3.22-7.6,5.59-7.75,9-.35,2.87-.35,2.87-.08-1.22-2-.72S181.62,32.2,187.79,32Z"/><rect class="cls-3" x="190.87" y="22.56" width="1.59" height="3.53" rx="0.79"/><rect class="cls-3" x="201.1" y="22.56" width="1.59" height="3.53" rx="0.79"/><path class="cls-16" d="M199,27s.38,1.34-.82,1.34"/><path class="cls-17" d="M199.64,31.15a3.71,3.71,0,0,1-3.59,3.07,3.8,3.8,0,0,1-3.59-3.16c0-1.24,1.61-1.33,3.59-1.33S199.64,29.91,199.64,31.15Z"/><path class="cls-3" d="M186.14,26.09s7.49-4.47,9.91-8.58c0,0,6,6.2,9.34,6.29s4.5-8.45.69-12.3-9.25-7.26-15.5-5.38-12.66,6-11.72,16.92S187.11,34,189.14,34.22L187.79,32a4.66,4.66,0,0,1-4-1.85C181.71,27.64,183.74,23,186.14,26.09Z"/><path class="cls-3" d="M182.25,14.74s-4.54-2.79-9.08,2S174,27.37,178.86,23,182.25,14.74,182.25,14.74Z"/><path class="cls-3" d="M177,22s-3.22,1.64-2.08,3.37,4.88,1.33,5.68,0S181.2,21.55,177,22Z"/><path class="cls-18" d="M203.48,44.06a16.48,16.48,0,0,0,1.71,11.23,16.27,16.27,0,0,0,6.11,7.12"/><rect class="cls-14" x="167.2" y="40.15" width="3.79" height="35.8" rx="1.89" transform="translate(54.16 195) rotate(-68.94)"/><rect class="cls-14" x="168.89" y="36.99" width="3.79" height="35.8" rx="1.89" transform="translate(29.85 165.89) rotate(-56.04)"/><path class="cls-12" d="M175,66.52c-2.07-.24-7.25-5.62-3.55-7.48s8.58-1.57,9.47.86S183.08,67.48,175,66.52Z"/><line class="cls-19" x1="173" y1="58.4" x2="174.63" y2="62.29"/><line class="cls-19" x1="176.68" y1="58.15" x2="178.37" y2="62.29"/><path class="cls-16" d="M188.39,69.41s.35,1.69,0,2"/><path class="cls-16" d="M176.58,95.58s3.84,4.45,12.67,2.83a13.06,13.06,0,0,0,6.24.63"/><path class="cls-3" d="M208.16,19.87S210,27.29,205,28.7c0,0,2.72-4.07-.46-6.83S208.16,19.87,208.16,19.87Z"/><path class="cls-3" d="M186.81,24.33s-2.49,4.06,2.85,5c0,0-2.19-.83-1-5.54Z"/><path class="cls-20" d="M198.84,70.79v5a4.84,4.84,0,0,0,9.68,0v-5Z"/><path class="cls-4" d="M181,13.22a2.34,2.34,0,0,1-.59,1.41,2.35,2.35,0,0,1-.58-1.41c0-.77.26-1.41.58-1.41S181,12.45,181,13.22Z"/><path class="cls-4" d="M182.66,14.44a2.34,2.34,0,0,1-1.41.58,2.31,2.31,0,0,1,.59-1.41c.55-.55,1.18-.81,1.41-.59S183.22,13.89,182.66,14.44Z"/><path class="cls-4" d="M183,16.44a2.35,2.35,0,0,1-1.41-.58,2.34,2.34,0,0,1,1.41-.59c.78,0,1.41.26,1.41.59S183.74,16.44,183,16.44Z"/><path class="cls-4" d="M181.74,18.07a2.34,2.34,0,0,1-.58-1.41,2.34,2.34,0,0,1,1.41.58c.55.55.82,1.18.59,1.41S182.3,18.62,181.74,18.07Z"/><path class="cls-4" d="M179.74,18.36a2.35,2.35,0,0,1,.58-1.41,2.34,2.34,0,0,1,.59,1.41c0,.78-.26,1.41-.59,1.41S179.74,19.14,179.74,18.36Z"/><path class="cls-4" d="M178.11,17.15a2.34,2.34,0,0,1,1.41-.58,2.34,2.34,0,0,1-.58,1.41c-.55.55-1.18.81-1.41.58S177.56,17.7,178.11,17.15Z"/><path class="cls-4" d="M177.82,15.14a2.34,2.34,0,0,1,1.41.59,2.34,2.34,0,0,1-1.41.59c-.78,0-1.41-.27-1.41-.59S177,15.14,177.82,15.14Z"/><path class="cls-4" d="M179,13.52a2.34,2.34,0,0,1,.58,1.41,2.34,2.34,0,0,1-1.41-.58c-.55-.56-.81-1.19-.58-1.42S178.48,13,179,13.52Z"/><path class="cls-12" d="M218,50.84l8.15,10.23s3.57,3.14-.76,6.64-14.47,9.44-14.47,9.44l1.88,3.64s-2,7-4.31,6.61,0-6.23,0-6.23-4.16-2.5-3.11-5.44,4.6-2.45,4.6-2.45l8.92-9.62-5.56-5.2S211.62,50.84,218,50.84Z"/><path class="cls-21" d="M192.2,155.25s-2.64,3.64-5.93,3.83-8.78-.19-9.44,5.86,8.39,5,17.79,4.7,6.33-1.4,6.91-4S204.25,151.78,192.2,155.25Z"/><circle class="cls-22" cx="203.68" cy="28.7" r="2.96"/><circle class="cls-22" cx="189.54" cy="28.7" r="2.96"/><polygon class="cls-12" points="195.58 58.93 182.29 58.93 180.94 74.71 195.58 80.68 199.64 65.47 195.58 58.93"/><path class="cls-3" d="M175.41,151.63s-1.72,4.26-4.86,5.35-8.54,2.25-7.8,8.29,9.27,2.55,18.29-.38,5.81-3.11,5.78-5.75S186.28,144.93,175.41,151.63Z"/><path class="cls-13" d="M179.47,97.55l-2.15,29.9.07,23.17s2.85,5,8.38,3.19c0,0,1.81-14.58.19-26.48,0,0,7.89-19.5,7.73-27.85Z"/><path class="cls-13" d="M192,98.14l.3,30V156s3.24,4.73,8.6,2.35c0,0,2.58-19.54,0-31.24,0,0,6.27-20.19,5.43-28.49Z"/><path class="cls-14" d="M180.92,59.9a31.29,31.29,0,0,0,17.24,1.22c9.91-2,2.94-21.12,2.94-21.12l-15.48,2.48Z"/><path class="cls-12" d="M176.42,96.54l-.52,4.65s11.93,3.38,16.32.46V75.6s-8,.18-11.28-.89C178.92,74.07,176.42,96.54,176.42,96.54Z"/><path class="cls-12" d="M182.13,74.71s8.1,1.93,14.47.24l11.17,16.77L209,102.1s-14.88,3.77-20.09.74V85"/><path class="cls-3" d="M191.67,37.68s-12.25-.25-17.78,14.5c0,0-1.73,5.55,4.23,5.92h1.29l-10.3,41.79s5.29,3.33,9.65-.92C178.76,99,186.68,43,191.67,37.68Z"/><path class="cls-3" d="M198.6,37.68s11.06.93,14,4.8c0,0,8,6.47,8,8.36s-7.92,11.81-7.92,11.81L217.48,99s-14,5.53-21.43,2.2S198.6,37.68,198.6,37.68Z"/><path class="cls-15" d="M191.67,36V38.8L188.39,40s2.76,4.94,6.71,4,6.08-2.92,6-3.93l-2.94-.81.88-3Z"/><path class="cls-15" d="M187.79,32s1.14,4.44,7.45,4.72a8.75,8.75,0,0,0,9.4-7c.28-2.42.28-5,1.14-7.17s-.43-5.15-.43-5.15-8.46-4.23-11.11-3.22-7.6,5.59-7.75,9-.35,2.87-.35,2.87-.08-1.22-2-.72S181.62,32.2,187.79,32Z"/><rect class="cls-3" x="190.87" y="22.56" width="1.59" height="3.53" rx="0.79"/><rect class="cls-3" x="201.1" y="22.56" width="1.59" height="3.53" rx="0.79"/><path class="cls-16" d="M199,27s.38,1.34-.82,1.34"/><path class="cls-17" d="M199.64,31.15a3.71,3.71,0,0,1-3.59,3.07,3.8,3.8,0,0,1-3.59-3.16c0-1.24,1.61-1.33,3.59-1.33S199.64,29.91,199.64,31.15Z"/><path class="cls-3" d="M186.14,26.09s7.49-4.47,9.91-8.58c0,0,6,6.2,9.34,6.29s4.5-8.45.69-12.3-9.25-7.26-15.5-5.38-12.66,6-11.72,16.92S187.11,34,189.14,34.22L187.79,32a4.66,4.66,0,0,1-4-1.85C181.71,27.64,183.74,23,186.14,26.09Z"/><path class="cls-3" d="M182.25,14.74s-4.54-2.79-9.08,2S174,27.37,178.86,23,182.25,14.74,182.25,14.74Z"/><path class="cls-3" d="M177,22s-3.22,1.64-2.08,3.37,4.88,1.33,5.68,0S181.2,21.55,177,22Z"/><path class="cls-18" d="M203.48,44.06a16.48,16.48,0,0,0,1.71,11.23,16.27,16.27,0,0,0,6.11,7.12"/><rect class="cls-14" x="167.2" y="40.15" width="3.79" height="35.8" rx="1.89" transform="translate(54.16 195) rotate(-68.94)"/><rect class="cls-14" x="168.89" y="36.99" width="3.79" height="35.8" rx="1.89" transform="translate(29.85 165.89) rotate(-56.04)"/><path class="cls-12" d="M175,66.52c-2.07-.24-7.25-5.62-3.55-7.48s8.58-1.57,9.47.86S183.08,67.48,175,66.52Z"/><line class="cls-19" x1="173" y1="58.4" x2="174.63" y2="62.29"/><line class="cls-19" x1="176.68" y1="58.15" x2="178.37" y2="62.29"/><path class="cls-16" d="M188.39,69.41s.35,1.69,0,2"/><path class="cls-16" d="M176.58,95.58s3.84,4.45,12.67,2.83a13.06,13.06,0,0,0,6.24.63"/><path class="cls-3" d="M208.16,19.87S210,27.29,205,28.7c0,0,2.72-4.07-.46-6.83S208.16,19.87,208.16,19.87Z"/><path class="cls-3" d="M186.81,24.33s-2.49,4.06,2.85,5c0,0-2.19-.83-1-5.54Z"/><path class="cls-20" d="M198.84,70.79v5a4.84,4.84,0,0,0,9.68,0v-5Z"/><path class="cls-4" d="M181,13.22a2.34,2.34,0,0,1-.59,1.41,2.35,2.35,0,0,1-.58-1.41c0-.77.26-1.41.58-1.41S181,12.45,181,13.22Z"/><path class="cls-4" d="M182.66,14.44a2.34,2.34,0,0,1-1.41.58,2.31,2.31,0,0,1,.59-1.41c.55-.55,1.18-.81,1.41-.59S183.22,13.89,182.66,14.44Z"/><path class="cls-4" d="M183,16.44a2.35,2.35,0,0,1-1.41-.58,2.34,2.34,0,0,1,1.41-.59c.78,0,1.41.26,1.41.59S183.74,16.44,183,16.44Z"/><path class="cls-4" d="M181.74,18.07a2.34,2.34,0,0,1-.58-1.41,2.34,2.34,0,0,1,1.41.58c.55.55.82,1.18.59,1.41S182.3,18.62,181.74,18.07Z"/><path class="cls-4" d="M179.74,18.36a2.35,2.35,0,0,1,.58-1.41,2.34,2.34,0,0,1,.59,1.41c0,.78-.26,1.41-.59,1.41S179.74,19.14,179.74,18.36Z"/><path class="cls-4" d="M178.11,17.15a2.34,2.34,0,0,1,1.41-.58,2.34,2.34,0,0,1-.58,1.41c-.55.55-1.18.81-1.41.58S177.56,17.7,178.11,17.15Z"/><path class="cls-4" d="M177.82,15.14a2.34,2.34,0,0,1,1.41.59,2.34,2.34,0,0,1-1.41.59c-.78,0-1.41-.27-1.41-.59S177,15.14,177.82,15.14Z"/><path class="cls-4" d="M179,13.52a2.34,2.34,0,0,1,.58,1.41,2.34,2.34,0,0,1-1.41-.58c-.55-.56-.81-1.19-.58-1.42S178.48,13,179,13.52Z"/><path class="cls-12" d="M218,50.84l8.15,10.23s3.57,3.14-.76,6.64-14.47,9.44-14.47,9.44l1.88,3.64s-2,7-4.31,6.61,0-6.23,0-6.23-4.16-2.5-3.11-5.44,4.6-2.45,4.6-2.45l8.92-9.62-5.56-5.2S211.62,50.84,218,50.84Z"/><path class="cls-21" d="M192.2,155.25s-2.64,3.64-5.93,3.83-8.78-.19-9.44,5.86,8.39,5,17.79,4.7,6.33-1.4,6.91-4S204.25,151.78,192.2,155.25Z"/><circle class="cls-22" cx="203.68" cy="28.7" r="2.96"/><circle class="cls-22" cx="189.54" cy="28.7" r="2.96"/><path class="cls-11" d="M167.2,169.27a1,1,0,0,1-1-.8L151.31,95.25a1,1,0,0,1,1.95-.4l14.92,73.23a1,1,0,0,1-.78,1.17Z"/><path class="cls-11" d="M113.68,169.27l-.21,0a1,1,0,0,1-.76-1.19l16.88-75.43a1,1,0,1,1,1.94.43l-16.88,75.43A1,1,0,0,1,113.68,169.27Z"/><path class="cls-3" d="M110.42,69a30.95,30.95,0,0,0,61.89,0Z"/><path class="cls-11" d="M167.23,69c-2.36,14.75-14.44,24.1-29.86,24.1-7.35,0-14.8-.64-20.11-4.92A30.95,30.95,0,0,0,172.31,69Z"/><path class="cls-23" d="M109.66,68.79h62.65a0,0,0,0,1,0,0V71a0,0,0,0,1,0,0H109.07a0,0,0,0,1,0,0V69.39A.6.6,0,0,1,109.66,68.79Z"/><path class="cls-3" d="M175.28,69.12a3,3,0,1,1-2.36-3.58A3,3,0,0,1,175.28,69.12Z"/><path class="cls-4" d="M174.24,68.9a2,2,0,1,1-1.53-2.33A2,2,0,0,1,174.24,68.9Z"/><rect class="cls-11" x="122.12" y="127.84" width="37.62" height="3.82"/><rect class="cls-3" x="117.26" y="62.29" width="28.09" height="3.83" rx="1.64"/><rect class="cls-4" x="124.46" y="62.29" width="20.9" height="3.83" rx="1.64"/><rect class="cls-4" x="148.23" y="62.29" width="16.22" height="3.72" rx="1.6"/><rect class="cls-3" x="114.01" y="65.98" width="54.19" height="2.81" rx="1.21"/><path class="cls-11" d="M167.2,169.27a1,1,0,0,1-1-.8L151.31,95.25a1,1,0,0,1,1.95-.4l14.92,73.23a1,1,0,0,1-.78,1.17Z"/><path class="cls-11" d="M113.68,169.27l-.21,0a1,1,0,0,1-.76-1.19l16.88-75.43a1,1,0,1,1,1.94.43l-16.88,75.43A1,1,0,0,1,113.68,169.27Z"/><path class="cls-3" d="M110.42,69a30.95,30.95,0,0,0,61.89,0Z"/><path class="cls-11" d="M167.23,69c-2.36,14.75-14.44,24.1-29.86,24.1-7.35,0-14.8-.64-20.11-4.92A30.95,30.95,0,0,0,172.31,69Z"/><path class="cls-23" d="M109.66,68.79h62.65a0,0,0,0,1,0,0V71a0,0,0,0,1,0,0H109.07a0,0,0,0,1,0,0V69.39A.6.6,0,0,1,109.66,68.79Z"/><path class="cls-3" d="M175.28,69.12a3,3,0,1,1-2.36-3.58A3,3,0,0,1,175.28,69.12Z"/><path class="cls-4" d="M174.24,68.9a2,2,0,1,1-1.53-2.33A2,2,0,0,1,174.24,68.9Z"/><rect class="cls-11" x="122.12" y="127.84" width="37.62" height="3.82"/><rect class="cls-3" x="117.26" y="62.29" width="28.09" height="3.83" rx="1.64"/><rect class="cls-4" x="124.46" y="62.29" width="20.9" height="3.83" rx="1.64"/><rect class="cls-4" x="148.23" y="62.29" width="16.22" height="3.72" rx="1.6"/><rect class="cls-3" x="114.01" y="65.98" width="54.19" height="2.81" rx="1.21"/><path class="cls-3" d="M88.37,160a9,9,0,0,1-1.67,5.39,10.17,10.17,0,0,0-1.41,6.39s7.95,3.59,14.75,0c0,0,.64-6.16-1-8.21s-.09-4.64-.09-4.64Z"/><path class="cls-3" d="M68.79,159.45l-8.23,4c-4.74,2.31-6.66,5.26-6.54,7.06s9,1.15,13.85,1.79,10.9.51,11.42-1.67-1-11.15-1-12.18S68.79,159.45,68.79,159.45Z"/><path class="cls-3" d="M68.08,81.23s-1.65,31.86-1,35.13-1.38,38.81-1.38,40.07,5.69,7.31,15,2L81,115.61l3.67-19.22,5.47,21.14-3.27,42.11s7.63,1.56,13.24-.7l4.62-39.34-3.57-38.37Z"/><rect class="cls-3" x="51.25" y="45.35" width="10.38" height="5.54" rx="2.77" transform="translate(-1.8 2.2) rotate(-2.2)"/><rect class="cls-4" x="53.05" y="42.29" width="6.79" height="3.62" rx="1.81" transform="translate(-1.65 2.2) rotate(-2.2)"/><path class="cls-24" d="M61.89,57.7l1-5,7.6,2.54s-3.1,16.41-7.88,16.41c-6.47,0-7.31-13.13-7.31-13.13s2.28-2.79,4.73-3.28l5.6,8.52"/><path class="cls-24" d="M67.78,59.38c0,.17-7.85-3.88-7.75-6.53s2.29-5.38,3.63-7.45C70.19,35.33,81.5,34,81.5,34a37.56,37.56,0,0,1,11.29.8,18,18,0,0,1,9.84,6.79c2.2,2.78,6.62,8.84,6.19,12.58-.24,2.16-7.93,6.09-8,5.64l2.2,24.53s-18.61,6.49-38.13.81C64.92,85.12,67.78,59.41,67.78,59.38Z"/><path class="cls-25" d="M79.2,30.85l.66,4.31-3.19,1.17s1.1,4,7,4.14,8-4,8-4L89,35.66,89.54,31S80.91,26.75,79.2,30.85Z"/><path class="cls-25" d="M75.33,25.68s1.38,5.79,8.68,7.06c4.35-.6,8-2.5,9.69-6.49a10.57,10.57,0,0,0,.48-1.44,4,4,0,0,0,2.6-1.14,6,6,0,0,0,1.5-2.45c.31-.9.42-2.1-.46-2.72a2.79,2.79,0,0,0-2.82,0,1.41,1.41,0,0,0-.74,1.11c.1-1.21.86-8.09-1.08-8.09S74.87,10.19,74,13.83a8.33,8.33,0,0,0,.37,5.86c-.35-.6-2.28-.78-2.82-.5-1.1.56-1.13,2.1-.92,3.15a3.66,3.66,0,0,0,2,2.38,6,6,0,0,0,1.47.53C74.25,25.31,75.26,25.42,75.33,25.68Z"/><rect class="cls-3" x="89.54" y="18.81" width="1.48" height="3.29" rx="0.74"/><rect class="cls-3" x="77.39" y="18.81" width="1.48" height="3.29" rx="0.74"/><path class="cls-26" d="M83.18,23.34s.08.91.92.91"/><line class="cls-27" x1="84.22" y1="27.73" x2="92.31" y2="41.24"/><rect class="cls-28" x="83.35" y="28.54" width="3.99" height="2.13" rx="1.06" transform="translate(-3.08 48.06) rotate(-30.92)"/><rect class="cls-28" x="84.93" y="31.18" width="3.99" height="2.13" rx="1.06" transform="translate(-4.22 49.25) rotate(-30.92)"/><rect class="cls-28" x="86.68" y="34.1" width="3.99" height="2.13" rx="1.06" transform="translate(-5.47 50.56) rotate(-30.92)"/><line class="cls-29" x1="73.09" y1="27.88" x2="78.81" y2="48.46"/><rect class="cls-30" x="71.18" y="29.29" width="5.41" height="2.89" rx="1.44" transform="translate(-5.53 20.92) rotate(-15.55)"/><rect class="cls-30" x="72.3" y="33.32" width="5.41" height="2.89" rx="1.44" transform="translate(-6.57 21.37) rotate(-15.55)"/><rect class="cls-30" x="73.53" y="37.75" width="5.41" height="2.89" rx="1.44" transform="translate(-7.72 21.86) rotate(-15.55)"/><line class="cls-31" x1="81.79" y1="28.72" x2="86" y2="26.82"/><path class="cls-32" d="M86,25.36c0,.17-.36,2.64,2.64,2.16"/><path class="cls-3" d="M84.1,12.07s-3.8,9.54-16.32,10.57c0,0,9.59-8,9.61-12.43S86.06,6.09,84.1,12.07Z"/><path class="cls-3" d="M83.18,10.74S91.75,22.16,102.07,22c0,0-7.91-6.61-8.44-11.66C93.63,10.34,87,5,83.18,10.74Z"/><circle class="cls-22" cx="76.67" cy="24.62" r="2.53"/><circle class="cls-22" cx="92.31" cy="24.62" r="2.53"/><path class="cls-3" d="M81.79,1.76S80.15.15,75.38,3.44s-6,5.54-6.59,10.45-4.63,3.58-4.63,3.58,2.49,5.07,6.33,3.64l11.3-12L89,10.18s8.89,14.16,15.8,8.63c0,0-5.7-6-5.7-8.42S89-4.55,81.79,1.76Z"/><path class="cls-3" d="M72.54,24.72A1.51,1.51,0,0,1,72,27.15s2.75,0,2.82-1.5c0,0,1,3.34-.37,4,0,0,2.27.29,2.27-1.08l-1.34-2.84Z"/><path class="cls-3" d="M92.31,28.59s-.65,1.16,2.53,1a4.91,4.91,0,0,1-.71-2.43,11,11,0,0,0,1.91.6s-1.53-.44-1.2-3.15A16,16,0,0,0,92.31,28.59Z"/><line class="cls-25" x1="68.84" y1="53.18" x2="70.08" y2="45.85"/><line class="cls-24" x1="98.87" y1="47.08" x2="100.41" y2="54.87"/><path class="cls-24" d="M43.51,54.37l4.63,3.93s7.39.77,9.48,0,5-2.67,2.41-3.93-7.1,0-7.1,0H43.51"/><rect class="cls-4" x="38.08" y="49.87" width="29.7" height="4.5" rx="2.25"/><line class="cls-33" x1="41.55" y1="49.03" x2="60.96" y2="49.35"/><rect class="cls-34" x="41.78" y="47.76" width="4.92" height="2.62" rx="1.31" transform="translate(-5.57 92.48) rotate(-89.04)"/><rect class="cls-34" x="37.76" y="47.76" width="4.92" height="2.62" rx="1.31" transform="translate(-9.52 88.46) rotate(-89.04)"/><rect class="cls-34" x="45.58" y="47.82" width="4.92" height="2.62" rx="1.31" transform="translate(-1.9 96.34) rotate(-89.04)"/><rect class="cls-34" x="49.76" y="47.89" width="4.92" height="2.62" rx="1.31" transform="translate(2.15 100.59) rotate(-89.04)"/><rect class="cls-34" x="60.39" y="48.67" width="3.17" height="1.69" rx="0.84" transform="matrix(0.95, 0.32, -0.32, 0.95, 18.91, -17.1)"/><path class="cls-24" d="M103.56,62.38l-2.71-2.6L88.67,48.11S87.19,43.76,86,43s-5.69-2.24-9.32,0,0,7.76,0,7.76l7.77,0s11.21,24.38,20.34,24.11S106.91,57,106.91,57l-6.06,2.81"/><path class="cls-35" d="M65.39,81.23S81,87.44,102.68,80.17"/><path class="cls-24" d="M65.74,151.58s-1.24,6.25.2,7.71,12.21,3.69,15.19,1.29c2.57-2.07-.27-9.21-.44-9.33a18.27,18.27,0,0,1-7.88,1.36C69.28,152.55,67.08,149.26,65.74,151.58Z"/><path class="cls-24" d="M87.18,150.74a49.1,49.1,0,0,0,6.92.43,35.36,35.36,0,0,0,7.06-1.25s2.63,8.57,1,9.34-2.88,1.37-9.41,1.32S85.57,160.58,87.18,150.74Z"/><polyline class="cls-36" points="97.28 87.09 102.07 117.72 98.51 148.19"/><polyline class="cls-36" points="70.49 87.91 70.49 114.16 70.49 149.92"/><path class="cls-37" d="M86.43,169.44a36.15,36.15,0,0,0,12.08,0"/><path class="cls-37" d="M55.46,169s8.67-.08,11.25,0,10.19.86,11.41,0"/><path class="cls-35" d="M75.34,44.49a6.1,6.1,0,0,1,4.44-.78"/><path class="cls-35" d="M75.17,46.4s2.42-1.38,4.37-.55"/><path class="cls-35" d="M75.87,49.21c-.2-.76,3.33-2.19,5.44-.75"/><path class="cls-38" d="M131.56,40.42s-4.3,3.83-2.34,7.69,5.42,5.85.91,8.29"/><path class="cls-38" d="M137.76,40.42s-4.31,3.83-2.34,7.69,5.42,5.85.91,8.29"/><path class="cls-38" d="M144,40.42s-4.3,3.83-2.34,7.69,5.43,5.85.92,8.29"/><path class="cls-3" d="M88.37,160a9,9,0,0,1-1.67,5.39,10.17,10.17,0,0,0-1.41,6.39s7.95,3.59,14.75,0c0,0,.64-6.16-1-8.21s-.09-4.64-.09-4.64Z"/><path class="cls-3" d="M68.79,159.45l-8.23,4c-4.74,2.31-6.66,5.26-6.54,7.06s9,1.15,13.85,1.79,10.9.51,11.42-1.67-1-11.15-1-12.18S68.79,159.45,68.79,159.45Z"/><path class="cls-3" d="M68.08,81.23s-1.65,31.86-1,35.13-1.38,38.81-1.38,40.07,5.69,7.31,15,2L81,115.61l3.67-19.22,5.47,21.14-3.27,42.11s7.63,1.56,13.24-.7l4.62-39.34-3.57-38.37Z"/><rect class="cls-3" x="51.25" y="45.35" width="10.38" height="5.54" rx="2.77" transform="translate(-1.8 2.2) rotate(-2.2)"/><rect class="cls-4" x="53.05" y="42.29" width="6.79" height="3.62" rx="1.81" transform="translate(-1.65 2.2) rotate(-2.2)"/><path class="cls-24" d="M61.89,57.7l1-5,7.6,2.54s-3.1,16.41-7.88,16.41c-6.47,0-7.31-13.13-7.31-13.13s2.28-2.79,4.73-3.28l5.6,8.52"/><path class="cls-24" d="M67.78,59.38c0,.17-7.85-3.88-7.75-6.53s2.29-5.38,3.63-7.45C70.19,35.33,81.5,34,81.5,34a37.56,37.56,0,0,1,11.29.8,18,18,0,0,1,9.84,6.79c2.2,2.78,6.62,8.84,6.19,12.58-.24,2.16-7.93,6.09-8,5.64l2.2,24.53s-18.61,6.49-38.13.81C64.92,85.12,67.78,59.41,67.78,59.38Z"/><path class="cls-25" d="M79.2,30.85l.66,4.31-3.19,1.17s1.1,4,7,4.14,8-4,8-4L89,35.66,89.54,31S80.91,26.75,79.2,30.85Z"/><path class="cls-25" d="M75.33,25.68s1.38,5.79,8.68,7.06c4.35-.6,8-2.5,9.69-6.49a10.57,10.57,0,0,0,.48-1.44,4,4,0,0,0,2.6-1.14,6,6,0,0,0,1.5-2.45c.31-.9.42-2.1-.46-2.72a2.79,2.79,0,0,0-2.82,0,1.41,1.41,0,0,0-.74,1.11c.1-1.21.86-8.09-1.08-8.09S74.87,10.19,74,13.83a8.33,8.33,0,0,0,.37,5.86c-.35-.6-2.28-.78-2.82-.5-1.1.56-1.13,2.1-.92,3.15a3.66,3.66,0,0,0,2,2.38,6,6,0,0,0,1.47.53C74.25,25.31,75.26,25.42,75.33,25.68Z"/><rect class="cls-3" x="89.54" y="18.81" width="1.48" height="3.29" rx="0.74"/><rect class="cls-3" x="77.39" y="18.81" width="1.48" height="3.29" rx="0.74"/><path class="cls-26" d="M83.18,23.34s.08.91.92.91"/><line class="cls-27" x1="84.22" y1="27.73" x2="92.31" y2="41.24"/><rect class="cls-28" x="83.35" y="28.54" width="3.99" height="2.13" rx="1.06" transform="translate(-3.08 48.06) rotate(-30.92)"/><rect class="cls-28" x="84.93" y="31.18" width="3.99" height="2.13" rx="1.06" transform="translate(-4.22 49.25) rotate(-30.92)"/><rect class="cls-28" x="86.68" y="34.1" width="3.99" height="2.13" rx="1.06" transform="translate(-5.47 50.56) rotate(-30.92)"/><line class="cls-29" x1="73.09" y1="27.88" x2="78.81" y2="48.46"/><rect class="cls-30" x="71.18" y="29.29" width="5.41" height="2.89" rx="1.44" transform="translate(-5.53 20.92) rotate(-15.55)"/><rect class="cls-30" x="72.3" y="33.32" width="5.41" height="2.89" rx="1.44" transform="translate(-6.57 21.37) rotate(-15.55)"/><rect class="cls-30" x="73.53" y="37.75" width="5.41" height="2.89" rx="1.44" transform="translate(-7.72 21.86) rotate(-15.55)"/><line class="cls-31" x1="81.79" y1="28.72" x2="86" y2="26.82"/><path class="cls-32" d="M86,25.36c0,.17-.36,2.64,2.64,2.16"/><path class="cls-3" d="M84.1,12.07s-3.8,9.54-16.32,10.57c0,0,9.59-8,9.61-12.43S86.06,6.09,84.1,12.07Z"/><path class="cls-3" d="M83.18,10.74S91.75,22.16,102.07,22c0,0-7.91-6.61-8.44-11.66C93.63,10.34,87,5,83.18,10.74Z"/><circle class="cls-22" cx="76.67" cy="24.62" r="2.53"/><circle class="cls-22" cx="92.31" cy="24.62" r="2.53"/><path class="cls-3" d="M81.79,1.76S80.15.15,75.38,3.44s-6,5.54-6.59,10.45-4.63,3.58-4.63,3.58,2.49,5.07,6.33,3.64l11.3-12L89,10.18s8.89,14.16,15.8,8.63c0,0-5.7-6-5.7-8.42S89-4.55,81.79,1.76Z"/><path class="cls-3" d="M72.54,24.72A1.51,1.51,0,0,1,72,27.15s2.75,0,2.82-1.5c0,0,1,3.34-.37,4,0,0,2.27.29,2.27-1.08l-1.34-2.84Z"/><path class="cls-3" d="M92.31,28.59s-.65,1.16,2.53,1a4.91,4.91,0,0,1-.71-2.43,11,11,0,0,0,1.91.6s-1.53-.44-1.2-3.15A16,16,0,0,0,92.31,28.59Z"/><line class="cls-25" x1="68.84" y1="53.18" x2="70.08" y2="45.85"/><line class="cls-24" x1="98.87" y1="47.08" x2="100.41" y2="54.87"/><path class="cls-24" d="M43.51,54.37l4.63,3.93s7.39.77,9.48,0,5-2.67,2.41-3.93-7.1,0-7.1,0H43.51"/><rect class="cls-4" x="38.08" y="49.87" width="29.7" height="4.5" rx="2.25"/><line class="cls-33" x1="41.55" y1="49.03" x2="60.96" y2="49.35"/><rect class="cls-34" x="41.78" y="47.76" width="4.92" height="2.62" rx="1.31" transform="translate(-5.57 92.48) rotate(-89.04)"/><rect class="cls-34" x="37.76" y="47.76" width="4.92" height="2.62" rx="1.31" transform="translate(-9.52 88.46) rotate(-89.04)"/><rect class="cls-34" x="45.58" y="47.82" width="4.92" height="2.62" rx="1.31" transform="translate(-1.9 96.34) rotate(-89.04)"/><rect class="cls-34" x="49.76" y="47.89" width="4.92" height="2.62" rx="1.31" transform="translate(2.15 100.59) rotate(-89.04)"/><rect class="cls-34" x="60.39" y="48.67" width="3.17" height="1.69" rx="0.84" transform="matrix(0.95, 0.32, -0.32, 0.95, 18.91, -17.1)"/><path class="cls-24" d="M103.56,62.38l-2.71-2.6L88.67,48.11S87.19,43.76,86,43s-5.69-2.24-9.32,0,0,7.76,0,7.76l7.77,0s11.21,24.38,20.34,24.11S106.91,57,106.91,57l-6.06,2.81"/><path class="cls-35" d="M65.39,81.23S81,87.44,102.68,80.17"/><path class="cls-24" d="M65.74,151.58s-1.24,6.25.2,7.71,12.21,3.69,15.19,1.29c2.57-2.07-.27-9.21-.44-9.33a18.27,18.27,0,0,1-7.88,1.36C69.28,152.55,67.08,149.26,65.74,151.58Z"/><path class="cls-24" d="M87.18,150.74a49.1,49.1,0,0,0,6.92.43,35.36,35.36,0,0,0,7.06-1.25s2.63,8.57,1,9.34-2.88,1.37-9.41,1.32S85.57,160.58,87.18,150.74Z"/><polyline class="cls-36" points="97.28 87.09 102.07 117.72 98.51 148.19"/><polyline class="cls-36" points="70.49 87.91 70.49 114.16 70.49 149.92"/><path class="cls-37" d="M86.43,169.44a36.15,36.15,0,0,0,12.08,0"/><path class="cls-37" d="M55.46,169s8.67-.08,11.25,0,10.19.86,11.41,0"/><path class="cls-35" d="M75.34,44.49a6.1,6.1,0,0,1,4.44-.78"/><path class="cls-35" d="M75.17,46.4s2.42-1.38,4.37-.55"/><path class="cls-35" d="M75.87,49.21c-.2-.76,3.33-2.19,5.44-.75"/><path class="cls-38" d="M131.56,40.42s-4.3,3.83-2.34,7.69,5.42,5.85.91,8.29"/><path class="cls-38" d="M137.76,40.42s-4.31,3.83-2.34,7.69,5.42,5.85.91,8.29"/><path class="cls-38" d="M144,40.42s-4.3,3.83-2.34,7.69,5.43,5.85.92,8.29"/></g></g></svg>