<svg xmlns="http://www.w3.org/2000/svg" xmlns:xlink="http://www.w3.org/1999/xlink" viewBox="0 0 754.05 262.91"><defs><style>.cls-1,.cls-12,.cls-13,.cls-15,.cls-16,.cls-18,.cls-27,.cls-28,.cls-39,.cls-40,.cls-43,.cls-44,.cls-45,.cls-47,.cls-50,.cls-51{fill:none;}.cls-2{fill:#ceede7;}.cls-3{fill:#b5e2d9;}.cls-20,.cls-22,.cls-23,.cls-25,.cls-26,.cls-29,.cls-30,.cls-31,.cls-34,.cls-35,.cls-36,.cls-37,.cls-38,.cls-4,.cls-46{fill:#fff;}.cls-32,.cls-5{opacity:0.4;}.cls-10,.cls-24,.cls-32,.cls-33,.cls-6,.cls-8,.cls-9{fill:#ffe97b;}.cls-12,.cls-13,.cls-16,.cls-18,.cls-40,.cls-6,.cls-9{stroke:#fff;}.cls-10,.cls-12,.cls-13,.cls-15,.cls-16,.cls-18,.cls-22,.cls-23,.cls-24,.cls-25,.cls-26,.cls-27,.cls-28,.cls-34,.cls-37,.cls-38,.cls-39,.cls-40,.cls-43,.cls-44,.cls-45,.cls-46,.cls-47,.cls-50,.cls-51,.cls-6{stroke-linecap:round;}.cls-10,.cls-12,.cls-13,.cls-15,.cls-16,.cls-18,.cls-22,.cls-23,.cls-24,.cls-25,.cls-26,.cls-27,.cls-28,.cls-34,.cls-37,.cls-38,.cls-39,.cls-40,.cls-43,.cls-44,.cls-45,.cls-46,.cls-47,.cls-50,.cls-51,.cls-6,.cls-9{stroke-linejoin:round;}.cls-6{stroke-width:0.79px;}.cls-7{opacity:0.62;}.cls-9{stroke-linecap:square;stroke-width:2px;}.cls-10,.cls-15,.cls-22,.cls-23,.cls-24,.cls-25,.cls-26,.cls-27,.cls-37,.cls-38,.cls-39,.cls-43,.cls-44,.cls-45,.cls-46,.cls-47,.cls-50,.cls-51{stroke:#4ba795;}.cls-10,.cls-15{stroke-width:0.69px;}.cls-11{clip-path:url(#clip-path);}.cls-12,.cls-43{stroke-width:0.18px;}.cls-13,.cls-44{stroke-width:0.2px;}.cls-14,.cls-48{fill:#4ba795;}.cls-16{stroke-width:0.43px;stroke-dasharray:1.74;}.cls-17{clip-path:url(#clip-path-2);}.cls-18{stroke-width:0.67px;}.cls-19{fill:#2a7682;}.cls-20{font-size:4.04px;font-family:CP-Font, CP Font-83pv-RKSJ-H;}.cls-21{letter-spacing:-0.01em;}.cls-22{stroke-width:0.77px;}.cls-23{stroke-width:0.57px;}.cls-24,.cls-38,.cls-40{stroke-width:0.81px;}.cls-25{stroke-width:0.76px;}.cls-26,.cls-39{stroke-width:0.75px;}.cls-28{stroke:#ffe97b;stroke-width:0.64px;}.cls-29,.cls-30,.cls-31,.cls-35,.cls-36{stroke:#b5e2d9;stroke-miterlimit:10;}.cls-29{stroke-width:2.83px;}.cls-30{stroke-width:2.19px;}.cls-31{stroke-width:2.17px;}.cls-33{opacity:0.5;}.cls-34{stroke:#f7e27c;stroke-width:0.81px;}.cls-35{stroke-width:2.55px;}.cls-36{stroke-width:2.14px;}.cls-41{clip-path:url(#clip-path-3);}.cls-42{clip-path:url(#clip-path-4);}.cls-45{stroke-width:4px;}.cls-46{stroke-width:0.73px;}.cls-47{stroke-width:2.65px;}.cls-48{font-size:6.14px;font-family:NotoSansCJKtc-Bold-B5pc-H, Noto Sans CJK TC;}.cls-49{letter-spacing:-0.05em;}.cls-50{stroke-width:1.07px;}.cls-51{stroke-width:0.54px;}</style><clipPath id="clip-path"><rect class="cls-1" x="500.62" y="142.18" width="47.05" height="24.94" rx="2.64"/></clipPath><clipPath id="clip-path-2"><circle class="cls-1" cx="487.06" cy="162.63" r="5.59"/></clipPath><clipPath id="clip-path-3"><rect class="cls-1" x="234.28" y="148.45" width="38.64" height="45.68" rx="3" transform="translate(507.2 342.58) rotate(-180)"/></clipPath><clipPath id="clip-path-4"><rect class="cls-1" x="420.75" y="148.45" width="38.64" height="45.68" rx="3"/></clipPath></defs><title>資產 20</title><g id="圖層_2" data-name="圖層 2"><g id="A"><path class="cls-2" d="M388.85,87.69C341,67.21,289.29,47.2,264.05,44.34a41.71,41.71,0,0,0-4.77-.27c-21.19,0-46.44,14.85-69.15,32.71,36.56,13.17,80.18,32.05,114.6,47.61C328.6,113.46,359,99.93,388.85,87.69Z"/><path class="cls-2" d="M459,135.46l5.71-2.55,5.76-2.55,6.65-2.92,3.05-1.34,3-1.33c26.69-11.6,55.39-23.45,80.71-32.58C539.48,73,512.1,57.24,490,59.75c-16.49,1.87-46.53,11.48-88,28.07l-3.33,1.34-3.29,1.33q-18.57,7.53-39.95,16.8c-15.89,6.89-31.15,13.73-44.6,19.86,3.39,1.54,6.68,3,9.84,4.5L326,134.1l5.3,2.46c8.34,3.87,15.46,7.22,20.92,9.81l81.21.69C441.26,143.45,449.88,139.54,459,135.46Z"/><path class="cls-3" d="M621.09,81.31c-10.4,1.18-26.2,5.44-46.87,12.59l-2.87,1-2.8,1c-21.71,7.73-48.31,18.37-79.28,31.75l-2.77,1.2-.29.12-8.77,3.83-5.79,2.55c-9.23,4.08-18.1,8.06-26.35,11.81l-5.39,2.46-5.35,2.45c-13.7,6.29-25,11.62-32.5,15.16l352,3C737.48,151.5,667.58,76,621.09,81.31Z"/><path class="cls-3" d="M345.62,148.81l-5.43-2.55c-6-2.79-13-6-20.73-9.6l-5.36-2.46-5.39-2.45-4-1.81-3-1.37-3.06-1.37C264,111.62,221,93.12,185.51,80.48l-2.8-1-2.87-1C160.75,71.87,144.22,67.17,133,65.9a41.59,41.59,0,0,0-4.77-.27C81.83,65.63,16,136.72,0,154.83l352-3-1-.46Z"/><polygon class="cls-4" points="655.41 141.84 655.41 141.31 602.63 141.31 580.48 179.66 602.63 179.66 624.77 179.66 632.96 179.66 655.41 179.66 677.25 179.66 655.41 141.84"/><g class="cls-5"><polygon class="cls-6" points="602.63 141.31 580.48 179.66 602.63 179.66 624.77 179.66 655.41 179.66 655.41 141.31 602.63 141.31"/><polygon class="cls-6" points="655.1 141.31 632.96 179.66 677.25 179.66 655.1 141.31"/><line class="cls-6" x1="655.1" y1="141.31" x2="655.1" y2="179.66"/></g><polygon class="cls-4" points="578.6 129.79 578.6 129 499.87 129 466.84 186.21 499.87 186.21 532.9 186.21 545.12 186.21 578.6 186.21 611.17 186.21 578.6 129.79"/><g class="cls-7"><polygon class="cls-8" points="468.57 185.21 500.45 130 577.6 130 577.6 185.21 468.57 185.21"/><path class="cls-4" d="M576.6,131v53.2H470.31L501,131H576.6m2-2H499.87l-33,57.2H578.6V129Z"/><polygon class="cls-8" points="546.85 185.21 578.14 131 609.44 185.21 546.85 185.21"/><path class="cls-4" d="M578.14,133l29.57,51.2H548.58L578.14,133m0-4-33,57.2h66.06l-33-57.2Z"/><line class="cls-9" x1="578.14" y1="132.12" x2="578.14" y2="186.21"/></g><rect class="cls-10" x="500.62" y="142.18" width="47.05" height="24.94" rx="2.64"/><g class="cls-11"><line class="cls-12" x1="512.9" y1="122.61" x2="498.84" y2="188.98"/><line class="cls-12" x1="509.87" y1="121.97" x2="495.81" y2="188.34"/><line class="cls-12" x1="518.95" y1="123.9" x2="504.89" y2="190.26"/><line class="cls-12" x1="515.93" y1="123.25" x2="501.86" y2="189.62"/><line class="cls-12" x1="525" y1="125.18" x2="510.94" y2="191.54"/><line class="cls-12" x1="521.98" y1="124.54" x2="507.91" y2="190.9"/><line class="cls-12" x1="531.06" y1="126.46" x2="516.99" y2="192.83"/><line class="cls-12" x1="528.03" y1="125.82" x2="513.97" y2="192.18"/><line class="cls-12" x1="537.11" y1="127.74" x2="523.04" y2="194.11"/><line class="cls-12" x1="534.08" y1="127.1" x2="520.02" y2="193.47"/><line class="cls-12" x1="543.16" y1="129.03" x2="529.1" y2="195.39"/><line class="cls-12" x1="540.13" y1="128.38" x2="526.07" y2="194.75"/><line class="cls-12" x1="549.21" y1="130.31" x2="535.15" y2="196.67"/><line class="cls-12" x1="546.19" y1="129.67" x2="532.12" y2="196.03"/><line class="cls-12" x1="555.26" y1="131.59" x2="541.2" y2="197.96"/><line class="cls-12" x1="552.24" y1="130.95" x2="538.17" y2="197.31"/><line class="cls-13" x1="482.8" y1="174.62" x2="558.66" y2="190.7"/><line class="cls-13" x1="482.16" y1="177.65" x2="558.01" y2="193.72"/><line class="cls-13" x1="484.08" y1="168.57" x2="559.94" y2="184.64"/><line class="cls-13" x1="483.44" y1="171.6" x2="559.3" y2="187.67"/><line class="cls-13" x1="485.36" y1="162.52" x2="561.22" y2="178.59"/><line class="cls-13" x1="484.72" y1="165.54" x2="560.58" y2="181.62"/><line class="cls-13" x1="486.65" y1="156.47" x2="562.5" y2="172.54"/><line class="cls-13" x1="486" y1="159.49" x2="561.86" y2="175.57"/><line class="cls-13" x1="487.93" y1="150.41" x2="563.79" y2="166.49"/><line class="cls-13" x1="487.29" y1="153.44" x2="563.14" y2="169.51"/><line class="cls-13" x1="489.21" y1="144.36" x2="565.07" y2="160.44"/><line class="cls-13" x1="488.57" y1="147.39" x2="564.43" y2="163.46"/><line class="cls-13" x1="490.49" y1="138.31" x2="566.35" y2="154.38"/><line class="cls-13" x1="489.85" y1="141.34" x2="565.71" y2="157.41"/><line class="cls-13" x1="491.78" y1="132.26" x2="567.63" y2="148.33"/><line class="cls-13" x1="491.13" y1="135.28" x2="566.99" y2="151.36"/></g><rect class="cls-14" x="497.68" y="140.37" width="53.28" height="4.87" rx="2.44"/><rect class="cls-15" x="500.62" y="142.18" width="47.05" height="24.94" rx="2.64"/><rect class="cls-4" x="499.41" y="139.38" width="2.41" height="7.04" rx="1.21"/><rect class="cls-4" x="546.46" y="139.38" width="2.41" height="7.04" rx="1.21"/><line class="cls-16" x1="500.62" y1="142.9" x2="547.67" y2="142.9"/><path class="cls-14" d="M569.7,161.85l-11,14.39a.58.58,0,0,0,.47.94h11a.58.58,0,0,0,.58-.59V162.2A.58.58,0,0,0,569.7,161.85Z"/><path class="cls-14" d="M586.06,161.85l11,14.39a.58.58,0,0,1-.46.94h-11a.58.58,0,0,1-.58-.59V162.2A.58.58,0,0,1,586.06,161.85Z"/><rect class="cls-14" x="491.37" y="168.9" width="1.52" height="17.49" transform="translate(-2.07 5.83) rotate(-0.68)"/><rect class="cls-14" x="480.72" y="169.03" width="1.52" height="17.49" transform="translate(-2.07 5.71) rotate(-0.68)"/><rect class="cls-14" x="486.16" y="166.95" width="0.88" height="15.84" transform="translate(21.51 400.81) rotate(-45.68)"/><rect class="cls-14" x="486.16" y="166.95" width="0.88" height="15.84" transform="translate(712.53 639.96) rotate(-135.68)"/><circle class="cls-14" cx="487.06" cy="162.63" r="5.59"/><g class="cls-17"><path class="cls-18" d="M480.24,159.9s8.52-1.92,10.1,8.32"/><path class="cls-18" d="M487.64,156.08s2.78,6.4,5.94,6.81"/></g><rect class="cls-19" x="478.75" y="167.47" width="16.02" height="2.43" rx="1.21"/><rect class="cls-14" x="567.62" y="147.24" width="22.49" height="9.8" rx="3"/><text class="cls-20" transform="translate(570.75 153.48)">Ｎ<tspan class="cls-21" x="4.04" y="0">O</tspan><tspan x="6.96" y="0">.23</tspan></text><rect class="cls-14" x="520.85" y="175.95" width="48.11" height="2.7" rx="1.27"/><rect class="cls-14" x="563.19" y="178.4" width="1.47" height="24"/><path class="cls-22" d="M513.85,197.36c1-2.5,1.7-10.85,1.7-10.85a5.32,5.32,0,0,0-5.58.43s.48,11.45.57,11.5c-.84,1.17-.74,1.23-1,3.49,0,0,5.9.48,8.27-.83C517.79,201.1,516.78,197.91,513.85,197.36Z"/><path class="cls-23" d="M506.9,157.61h7.75a0,0,0,0,1,0,0v14.9a0,0,0,0,1,0,0H506.9a2.29,2.29,0,0,1-2.29-2.29V159.9A2.29,2.29,0,0,1,506.9,157.61Z"/><path class="cls-23" d="M516.95,157.61h7.75a0,0,0,0,1,0,0v14.9a0,0,0,0,1,0,0h-7.75a2.29,2.29,0,0,1-2.29-2.29V159.9A2.29,2.29,0,0,1,516.95,157.61Z" transform="translate(1039.35 330.12) rotate(-180)"/><rect class="cls-8" x="516.07" y="159.74" width="4.78" height="3.67" rx="1.83"/><rect class="cls-8" x="506.4" y="164.8" width="7.31" height="5.6" rx="2.8"/><rect class="cls-8" x="516.4" y="164.16" width="6.71" height="0.51" rx="0.26"/><rect class="cls-8" x="506.28" y="162.54" width="6.71" height="0.51" rx="0.26"/><rect class="cls-8" x="506.28" y="160.91" width="6.71" height="0.51" rx="0.26"/><rect class="cls-8" x="506.28" y="159.28" width="6.71" height="0.51" rx="0.26"/><rect class="cls-14" x="516.4" y="165.27" width="2.57" height="0.51" rx="0.16"/><rect class="cls-14" x="507.62" y="163.9" width="5.37" height="0.51" rx="0.23"/><rect class="cls-14" x="516.4" y="166.55" width="4.92" height="0.51" rx="0.22"/><rect class="cls-14" x="516.4" y="167.82" width="2.57" height="0.51" rx="0.16"/><rect class="cls-14" x="516.4" y="169.1" width="4.92" height="0.51" rx="0.22"/><path class="cls-24" d="M501,184.43c-.24.29.61,1.65.75,1.86a6.23,6.23,0,0,0,4.17,2.51,16.65,16.65,0,0,0,7.92-.68,22.42,22.42,0,0,0,3.69-1.53c.37-.2,2.36-.79,2.41-1.21,0,0,.43-4-1.26-6.46C518.65,178.92,507.84,175.91,501,184.43Z"/><path class="cls-25" d="M502.17,162.66v3.55s2.84.76,3.75,0l.48-3.55A20.14,20.14,0,0,0,502.17,162.66Z"/><path class="cls-14" d="M501.39,151.82a7.57,7.57,0,0,0-3.09,7.93,4,4,0,0,0,1.89,2.79.77.77,0,0,1,.2,1.41s1.93,0,1.38-1.25c0,0,1.13.85.67,1.3,0,0,1-.43,1-1.17,0,0,.32,1,0,1.33,0,0,1.78-.32,1.78-1.24l-.18,1.14s1.9-.37,1.9-1.14l-.22,1.12s5-1.79,4.53-6.91A6.76,6.76,0,0,0,501.39,151.82Z"/><path class="cls-14" d="M501.92,165s-4.27,1.78-5.16,6.18,1.1,12.57,4.45,13.72c0,0,10.52-1.15,11.78-4.87,0,0-4.09-5.86-4.09-7.8,0,0,3.3-.73,3.62-1.94C512.52,170.33,509.44,163,501.92,165Z"/><path class="cls-26" d="M507.62,172.8s4.49,4.08,6.14,4.2,10.82-5.66,10.82-5.66,2-.13,2.22-1.71-.93-4.25-2.74-2.47L523.9,169l-9.37,4-3.33-2.78S508.23,171.18,507.62,172.8Z"/><path class="cls-4" d="M515.7,180.76a.61.61,0,1,1-.86,0c0-.57.19-1,.43-1S515.7,180.19,515.7,180.76Z"/><path class="cls-4" d="M516.89,181.65a1.78,1.78,0,0,1-1,.43,1.78,1.78,0,0,1,.43-1c.4-.4.87-.59,1-.42S517.29,181.25,516.89,181.65Z"/><path class="cls-4" d="M517.1,183.12a1.71,1.71,0,0,1-1-.43,1.71,1.71,0,0,1,1-.43c.57,0,1,.19,1,.43S517.67,183.12,517.1,183.12Z"/><path class="cls-4" d="M516.21,184.31a.6.6,0,1,1,.61-.61c.4.41.6.87.43,1S516.62,184.71,516.21,184.31Z"/><path class="cls-4" d="M514.75,184.52a1.73,1.73,0,0,1,.42-1,1.71,1.71,0,0,1,.43,1c0,.57-.19,1-.43,1S514.75,185.09,514.75,184.52Z"/><path class="cls-4" d="M513.56,183.64a.6.6,0,1,1,.6.6c-.4.41-.86.6-1,.43S513.15,184,513.56,183.64Z"/><path class="cls-4" d="M513.34,182.17a1.71,1.71,0,0,1,1,.43,1.71,1.71,0,0,1-1,.43c-.57,0-1-.2-1-.43S512.77,182.17,513.34,182.17Z"/><path class="cls-4" d="M514.23,181a1.7,1.7,0,0,1,.42,1,1.67,1.67,0,0,1-1-.43c-.4-.4-.59-.86-.42-1S513.83,180.57,514.23,181Z"/><path class="cls-4" d="M509.4,184.49a1.31,1.31,0,0,1-.32.78,1.29,1.29,0,0,1-.33-.78c0-.43.15-.78.33-.78S509.4,184.06,509.4,184.49Z"/><path class="cls-4" d="M510.3,185.16a1.33,1.33,0,0,1-.78.32,1.31,1.31,0,0,1,.32-.78c.3-.3.65-.45.78-.32S510.6,184.85,510.3,185.16Z"/><path class="cls-4" d="M510.46,186.26a1.31,1.31,0,0,1-.78-.32,1.31,1.31,0,0,1,.78-.32c.43,0,.78.14.78.32S510.89,186.26,510.46,186.26Z"/><path class="cls-4" d="M509.79,187.16a1.31,1.31,0,0,1-.32-.78,1.33,1.33,0,0,1,.78.32c.3.31.44.66.32.78S510.09,187.47,509.79,187.16Z"/><path class="cls-4" d="M508.68,187.32a1.25,1.25,0,0,1,.33-.77,1.27,1.27,0,0,1,.32.77c0,.43-.15.78-.32.78S508.68,187.75,508.68,187.32Z"/><path class="cls-4" d="M507.78,186.65a1.33,1.33,0,0,1,.78-.32,1.24,1.24,0,0,1-.32.78c-.3.31-.65.45-.78.32S507.48,187,507.78,186.65Z"/><path class="cls-4" d="M507.62,185.55a1.31,1.31,0,0,1,.78.32,1.31,1.31,0,0,1-.78.32c-.43,0-.77-.14-.77-.32S507.19,185.55,507.62,185.55Z"/><path class="cls-4" d="M508.29,184.65a1.24,1.24,0,0,1,.32.78,1.33,1.33,0,0,1-.78-.32c-.3-.31-.44-.66-.32-.78S508,184.35,508.29,184.65Z"/><path class="cls-22" d="M523.81,198c1.77-5.35,3.87-17.56,2.36-18.43-3-1.76-8-.33-8-.33-1.15,1.75,1.1,5.74,1.1,5.74l2.22-.9c-1.31,2.14-1.25,11.85-1.22,14.24a3.9,3.9,0,0,0-.76,3.54s5.74,1.54,8.61-.37C528.16,201.45,526.3,198.39,523.81,198Z"/><rect class="cls-14" x="508.79" y="200.64" width="9.71" height="1.77" rx="0.88"/><path class="cls-14" d="M528.16,202.67l-8.57.23a.89.89,0,0,1-.88-.88h0a.89.89,0,0,1,.88-.89l8.57-.22a.87.87,0,0,1,.88.88h0A.87.87,0,0,1,528.16,202.67Z"/><path class="cls-27" d="M524.71,198.44a6.68,6.68,0,0,1,.66,2.47"/><path class="cls-27" d="M514.36,197.7s1.22,2.44,1.1,3.21"/><rect class="cls-14" x="529.78" y="178.4" width="1.47" height="24"/><rect class="cls-14" x="499.86" y="190.53" width="1.47" height="11.88"/><rect class="cls-14" x="514.44" y="190.53" width="1.47" height="11.88"/><rect class="cls-19" x="497.68" y="187.53" width="20.45" height="4.45" rx="2.22"/><path class="cls-4" d="M533.34,176.46h-.45a2.39,2.39,0,0,1-2.38-2.38v-7.45a2.39,2.39,0,0,1,2.38-2.38h.45a2.39,2.39,0,0,1,2.38,2.38v7.45A2.39,2.39,0,0,1,533.34,176.46Z"/><line class="cls-28" x1="534.45" y1="167.61" x2="531.09" y2="167.61"/><line class="cls-28" x1="534.45" y1="169.68" x2="531.09" y2="169.68"/><line class="cls-28" x1="534.45" y1="171.74" x2="531.09" y2="171.74"/><line class="cls-28" x1="534.45" y1="173.8" x2="531.09" y2="173.8"/><rect class="cls-14" x="531.62" y="163.54" width="2.73" height="1.67" rx="0.84"/><path class="cls-29" d="M720.37,77a30,30,0,0,0-56.25-9.8,23,23,0,1,0-1.85,42.49,14.18,14.18,0,0,0,6,1.35,14.32,14.32,0,0,0,9-3.16,29.93,29.93,0,0,0,21.39,2.07,14.36,14.36,0,0,0,12.36-.66A17.07,17.07,0,1,0,720.37,77Z"/><path class="cls-30" d="M75.21,75.86a23.2,23.2,0,0,0-43.55-7.58,17.79,17.79,0,1,0-1.44,32.89,10.92,10.92,0,0,0,4.68,1,11.05,11.05,0,0,0,7-2.45,23.12,23.12,0,0,0,16.57,1.6,11.1,11.1,0,0,0,4.24.85A11,11,0,0,0,68,100.86a13.21,13.21,0,1,0,7.23-25Z"/><path class="cls-31" d="M255.73,21a23,23,0,0,0-43.22-7.54,17.66,17.66,0,1,0-1.43,32.65,11,11,0,0,0,11.55-1.39,23,23,0,0,0,16.44,1.59,10.94,10.94,0,0,0,4.21.84,11.07,11.07,0,0,0,5.28-1.34A13.11,13.11,0,1,0,255.73,21Z"/><path class="cls-4" d="M47.35,177.42a1.51,1.51,0,0,1-1.3-.75,1.49,1.49,0,0,1,0-1.5L89.94,99.73a1.52,1.52,0,0,1,1.3-.75H196.17a1.5,1.5,0,0,1,1.3.74l44.22,75.44a1.5,1.5,0,0,1-1.29,2.26Z"/><path class="cls-4" d="M196.17,100.48l44.23,75.44h-193l43.89-75.44H196.17m0-3H91.24A3,3,0,0,0,88.65,99L44.76,174.41a3,3,0,0,0,2.59,4.51H240.4A3,3,0,0,0,243,174.4L198.76,99a3,3,0,0,0-2.59-1.49Z"/><polygon class="cls-32" points="91.24 99.9 47.35 175.92 151.7 175.92 195.59 99.9 91.24 99.9"/><polygon class="cls-33" points="240.4 175.92 197.76 102.07 197.76 175.92 240.4 175.92"/><polygon class="cls-33" points="153.54 175.92 196.17 175.92 196.17 102.07 153.54 175.92"/><path class="cls-34" d="M101.25,99.17a5.16,5.16,0,1,1-10.31,0"/><path class="cls-34" d="M111.74,99.17a5.16,5.16,0,0,1-10.32,0"/><path class="cls-34" d="M122.23,99.17a5.16,5.16,0,1,1-10.32,0"/><path class="cls-34" d="M132.72,99.17a5.16,5.16,0,1,1-10.32,0"/><path class="cls-34" d="M143.21,99.17a5.16,5.16,0,1,1-10.32,0"/><path class="cls-34" d="M153.64,99.17a5.16,5.16,0,0,1-10.32,0"/><path class="cls-34" d="M164.13,99.17a5.16,5.16,0,0,1-10.32,0"/><path class="cls-34" d="M174.62,99.17a5.16,5.16,0,0,1-10.32,0"/><path class="cls-34" d="M185.06,99.17a5.16,5.16,0,0,1-10.32,0"/><path class="cls-34" d="M195.55,99.17a5.16,5.16,0,0,1-10.32,0"/><path class="cls-35" d="M195,26.66a27,27,0,0,0-50.67-8.83,20.7,20.7,0,1,0-1.67,38.27,12.86,12.86,0,0,0,13.54-1.63,26.82,26.82,0,0,0,12.06,2.85,27.22,27.22,0,0,0,7.21-1,12.93,12.93,0,0,0,11.13-.6,15.22,15.22,0,0,0,6.77,1.58A15.37,15.37,0,0,0,195,26.66Z"/><path class="cls-36" d="M615.07,41a22.68,22.68,0,0,0-42.57-7.42,17.39,17.39,0,1,0-1.41,32.16,10.82,10.82,0,0,0,11.37-1.37,22.6,22.6,0,0,0,10.14,2.39,22.85,22.85,0,0,0,6.06-.82,10.88,10.88,0,0,0,9.34-.5A12.92,12.92,0,1,0,615.07,41Z"/><rect class="cls-14" x="190.75" y="126.08" width="2.52" height="112.28" transform="translate(384.01 364.44) rotate(-180)"/><path class="cls-14" d="M269,122.42a8.45,8.45,0,1,1-16.89,0Z"/><path class="cls-14" d="M235.25,122.42a8.45,8.45,0,1,1-16.89,0Z"/><path class="cls-14" d="M201.46,122.42v.1a8.45,8.45,0,1,1-16.89,0v-.1Z"/><path class="cls-14" d="M252.15,122.42a8.45,8.45,0,1,1-16.89,0Z"/><path class="cls-14" d="M218.36,122.42a8.45,8.45,0,0,1-16.9,0Z"/><path class="cls-14" d="M184.56,122.42a8.45,8.45,0,1,1-16.89,0Z"/><polygon class="cls-24" points="260.6 89.67 167.67 122.42 260.6 122.42 296.8 122.42 296.8 89.67 260.6 89.67"/><rect class="cls-4" x="264.63" y="99.48" width="173.23" height="85.56" rx="3.17"/><rect class="cls-24" x="254.78" y="177.71" width="185.28" height="56.53" rx="3"/><circle class="cls-4" cx="448.12" cy="185.03" r="1.55"/><rect class="cls-37" x="370.42" y="171.7" width="36.09" height="11.63" rx="5.81" transform="translate(776.92 355.02) rotate(180)"/><rect class="cls-37" x="323.98" y="170.07" width="36.09" height="11.63" rx="5.81" transform="translate(698.28 320.8) rotate(174.92)"/><rect class="cls-37" x="281.73" y="171.7" width="36.09" height="11.63" rx="5.81" transform="translate(599.55 355.02) rotate(180)"/><path class="cls-38" d="M304.48,108.2S331.59,146,288.72,178c0,0,22.12,44.48,20.72,53.86s-23.39,10.38-31.8,5,.77-110,.77-110Z"/><path class="cls-39" d="M299.47,131.84s.23,29.95-11.11,44c0,0-5.87,1.46,0-19"/><path class="cls-39" d="M296.8,205.61s-6.16-19.78-9.89-25.61.5,39.56.5,39.56"/><rect class="cls-8" x="280.19" y="174.17" width="13.44" height="6.68" rx="3"/><path class="cls-38" d="M389.19,108.2S362.08,146,405,178c0,0-22.13,44.48-20.72,53.86s23.38,10.38,31.79,5-.77-110-.77-110Z"/><path class="cls-39" d="M394.2,131.84s-.23,29.95,11.11,44c0,0,5.88,1.46,0-19"/><path class="cls-39" d="M396.88,205.61S403,185.83,406.76,180s-.5,39.56-.5,39.56"/><rect class="cls-8" x="400.04" y="174.17" width="13.44" height="6.68" rx="3" transform="translate(813.52 355.02) rotate(-180)"/><path class="cls-14" d="M280.65,148.45s57.85-14.17,65.61-49c0,0-51.52-5.63-62.27,17.18S280.65,148.45,280.65,148.45Z"/><path class="cls-40" d="M275.93,145.2s39.59-31,51.79-31l-22.66,17.66"/><path class="cls-14" d="M413,148.45s-57.84-14.17-65.61-49c0,0,51.52-5.63,62.27,17.18S413,148.45,413,148.45Z"/><path class="cls-40" d="M417.74,145.2s-39.59-31-51.79-31l22.66,17.66"/><path class="cls-38" d="M278.23,236.72H203.78a3,3,0,0,1-3-3l32.73-103.81a3,3,0,0,1,3-3h41.72a3,3,0,0,1,3,3V233.72A3,3,0,0,1,278.23,236.72Z"/><path class="cls-38" d="M415.44,236.72h74.45a3,3,0,0,0,3-3L460.16,129.91a3,3,0,0,0-3-3H415.44a3,3,0,0,0-3,3V233.72A3,3,0,0,0,415.44,236.72Z"/><path class="cls-24" d="M475,125.05,350.22,31.45a5.64,5.64,0,0,0-6.76,0l-124.82,93.6A5.63,5.63,0,0,0,222,135.19h60.44c6.72-16.93,33-35.71,64.38-35.71s57.66,18.78,64.37,35.71h60.44A5.63,5.63,0,0,0,475,125.05Z"/><polyline class="cls-39" points="223.44 237.06 253.27 135.19 343.02 35.65"/><polyline class="cls-39" points="350.02 35.65 439.78 135.19 477.3 237.29"/><path class="cls-14" d="M345.2,24.72l-6.3,7.38a2.15,2.15,0,0,0,1.64,3.55h12.59a2.15,2.15,0,0,0,1.64-3.55l-6.3-7.38A2.14,2.14,0,0,0,345.2,24.72Z"/><line class="cls-39" x1="346.84" y1="32.2" x2="346.84" y2="99.48"/><rect class="cls-14" x="234.28" y="148.45" width="38.64" height="45.68" rx="3" transform="translate(507.2 342.58) rotate(-180)"/><g class="cls-41"><line class="cls-12" x1="267.26" y1="132.02" x2="281.33" y2="198.39"/><line class="cls-12" x1="270.29" y1="131.38" x2="284.35" y2="197.75"/><line class="cls-12" x1="261.21" y1="133.3" x2="275.27" y2="199.67"/><line class="cls-12" x1="264.24" y1="132.66" x2="278.3" y2="199.03"/><line class="cls-12" x1="255.16" y1="134.59" x2="269.22" y2="200.95"/><line class="cls-12" x1="258.18" y1="133.95" x2="272.25" y2="200.31"/><line class="cls-12" x1="249.11" y1="135.87" x2="263.17" y2="202.23"/><line class="cls-12" x1="252.13" y1="135.23" x2="266.2" y2="201.59"/><line class="cls-12" x1="243.05" y1="137.15" x2="257.12" y2="203.52"/><line class="cls-12" x1="246.08" y1="136.51" x2="260.14" y2="202.88"/><line class="cls-12" x1="237" y1="138.43" x2="251.07" y2="204.8"/><line class="cls-12" x1="240.03" y1="137.79" x2="254.09" y2="204.16"/><line class="cls-12" x1="230.95" y1="139.72" x2="245.01" y2="206.08"/><line class="cls-12" x1="233.98" y1="139.08" x2="248.04" y2="205.44"/><line class="cls-12" x1="224.9" y1="141" x2="238.96" y2="207.37"/><line class="cls-12" x1="227.92" y1="140.36" x2="241.99" y2="206.72"/><line class="cls-13" x1="297.36" y1="184.03" x2="221.51" y2="200.11"/><line class="cls-13" x1="298" y1="187.06" x2="222.15" y2="203.13"/><line class="cls-13" x1="296.08" y1="177.98" x2="220.22" y2="194.05"/><line class="cls-13" x1="296.72" y1="181" x2="220.86" y2="197.08"/><line class="cls-13" x1="294.8" y1="171.93" x2="218.94" y2="188"/><line class="cls-13" x1="295.44" y1="174.95" x2="219.58" y2="191.03"/><line class="cls-13" x1="293.52" y1="165.87" x2="217.66" y2="181.95"/><line class="cls-13" x1="294.16" y1="168.9" x2="218.3" y2="184.98"/><line class="cls-13" x1="292.23" y1="159.82" x2="216.38" y2="175.9"/><line class="cls-13" x1="292.87" y1="162.85" x2="217.02" y2="178.92"/><line class="cls-13" x1="290.95" y1="153.77" x2="215.09" y2="169.85"/><line class="cls-13" x1="291.59" y1="156.8" x2="215.73" y2="172.87"/><line class="cls-13" x1="289.67" y1="147.72" x2="213.81" y2="163.79"/><line class="cls-13" x1="290.31" y1="150.74" x2="214.45" y2="166.82"/><line class="cls-13" x1="288.39" y1="141.67" x2="212.53" y2="157.74"/><line class="cls-13" x1="289.03" y1="144.69" x2="213.17" y2="160.77"/></g><rect class="cls-24" x="420.75" y="148.45" width="38.64" height="45.68" rx="3"/><g class="cls-42"><line class="cls-43" x1="426.4" y1="132.02" x2="412.34" y2="198.39"/><line class="cls-43" x1="423.38" y1="131.38" x2="409.31" y2="197.75"/><line class="cls-43" x1="432.46" y1="133.3" x2="418.39" y2="199.67"/><line class="cls-43" x1="429.43" y1="132.66" x2="415.36" y2="199.03"/><line class="cls-43" x1="438.51" y1="134.59" x2="424.44" y2="200.95"/><line class="cls-43" x1="435.48" y1="133.95" x2="421.42" y2="200.31"/><line class="cls-43" x1="444.56" y1="135.87" x2="430.49" y2="202.23"/><line class="cls-43" x1="441.53" y1="135.23" x2="427.47" y2="201.59"/><line class="cls-43" x1="450.61" y1="137.15" x2="436.55" y2="203.52"/><line class="cls-43" x1="447.59" y1="136.51" x2="433.52" y2="202.88"/><line class="cls-43" x1="456.66" y1="138.43" x2="442.6" y2="204.8"/><line class="cls-43" x1="453.64" y1="137.79" x2="439.57" y2="204.16"/><line class="cls-43" x1="462.72" y1="139.72" x2="448.65" y2="206.08"/><line class="cls-43" x1="459.69" y1="139.08" x2="445.62" y2="205.44"/><line class="cls-43" x1="468.77" y1="141" x2="454.7" y2="207.37"/><line class="cls-43" x1="465.74" y1="140.36" x2="451.68" y2="206.72"/><line class="cls-44" x1="396.3" y1="184.03" x2="472.16" y2="200.11"/><line class="cls-44" x1="395.66" y1="187.06" x2="471.52" y2="203.13"/><line class="cls-44" x1="397.58" y1="177.98" x2="473.44" y2="194.05"/><line class="cls-44" x1="396.94" y1="181" x2="472.8" y2="197.08"/><line class="cls-44" x1="398.87" y1="171.93" x2="474.72" y2="188"/><line class="cls-44" x1="398.23" y1="174.95" x2="474.08" y2="191.03"/><line class="cls-44" x1="400.15" y1="165.87" x2="476.01" y2="181.95"/><line class="cls-44" x1="399.51" y1="168.9" x2="475.37" y2="184.98"/><line class="cls-44" x1="401.43" y1="159.82" x2="477.29" y2="175.9"/><line class="cls-44" x1="400.79" y1="162.85" x2="476.65" y2="178.92"/><line class="cls-44" x1="402.71" y1="153.77" x2="478.57" y2="169.85"/><line class="cls-44" x1="402.07" y1="156.8" x2="477.93" y2="172.87"/><line class="cls-44" x1="404" y1="147.72" x2="479.85" y2="163.79"/><line class="cls-44" x1="403.36" y1="150.74" x2="479.21" y2="166.82"/><line class="cls-44" x1="405.28" y1="141.67" x2="481.14" y2="157.74"/><line class="cls-44" x1="404.64" y1="144.69" x2="480.5" y2="160.77"/></g><line class="cls-45" x1="414.91" y1="135.19" x2="539.32" y2="248.64"/><rect class="cls-46" x="409.74" y="130.46" width="9.48" height="9.48" rx="3"/><circle class="cls-47" cx="540.3" cy="249.03" r="4.65"/><line class="cls-47" x1="540.3" y1="261.59" x2="540.3" y2="253.68"/><line class="cls-45" x1="281.4" y1="135.19" x2="156.99" y2="248.64"/><circle class="cls-47" cx="156.01" cy="249.03" r="4.65"/><line class="cls-47" x1="156.01" y1="261.59" x2="156.01" y2="253.68"/><rect class="cls-46" x="278.4" y="130.46" width="9.48" height="9.48" rx="3"/><text class="cls-48" transform="translate(443.84 129.69)"><tspan class="cls-49">Ｎ</tspan><tspan x="5.82" y="0">O.22</tspan></text><path class="cls-27" d="M66.78,24s68.63,79.22,262.86,22"/><circle class="cls-8" cx="95.65" cy="61.23" r="4.89"/><path class="cls-14" d="M97.14,52.29V49.75a1.38,1.38,0,0,0-1.49-1.21h0a1.38,1.38,0,0,0-1.5,1.21v2.54c-2.56.54-4.46,2.42-4.46,4.67,0,2.67,2.66,2.15,6,2.15s5.95.52,5.95-2.15C101.6,54.71,99.71,52.83,97.14,52.29Z"/><line class="cls-50" x1="95.6" y1="45.1" x2="95.6" y2="50.66"/><line class="cls-51" x1="95.65" y1="59.11" x2="95.65" y2="61.23"/><circle class="cls-51" cx="95.65" cy="62.26" r="1.04"/><circle class="cls-8" cx="130.17" cy="74.01" r="4.89"/><path class="cls-14" d="M131.66,65.07V62.54a1.37,1.37,0,0,0-1.49-1.21h0a1.37,1.37,0,0,0-1.49,1.21v2.53c-2.57.54-4.47,2.43-4.47,4.68,0,2.67,2.67,2.14,6,2.14s6,.53,6-2.14C136.13,67.5,134.23,65.61,131.66,65.07Z"/><line class="cls-50" x1="130.13" y1="57.89" x2="130.13" y2="63.45"/><line class="cls-51" x1="130.17" y1="71.89" x2="130.17" y2="74.01"/><circle class="cls-51" cx="130.17" cy="75.05" r="1.04"/><circle class="cls-8" cx="163.18" cy="80.66" r="4.89"/><path class="cls-14" d="M164.67,71.73V69.19A1.38,1.38,0,0,0,163.18,68h0a1.38,1.38,0,0,0-1.49,1.21v2.54c-2.57.53-4.47,2.42-4.47,4.67,0,2.67,2.67,2.15,6,2.15s6,.52,6-2.15C169.14,74.15,167.24,72.26,164.67,71.73Z"/><line class="cls-50" x1="163.14" y1="64.54" x2="163.14" y2="70.1"/><line class="cls-51" x1="163.18" y1="78.55" x2="163.18" y2="80.66"/><circle class="cls-51" cx="163.18" cy="81.7" r="1.04"/><circle class="cls-8" cx="196.29" cy="83.8" r="4.89"/><path class="cls-14" d="M197.78,74.87V72.33a1.38,1.38,0,0,0-1.49-1.21h0a1.38,1.38,0,0,0-1.49,1.21v2.54c-2.57.53-4.47,2.42-4.47,4.67,0,2.67,2.67,2.15,6,2.15s6,.52,6-2.15C202.25,77.29,200.35,75.4,197.78,74.87Z"/><line class="cls-50" x1="196.25" y1="67.68" x2="196.25" y2="73.24"/><line class="cls-51" x1="196.29" y1="81.69" x2="196.29" y2="83.8"/><circle class="cls-51" cx="196.29" cy="84.84" r="1.04"/><circle class="cls-8" cx="234.28" cy="80.98" r="4.89"/><path class="cls-14" d="M235.77,72V69.5a1.38,1.38,0,0,0-1.49-1.21h0a1.39,1.39,0,0,0-1.5,1.21V72c-2.56.54-4.46,2.42-4.46,4.67,0,2.67,2.66,2.15,6,2.15s5.95.52,5.95-2.15C240.23,74.46,238.34,72.58,235.77,72Z"/><line class="cls-50" x1="234.23" y1="64.85" x2="234.23" y2="70.41"/><line class="cls-51" x1="234.28" y1="78.86" x2="234.28" y2="80.98"/><circle class="cls-51" cx="234.28" cy="82.01" r="1.04"/><circle class="cls-8" cx="266.56" cy="76.74" r="4.89"/><path class="cls-14" d="M268.05,67.8V65.27a1.37,1.37,0,0,0-1.49-1.21h0a1.38,1.38,0,0,0-1.5,1.21V67.8c-2.56.54-4.46,2.42-4.46,4.67,0,2.67,2.67,2.15,6,2.15s6,.52,6-2.15C272.52,70.22,270.62,68.34,268.05,67.8Z"/><line class="cls-50" x1="266.52" y1="60.61" x2="266.52" y2="66.17"/><line class="cls-51" x1="266.56" y1="74.62" x2="266.56" y2="76.74"/><circle class="cls-51" cx="266.56" cy="77.77" r="1.04"/><circle class="cls-4" cx="294.58" cy="71.03" r="4.89"/><path class="cls-14" d="M296.07,62.1V59.56a1.38,1.38,0,0,0-1.49-1.21h0a1.38,1.38,0,0,0-1.49,1.21V62.1c-2.57.53-4.47,2.42-4.47,4.67,0,2.67,2.67,2.15,6,2.15s6,.52,6-2.15C300.54,64.52,298.64,62.63,296.07,62.1Z"/><line class="cls-50" x1="294.54" y1="54.91" x2="294.54" y2="60.47"/><line class="cls-51" x1="294.58" y1="68.92" x2="294.58" y2="71.03"/><circle class="cls-51" cx="294.58" cy="72.07" r="1.04"/><circle class="cls-4" cx="327.03" cy="63.35" r="4.89"/><path class="cls-14" d="M328.53,54.41V51.87a1.39,1.39,0,0,0-1.5-1.21h0a1.38,1.38,0,0,0-1.49,1.21v2.54c-2.57.53-4.47,2.42-4.47,4.67,0,2.67,2.67,2.15,6,2.15s6,.52,6-2.15C333,56.83,331.09,54.94,328.53,54.41Z"/><line class="cls-50" x1="326.99" y1="47.22" x2="326.99" y2="52.78"/><line class="cls-51" x1="327.03" y1="61.23" x2="327.03" y2="63.35"/><circle class="cls-51" cx="327.03" cy="64.38" r="1.04"/></g></g></svg>