<svg xmlns="http://www.w3.org/2000/svg" xmlns:xlink="http://www.w3.org/1999/xlink" viewBox="0 0 266.2 179.33"><defs><style>.cls-1,.cls-10,.cls-12,.cls-13,.cls-15,.cls-25,.cls-26,.cls-34,.cls-35,.cls-40,.cls-41,.cls-42,.cls-44,.cls-45,.cls-46,.cls-47,.cls-9{fill:none;}.cls-2{opacity:0.56;}.cls-17,.cls-20,.cls-21,.cls-23,.cls-24,.cls-3,.cls-31,.cls-32,.cls-37,.cls-43{fill:#fff;}.cls-4{opacity:0.62;}.cls-22,.cls-27,.cls-28,.cls-30,.cls-33,.cls-36,.cls-5,.cls-6,.cls-7{fill:#ffe97b;}.cls-10,.cls-13,.cls-15,.cls-40,.cls-41,.cls-42,.cls-6,.cls-9{stroke:#fff;}.cls-6{stroke-linecap:square;stroke-width:3.27px;}.cls-10,.cls-12,.cls-13,.cls-15,.cls-20,.cls-21,.cls-22,.cls-23,.cls-24,.cls-25,.cls-26,.cls-27,.cls-28,.cls-30,.cls-31,.cls-32,.cls-33,.cls-34,.cls-35,.cls-36,.cls-37,.cls-40,.cls-41,.cls-42,.cls-43,.cls-44,.cls-45,.cls-46,.cls-47,.cls-6,.cls-7,.cls-9{stroke-linejoin:round;}.cls-12,.cls-20,.cls-21,.cls-22,.cls-23,.cls-24,.cls-25,.cls-27,.cls-28,.cls-30,.cls-31,.cls-32,.cls-33,.cls-34,.cls-35,.cls-36,.cls-37,.cls-43,.cls-44,.cls-45,.cls-46,.cls-47,.cls-7{stroke:#4ba795;}.cls-10,.cls-12,.cls-13,.cls-15,.cls-20,.cls-21,.cls-22,.cls-23,.cls-24,.cls-25,.cls-26,.cls-27,.cls-28,.cls-30,.cls-31,.cls-32,.cls-33,.cls-34,.cls-35,.cls-36,.cls-37,.cls-40,.cls-41,.cls-42,.cls-43,.cls-44,.cls-45,.cls-46,.cls-47,.cls-7,.cls-9{stroke-linecap:round;}.cls-12,.cls-7{stroke-width:1.13px;}.cls-8{clip-path:url(#clip-path);}.cls-9{stroke-width:0.3px;}.cls-10{stroke-width:0.32px;}.cls-11,.cls-29,.cls-48{fill:#4ba795;}.cls-13{stroke-width:0.71px;stroke-dasharray:2.84;}.cls-14{clip-path:url(#clip-path-2);}.cls-15{stroke-width:1.1px;}.cls-16{fill:#2a7682;}.cls-17{font-size:6.59px;}.cls-17,.cls-29{font-family:CP-Font, CP Font-83pv-RKSJ-H;}.cls-18{letter-spacing:-0.01em;}.cls-19{letter-spacing:0em;}.cls-20{stroke-width:1.25px;}.cls-21{stroke-width:0.94px;}.cls-22{stroke-width:1.32px;}.cls-23{stroke-width:1.23px;}.cls-24{stroke-width:1.22px;}.cls-25{stroke-width:1.63px;}.cls-26{stroke:#ffe97b;stroke-width:0.83px;}.cls-27{stroke-width:0.8px;}.cls-28{stroke-width:0.92px;}.cls-29,.cls-48{font-size:3.88px;}.cls-30{stroke-width:0.89px;}.cls-31,.cls-47{stroke-width:0.99px;}.cls-32,.cls-40{stroke-width:0.97px;}.cls-33{stroke-width:1.14px;}.cls-34,.cls-35,.cls-41{stroke-width:0.64px;}.cls-35{stroke-dasharray:1.22 1.22;}.cls-36,.cls-45{stroke-width:1.04px;}.cls-37{stroke-width:0.94px;}.cls-38,.cls-39{fill:#efa495;}.cls-39{opacity:0.37;}.cls-42{stroke-width:0.56px;}.cls-43{stroke-width:1.05px;}.cls-44{stroke-width:1.03px;}.cls-48{font-family:NotoSansCJKtc-Light-B5pc-H, Noto Sans CJK TC;letter-spacing:-0.13em;}.cls-49{letter-spacing:-0.14em;}.cls-50{letter-spacing:-0.06em;}</style><clipPath id="clip-path"><rect class="cls-1" x="55.16" y="33.15" width="76.83" height="40.73" rx="4.31"/></clipPath><clipPath id="clip-path-2"><circle class="cls-1" cx="33.02" cy="66.54" r="9.12"/></clipPath></defs><title>資產 11</title><g id="圖層_2" data-name="圖層 2"><g id="C"><g class="cls-2"><polygon class="cls-3" points="182.49 12.93 182.49 11.64 53.93 11.64 0 105.05 53.93 105.05 107.87 105.05 127.82 105.05 182.49 105.05 235.68 105.05 182.49 12.93"/><g class="cls-4"><polygon class="cls-5" points="2.83 103.42 54.88 13.27 180.86 13.27 180.86 103.42 2.83 103.42"/><path class="cls-3" d="M179.23,14.9v86.89H5.66L55.82,14.9H179.23m3.26-3.26H53.93L0,105.05H182.49V11.64Z"/><polygon class="cls-5" points="130.65 103.42 181.75 14.9 232.86 103.42 130.65 103.42"/><path class="cls-3" d="M181.75,18.17,230,101.79H133.47l48.28-83.62m0-6.53-53.93,93.41H235.68L181.75,11.64Z"/><line class="cls-6" x1="181.75" y1="16.72" x2="181.75" y2="105.05"/></g><rect class="cls-7" x="55.16" y="33.15" width="76.83" height="40.73" rx="4.31"/><g class="cls-8"><line class="cls-9" x1="75.21" y1="1.2" x2="52.24" y2="109.57"/><line class="cls-9" x1="70.27" y1="0.15" x2="47.3" y2="108.52"/><line class="cls-9" x1="85.09" y1="3.29" x2="62.13" y2="111.66"/><line class="cls-9" x1="80.15" y1="2.25" x2="57.19" y2="110.62"/><line class="cls-9" x1="94.98" y1="5.39" x2="72.01" y2="113.76"/><line class="cls-9" x1="90.03" y1="4.34" x2="67.07" y2="112.71"/><line class="cls-9" x1="104.86" y1="7.48" x2="81.89" y2="115.85"/><line class="cls-9" x1="99.92" y1="6.43" x2="76.95" y2="114.81"/><line class="cls-9" x1="114.74" y1="9.58" x2="91.77" y2="117.95"/><line class="cls-9" x1="109.8" y1="8.53" x2="86.83" y2="116.9"/><line class="cls-9" x1="124.62" y1="11.67" x2="101.66" y2="120.04"/><line class="cls-9" x1="119.68" y1="10.62" x2="96.72" y2="118.99"/><line class="cls-9" x1="134.51" y1="13.76" x2="111.54" y2="122.14"/><line class="cls-9" x1="129.57" y1="12.72" x2="106.6" y2="121.09"/><line class="cls-9" x1="144.39" y1="15.86" x2="121.42" y2="124.23"/><line class="cls-9" x1="139.45" y1="14.81" x2="116.48" y2="123.18"/><line class="cls-10" x1="26.06" y1="86.12" x2="149.93" y2="112.38"/><line class="cls-10" x1="25.01" y1="91.07" x2="148.88" y2="117.32"/><line class="cls-10" x1="28.15" y1="76.24" x2="152.02" y2="102.49"/><line class="cls-10" x1="27.1" y1="81.18" x2="150.98" y2="107.43"/><line class="cls-10" x1="30.24" y1="66.36" x2="154.12" y2="92.61"/><line class="cls-10" x1="29.2" y1="71.3" x2="153.07" y2="97.55"/><line class="cls-10" x1="32.34" y1="56.48" x2="156.21" y2="82.73"/><line class="cls-10" x1="31.29" y1="61.42" x2="155.16" y2="87.67"/><line class="cls-10" x1="34.43" y1="46.59" x2="158.31" y2="72.85"/><line class="cls-10" x1="33.39" y1="51.54" x2="157.26" y2="77.79"/><line class="cls-10" x1="36.53" y1="36.71" x2="160.4" y2="62.96"/><line class="cls-10" x1="35.48" y1="41.65" x2="159.35" y2="67.9"/><line class="cls-10" x1="38.62" y1="26.83" x2="162.49" y2="53.08"/><line class="cls-10" x1="37.58" y1="31.77" x2="161.45" y2="58.02"/><line class="cls-10" x1="40.72" y1="16.95" x2="164.59" y2="43.2"/><line class="cls-10" x1="39.67" y1="21.89" x2="163.54" y2="48.14"/></g><rect class="cls-11" x="50.36" y="30.2" width="87" height="7.96" rx="3.98"/><rect class="cls-12" x="55.16" y="33.15" width="76.83" height="40.73" rx="4.31"/><rect class="cls-3" x="53.19" y="28.58" width="3.94" height="11.5" rx="1.97"/><rect class="cls-3" x="130.02" y="28.58" width="3.94" height="11.5" rx="1.97"/><line class="cls-13" x1="55.16" y1="34.33" x2="131.99" y2="34.33"/><path class="cls-11" d="M168,65.27,150,88.76a1,1,0,0,0,.76,1.54h18a1,1,0,0,0,1-1V65.85A1,1,0,0,0,168,65.27Z"/><path class="cls-11" d="M194.68,65.27l18,23.49a1,1,0,0,1-.76,1.54h-18a1,1,0,0,1-1-1V65.85A1,1,0,0,1,194.68,65.27Z"/><rect class="cls-11" x="40.06" y="76.79" width="2.48" height="28.56" transform="translate(-1.07 0.49) rotate(-0.68)"/><rect class="cls-11" x="22.66" y="76.99" width="2.48" height="28.56" transform="matrix(1, -0.01, 0.01, 1, -1.08, 0.29)"/><rect class="cls-11" x="31.54" y="73.6" width="1.43" height="25.86" transform="translate(-52.19 49.15) rotate(-45.68)"/><rect class="cls-11" x="31.54" y="73.6" width="1.43" height="25.86" transform="translate(-5.13 170.98) rotate(-135.68)"/><circle class="cls-11" cx="33.02" cy="66.54" r="9.12"/><g class="cls-14"><path class="cls-15" d="M21.88,62.08S35.79,59,38.38,75.67"/><path class="cls-15" d="M34,55.85S38.51,66.3,43.67,67"/></g><rect class="cls-16" x="19.44" y="74.45" width="26.16" height="3.96" rx="1.98"/><rect class="cls-11" x="164.56" y="41.41" width="36.72" height="16.01" rx="4.9"/><text class="cls-17" transform="translate(169.68 51.61)">Ｎ<tspan class="cls-18" x="6.59" y="0">O</tspan><tspan class="cls-19" x="11.37" y="0">.23</tspan></text></g><rect class="cls-11" x="88.2" y="88.3" width="50.67" height="4.4" rx="2.2"/><path class="cls-20" d="M76.77,123.26c1.69-4.08,2.76-17.73,2.76-17.73a8.71,8.71,0,0,0-9.11.7s.8,18.71.93,18.78c-1.36,1.92-1.2,2-1.66,5.72,0,0,9.63.77,13.5-1.37C83.19,129.36,81.55,124.15,76.77,123.26Z"/><path class="cls-21" d="M65.42,58.34H78.08a0,0,0,0,1,0,0V82.68a0,0,0,0,1,0,0H65.42a3.74,3.74,0,0,1-3.74-3.74V62.09A3.74,3.74,0,0,1,65.42,58.34Z"/><path class="cls-21" d="M81.82,58.34H94.48a0,0,0,0,1,0,0V82.68a0,0,0,0,1,0,0H81.82a3.74,3.74,0,0,1-3.74-3.74V62.09a3.74,3.74,0,0,1,3.74-3.74Z" transform="translate(172.55 141.02) rotate(-180)"/><rect class="cls-5" x="80.39" y="61.83" width="7.81" height="5.99" rx="2.99"/><rect class="cls-5" x="64.6" y="70.1" width="11.94" height="9.15" rx="4.58"/><rect class="cls-5" x="80.93" y="69.04" width="10.96" height="0.84" rx="0.42"/><rect class="cls-5" x="64.39" y="66.39" width="10.96" height="0.84" rx="0.42"/><rect class="cls-5" x="64.39" y="63.73" width="10.96" height="0.84" rx="0.42"/><rect class="cls-5" x="64.39" y="61.07" width="10.96" height="0.84" rx="0.42"/><rect class="cls-11" x="80.93" y="70.86" width="4.2" height="0.84" rx="0.26"/><rect class="cls-11" x="66.59" y="68.62" width="8.76" height="0.84" rx="0.37"/><rect class="cls-11" x="80.93" y="72.94" width="8.04" height="0.84" rx="0.36"/><rect class="cls-11" x="80.93" y="75.02" width="4.2" height="0.84" rx="0.26"/><rect class="cls-11" x="80.93" y="77.1" width="8.04" height="0.84" rx="0.36"/><path class="cls-22" d="M55.73,102.14c-.38.48,1,2.69,1.22,3a10.18,10.18,0,0,0,6.82,4.09,27.18,27.18,0,0,0,12.93-1.09,36.58,36.58,0,0,0,6-2.52c.6-.32,3.85-1.28,3.92-2,0,0,.72-6.48-2.05-10.54C84.6,93.15,67,88.23,55.73,102.14Z"/><path class="cls-23" d="M57.69,56.53v5.79s4.63,1.24,6.12,0l.79-5.79A32.72,32.72,0,0,0,57.69,56.53Z"/><path class="cls-11" d="M56.41,48.9s-7,4.48-5,12.94c0,0,.12,2.46,3.09,4.55a1.27,1.27,0,0,1,.32,2.32s3.16.05,2.26-2c0,0,1.83,1.38,1.09,2.13,0,0,1.68-.72,1.68-1.91,0,0,.53,1.63,0,2.16,0,0,2.9-.52,2.9-2l-.3,1.86s3.11-.6,3.11-1.87l-.36,1.84s8.17-2.93,7.39-11.29C71.74,48.74,62.32,45.68,56.41,48.9Z"/><path class="cls-11" d="M57.28,70.48s-7,2.91-8.43,10.09,1.8,20.52,7.27,22.4c0,0,17.18-1.88,19.23-8,0,0-6.66-9.57-6.66-12.74,0,0,5.38-1.19,5.89-3.16C74.58,79.12,69.56,67.07,57.28,70.48Z"/><path class="cls-24" d="M66.59,83.15s7.32,6.66,10,6.85,17.67-9.24,17.67-9.24,3.3-.21,3.63-2.78-1.52-7-4.49-4l-.26,3-15.3,6.49-5.44-4.53S67.58,80.51,66.59,83.15Z"/><path class="cls-3" d="M79.78,96.16a2.79,2.79,0,0,1-.7,1.68,2.79,2.79,0,0,1-.7-1.68c0-.94.31-1.69.7-1.69S79.78,95.22,79.78,96.16Z"/><path class="cls-3" d="M81.72,97.6a2.8,2.8,0,0,1-1.68.7,2.77,2.77,0,0,1,.69-1.69c.66-.65,1.42-1,1.69-.69S82.38,97,81.72,97.6Z"/><path class="cls-3" d="M82.07,100a2.79,2.79,0,0,1-1.68-.7,2.79,2.79,0,0,1,1.68-.7c.93,0,1.69.32,1.69.7S83,100,82.07,100Z"/><path class="cls-3" d="M80.62,102a2.85,2.85,0,0,1-.69-1.69,2.78,2.78,0,0,1,1.68.7c.66.65,1,1.41.7,1.68S81.28,102.61,80.62,102Z"/><path class="cls-3" d="M78.22,102.3a2.81,2.81,0,0,1,.71-1.69,2.83,2.83,0,0,1,.7,1.69c0,.93-.32,1.68-.7,1.68S78.22,103.23,78.22,102.3Z"/><path class="cls-3" d="M76.28,100.85a2.82,2.82,0,0,1,1.69-.7,2.82,2.82,0,0,1-.7,1.69c-.66.66-1.41,1-1.69.7S75.62,101.51,76.28,100.85Z"/><path class="cls-3" d="M75.93,98.45a2.83,2.83,0,0,1,1.69.7,2.83,2.83,0,0,1-1.69.7c-.93,0-1.68-.31-1.68-.7S75,98.45,75.93,98.45Z"/><path class="cls-3" d="M77.38,96.51a2.78,2.78,0,0,1,.7,1.68,2.85,2.85,0,0,1-1.69-.69c-.66-.66-1-1.42-.7-1.69S76.72,95.85,77.38,96.51Z"/><path class="cls-3" d="M69.49,102.24a2.13,2.13,0,0,1-.52,1.27,2.12,2.12,0,0,1-.53-1.27c0-.7.24-1.27.53-1.27S69.49,101.54,69.49,102.24Z"/><path class="cls-3" d="M71,103.33a2.11,2.11,0,0,1-1.27.53,2.16,2.16,0,0,1,.52-1.28c.5-.49,1.07-.73,1.27-.52S71.46,102.83,71,103.33Z"/><path class="cls-3" d="M71.22,105.14a2.12,2.12,0,0,1-1.27-.53,2.12,2.12,0,0,1,1.27-.53c.71,0,1.27.24,1.27.53S71.93,105.14,71.22,105.14Z"/><path class="cls-3" d="M70.13,106.6a2.12,2.12,0,0,1-.52-1.27,2.11,2.11,0,0,1,1.27.53c.49.49.73,1.06.52,1.27S70.63,107.1,70.13,106.6Z"/><path class="cls-3" d="M68.32,106.87a2.12,2.12,0,0,1,.53-1.27,2.12,2.12,0,0,1,.53,1.27c0,.7-.24,1.27-.53,1.27S68.32,107.57,68.32,106.87Z"/><path class="cls-3" d="M66.86,105.77a2.12,2.12,0,0,1,1.27-.52,2.12,2.12,0,0,1-.52,1.27c-.5.5-1.07.73-1.28.53S66.36,106.27,66.86,105.77Z"/><path class="cls-3" d="M66.59,104a2.14,2.14,0,0,1,1.28.52,2.12,2.12,0,0,1-1.28.53c-.7,0-1.27-.23-1.27-.53S65.89,104,66.59,104Z"/><path class="cls-3" d="M67.69,102.5a2.14,2.14,0,0,1,.52,1.27,2.14,2.14,0,0,1-1.27-.52c-.5-.5-.73-1.07-.53-1.27S67.19,102,67.69,102.5Z"/><path class="cls-20" d="M93,124.24c2.89-8.75,6.32-28.67,3.84-30.11-5-2.87-13-.53-13-.53C82,96.45,85.67,103,85.67,103l3.63-1.46c-2.14,3.49-2,19.34-2,23.24a6.36,6.36,0,0,0-1.26,5.78s9.38,2.53,14.07-.59C100.13,129.94,97.09,124.94,93,124.24Z"/><rect class="cls-11" x="68.5" y="128.61" width="15.86" height="2.89" rx="1.44"/><path class="cls-11" d="M100.13,131.93l-14,.37a1.44,1.44,0,0,1-1.45-1.44h0a1.45,1.45,0,0,1,1.45-1.44l14-.37a1.45,1.45,0,0,1,1.44,1.44h0A1.45,1.45,0,0,1,100.13,131.93Z"/><path class="cls-25" d="M94.49,125s1.27,2.78,1.08,4"/><path class="cls-25" d="M77.6,123.81s2,4,1.79,5.24"/><rect class="cls-11" x="102.46" y="91.93" width="1.89" height="34.97"/><rect class="cls-11" x="53.92" y="102.03" width="2.39" height="19.4"/><rect class="cls-11" x="77.73" y="112.1" width="2.39" height="19.4"/><rect class="cls-16" x="50.36" y="107.2" width="33.4" height="7.27" rx="3.63"/><path class="cls-3" d="M107.05,91h-.57a3.09,3.09,0,0,1-3.08-3.07v-9.6a3.09,3.09,0,0,1,3.08-3.07h.57a3.08,3.08,0,0,1,3.07,3.07v9.6A3.08,3.08,0,0,1,107.05,91Z"/><line class="cls-26" x1="108.49" y1="79.61" x2="104.15" y2="79.61"/><line class="cls-26" x1="108.49" y1="82.26" x2="104.15" y2="82.26"/><line class="cls-26" x1="108.49" y1="84.92" x2="104.15" y2="84.92"/><line class="cls-26" x1="108.49" y1="87.58" x2="104.15" y2="87.58"/><rect class="cls-11" x="104.84" y="74.35" width="3.52" height="2.16" rx="1.08"/><rect class="cls-11" x="145.51" y="103.79" width="1.89" height="30.93"/><rect class="cls-27" x="126.47" y="55.94" width="47.68" height="30.13" transform="translate(7.47 -14.03) rotate(5.48)"/><path class="cls-3" d="M153.33,64.07a13.54,13.54,0,0,0,6.41-1.87c2.8-1.82,6.92-3.85,7.61.94s1.3,5.51,2.4,5.9-3.49,4.15-6.52,4.15S153.33,64.07,153.33,64.07Z"/><path class="cls-3" d="M161.11,76s7.27-2.3,8.41-4.07,4.46,7.66-5.83,12.21Z"/><rect class="cls-11" x="194.59" y="94.95" width="2.35" height="30.69" rx="1.17" transform="translate(-14.99 32.38) rotate(-9.11)"/><rect class="cls-28" x="174.86" y="98.59" width="21.31" height="15.39" rx="3.24" transform="translate(-14.49 30.71) rotate(-9.11)"/><text class="cls-29" transform="translate(177.57 109.21) rotate(-9.11)">ＧＯＧＯ</text><path class="cls-30" d="M211.37,165.31s-3.73-3.19-5.64-2.4-5.36,4.44-2.52,7.22,7.12,6.48,12.95,4.62c0,0,4.12-4.51,1.18-7.53Z"/><path class="cls-31" d="M216.49,137.73l-2.1,12.51-3.3,15.5s4.65,4.44,6.62,1.44c0,0,4.69-12.22,4.08-15.1,0,0,4.53-8.05,5-12C226.78,140.11,220.14,137,216.49,137.73Z"/><path class="cls-11" d="M202.44,166.29s4.43,5.61,7,6.32,5.76,1.57,7.69.78c0,0,.61,1.33-2.89,1.78a11.21,11.21,0,0,1-7.92-2.34C205,171.78,201.67,170,202.44,166.29Z"/><path class="cls-30" d="M243.3,168.41s-4.88-.56-6,1.16-2,6.68,1.94,7.39,9.52,1.41,13.32-3.39c0,0,.9-6-3.22-6.91Z"/><path class="cls-31" d="M232.14,142.68l5.25,11.55,5.91,14.69s6.34,1.09,6.3-2.5c0,0-2.94-12.76-5-14.8,0,0-.73-9.21-2.55-12.72C242,138.9,234.77,140.06,232.14,142.68Z"/><path class="cls-11" d="M236.43,174.21s6.81,2.18,9.37,1.32,5.66-1.92,6.82-3.65c0,0,1.24.76-1.41,3.09a11.27,11.27,0,0,1-7.88,2.49C241.64,177.33,237.84,177.68,236.43,174.21Z"/><path class="cls-31" d="M213.37,125.91l-2.28,18.9a26.49,26.49,0,0,0,19.08,1.09l.56-9.35.58,9.58s13,2.74,17.71-3.43l-5-17.33Z"/><path class="cls-31" d="M244.49,101.42l8.46,7.93,5,4.42s14,1,4.32,4.54c-7.22,2.67-7.22-1.74-7.22-1.74L247,111l-6.6-4.62Z"/><path class="cls-11" d="M221.47,90.6s-7.39,0-14.91,12.53c0,0,3.26,7.23,10.39,7.14,0,0-4.72,13.28-4.81,17s29.5,7.93,34-2.41l-3.83-18a11.53,11.53,0,0,0,5.44-4.81S238,86,221.47,90.6Z"/><path class="cls-32" d="M222.82,89.19l.65,2.76A4.64,4.64,0,0,0,227.13,94c2.34,0,3.6-2.38,3.6-2.38l-.58-4.14S223.66,90.1,222.82,89.19Z"/><path class="cls-33" d="M215.86,68s-7.43.06-8.23,2.35,5.69,4.34,14.91,4.09S215.86,68,215.86,68Z"/><path class="cls-11" d="M164.52,167.91s5.88.41,7.16-3.18c.52-1.46,3.15-6.4,7.78-4.93s4.35,6.92-.37,10.31c-2.11,1.51-3.35,3.4-5.3,5.11-2.19,1.93-6.91,3-9.68,1.51C162.64,175.92,162.13,168.07,164.52,167.91Z"/><path class="cls-31" d="M150.31,120.28l8.27,19.93s2.19,17.47,4.28,23.25,3.06,5.53,6.87,4.35c5.05-1.56-3.41-28.91-3.41-28.91l-4.18-21Z"/><path class="cls-31" d="M131.31,117.86l-1.94,21s-5.05,16.72-5.7,22.86c-.18,6.74-.88,8.89,4.17,9.33,3.95.35,9.55-29.47,9.55-29.47l5.5-20.24Z"/><path class="cls-32" d="M132.25,100.85l-6.73,16.83s3.61,8,19,4.33l-1.14-17.72L144.54,122s12.82,3.12,21.49-4.64l-6.61-17S139.84,97.3,132.25,100.85Z"/><line class="cls-3" x1="154.51" y1="99.79" x2="159.28" y2="121.28"/><line class="cls-34" x1="154.51" y1="99.79" x2="154.65" y2="100.41"/><line class="cls-35" x1="154.91" y1="101.61" x2="159.01" y2="120.05"/><line class="cls-34" x1="159.14" y1="120.65" x2="159.28" y2="121.28"/><path class="cls-32" d="M156.57,83s3.26,13.94,10.48,12.3,10.53-19.4,10.53-19.4l.82-5.65-5-3.08s-2.29,1.61-.6,3.55,1.7,1.31,1,2.77a4.66,4.66,0,0,0-.17,4.09c.59,1.27-6.14,8.76-6.14,8.76l-2.44-6.15A11.39,11.39,0,0,0,156.57,83Z"/><path class="cls-32" d="M129.65,76.84s-9.49,12.12-2.8,14.78,8.86-4.85,8.86-4.85S140.89,75.89,129.65,76.84Z"/><path class="cls-36" d="M123,76.78s10.86-14.24,19.53-14.17c4.91,0,9.35-.89,16.64,4.58,2.95,2.2,6.39,8.58,8.37,14.3,0,0-5.35,1.87-9.63,3.21L160.71,102s-23.68,3.81-29.81,0l2.56-17.07S123,83.73,123,76.78Z"/><path class="cls-37" d="M143.45,58.69l-1.76,6.13s6.44,2.6,9.42.38l.11-3.73S147.34,56.92,143.45,58.69Z"/><path class="cls-32" d="M158.79,38.66a13.29,13.29,0,0,1,1.3,8.57c-.93,4.78.62,4.68,1.36,5.23S158.3,63,153.66,62.11s-7.67-2.86-8.78-6.76c0,0-3.94-1.49-1.73-5.61,1.95-3.63,4.36.31,4.36.31s-2.11-7.83.11-9.23S157.68,35.73,158.79,38.66Z"/><rect class="cls-11" x="155.49" y="47.27" width="1.27" height="3.18" rx="0.64" transform="translate(16.27 -36.02) rotate(13.88)"/><path class="cls-38" d="M158.68,56.49l-4.79-1.71s-2,3.4,2.2,5C156.64,60,158,58.84,158.68,56.49Z"/><path class="cls-11" d="M145.33,48.93s.92,3.72,3.41,4.49c0,0-1-7.25-.29-8.66a1.6,1.6,0,0,1,1.33,1.65s1.61-.2,1.41-2.45c0,0,1,1.81.68,2.65,0,0,2.13-.48,1.81-3.18,0,0,1.89,1.37,1.16,2.86,0,0,2,0,1.57-3,0,0,2.19,2.39,1.37,3.78,0,0,2.41-1.33,1.53-3.38,0,0,1.16,2.62,0,3.22,0,0,8.72-9-4.45-16.57,0,0-13.94-3.53-19.83,3.67s-5.24,15,.45,20.44,11.29,4.28,11.29,4.28l-1.89-3.36s-2.38-.93-2.4-2.25a13.13,13.13,0,0,1,.67-3.36s.63-1.36,1.48-1.29S145.33,48.93,145.33,48.93Z"/><path class="cls-11" d="M137.87,32.77s-16.33-7.51-18.5,9.25S132.21,58.24,127.53,61,122,63.57,122,63.57a19.74,19.74,0,0,0,5.64-.11,8.41,8.41,0,0,0,3.86-1.5c1.67-1.32,1.54-3.53,1.76-5.46a1.14,1.14,0,0,1,.13-.51c.62-1,1,1.27,1,1.55a7.53,7.53,0,0,1-2.19,5.71c-.32.35-1.16,1.5-1.61,1.57,0,0,12.65-1.59,9.12-9.62C137.37,49.82,137.87,32.77,137.87,32.77Z"/><path class="cls-36" d="M152.05,69.42s-2.22,5.77,3.08,15.06a2.8,2.8,0,0,0,2.73.22"/><line class="cls-36" x1="133.88" y1="82.11" x2="136.9" y2="69.71"/><circle class="cls-39" cx="151.22" cy="53.16" r="3.29"/><path class="cls-40" d="M133.06,98.55s16.23,2.69,25.43,0"/><path class="cls-40" d="M133.06,92.92s14.64,2.69,23.83,0"/><path class="cls-40" d="M134.69,87.89s12.69,2.57,21.88-.12"/><path class="cls-40" d="M136.35,82.41a75.45,75.45,0,0,0,16.11.28"/><path class="cls-40" d="M136.9,76.78s4.79,1.61,13.86.54"/><path class="cls-11" d="M123.54,167.74s6.62,1.48,6.7,0,5.1-4.34,8.87-1.15,1.57,8.12-4,9.41c-2.5.58-4.51,2.75-7,3.14s-5.77.31-7.34-2.15C119.8,175.55,121.27,167,123.54,167.74Z"/><path class="cls-36" d="M170.49,155.14c-.06.05,1.41,9.58,1.2,12.72-1.59,1.13-4.54,1.07-6.68,1.07-.94,0-3.25-9.2-3.86-11.83C161.14,157.07,168.66,156.59,170.49,155.14Z"/><path class="cls-36" d="M124.26,156.56a18.34,18.34,0,0,0,9.62,1.09s-2.31,10.15-3.32,11.19c0,0-6.59,1.37-7.07-.35A77.87,77.87,0,0,1,124.26,156.56Z"/><line class="cls-34" x1="125.55" y1="159.81" x2="125.13" y2="169.02"/><line class="cls-34" x1="127.91" y1="160.1" x2="126.7" y2="170.15"/><line class="cls-34" x1="130.72" y1="160.35" x2="128.95" y2="168.99"/><line class="cls-34" x1="163.52" y1="159.81" x2="166.32" y2="169.53"/><line class="cls-34" x1="166.32" y1="159.38" x2="168.03" y2="169.22"/><line class="cls-34" x1="169.09" y1="158.88" x2="170.13" y2="168.93"/><path class="cls-34" d="M161.7,159.45s2.81.6,8.79-1.48"/><path class="cls-34" d="M123.89,159.13a25.18,25.18,0,0,0,9.41,1"/><path class="cls-11" d="M154.05,64.14S143.82,81.9,139.2,94.74l3.69,1.42s8.48-24.4,14.3-30.32C157.19,65.84,157,63.07,154.05,64.14Z"/><path class="cls-11" d="M126.85,91.62l-13.07,28.7,20.1,9.76,14.55-34.63S134.71,91.42,126.85,91.62Z"/><line class="cls-41" x1="125.52" y1="94.38" x2="145.77" y2="99.43"/><circle class="cls-3" cx="137.48" cy="32.77" r="1.13"/><circle class="cls-3" cx="137.49" cy="35.13" r="1.91"/><circle class="cls-3" cx="136.77" cy="38.64" r="2.06"/><circle class="cls-3" cx="138.75" cy="37.53" r="1.26"/><circle class="cls-3" cx="135.38" cy="41.37" r="0.98"/><circle class="cls-3" cx="136.64" cy="40.89" r="1.26"/><circle class="cls-3" cx="135.12" cy="42.35" r="0.72"/><path class="cls-42" d="M172.3,163.91s2.5-.31,3.54,1.48"/><path class="cls-42" d="M173.63,161.71s2.5-.3,3.53,1.49"/><path class="cls-42" d="M131.55,166.92s2.37.84,2.5,2.91"/><path class="cls-42" d="M133.71,165.55s2.38.84,2.5,2.91"/><path class="cls-43" d="M215.85,73.6a42.2,42.2,0,0,0,0,5.77c.24,2.29-1.34,1.9-1.34,1.9s.79,8.06,9.33,8.14S231,82.69,231,82.69a10.63,10.63,0,0,0,1.74-2.21,3.53,3.53,0,0,0-1.12-3.84c-1.67-1.17-2.53,1.1-3.69,1.89,0-1.8.2-3.61.3-5.41Z"/><rect class="cls-11" x="217.07" y="75.88" width="1.3" height="3.38" rx="0.65" transform="translate(-3.11 9.36) rotate(-2.45)"/><path class="cls-38" d="M216.65,83.94l3.43-.91a2.93,2.93,0,0,1-1.52,3.43A4.37,4.37,0,0,1,216.65,83.94Z"/><path class="cls-33" d="M220.1,60.93l-.53.38a16.09,16.09,0,0,0-5.76,9.08c-.06.32-.44,3.12-.06,3.2,0,0,15.92,3.35,26.64-1.84a13,13,0,0,0-2.09-7.83C234,57.92,225.34,57.41,220.1,60.93Z"/><path class="cls-11" d="M223.7,74.65a4.39,4.39,0,0,0,4.19,3.88s1-2.1,2-1.94,2.72-.81,2.77,1.54-1,3.38-1.68,4.56-.23,3.66-1.52,5,3.29.71,3.79-.46c0,0,.74.12.37.61s2.17-1.1,2.17-3.15c0,0,.92-.93.74.37,0,0,8.85-4.39,3.59-12.81C240.1,72.3,229,74.47,223.7,74.65Z"/><path class="cls-11" d="M213.68,73.68S212,77,215.61,78.07l.68-3.75Z"/><path class="cls-44" d="M213.81,70.39a59.29,59.29,0,0,0,25.91-1.23"/><path class="cls-31" d="M209.51,104.19l-4.22,4.67-7.46,8.58s-6.1,1.25-6.85,2.12,3.1,3.6,9.27,2.23c0,0,1.31.13,1.19-2.61l7.21-6,8.34-5.57A7.73,7.73,0,0,0,209.51,104.19Z"/><path class="cls-5" d="M221.08,103.4v15a4.42,4.42,0,0,0,4.41,4.41H239.3a4.4,4.4,0,0,0,4.07-2.72c2-4.94,5.26-15.57-.34-23.27a4.28,4.28,0,0,0-3.48-1.7H229.33A8.24,8.24,0,0,0,221.08,103.4Z"/><path class="cls-5" d="M217,92.06a7.8,7.8,0,0,1,5.83,6.27L225.4,97s-.17-5.63-4.71-6.27C220.69,90.69,218,89.78,217,92.06Z"/><path class="cls-5" d="M233.62,91a7.79,7.79,0,0,1,5,7l2.73-1s.54-5.61-3.88-6.82C237.46,90.06,234.91,88.82,233.62,91Z"/><path class="cls-5" d="M222.19,116.76a11.51,11.51,0,0,1-8,1.46,2.84,2.84,0,0,0-.68,2.62s8.15,2.77,10.8-2.42C224.29,118.42,224.69,117.24,222.19,116.76Z"/><path class="cls-45" d="M227.34,97.91s-.56,24.9-.56,27.46"/><rect class="cls-46" x="229.56" y="108.5" width="12.96" height="11.87" rx="3.7"/><line class="cls-46" x1="230.73" y1="103.09" x2="242.53" y2="103.09"/><rect class="cls-3" x="239.88" y="103.09" width="1.67" height="3.59" rx="0.84"/><circle class="cls-11" cx="236.22" cy="114.84" r="2.61"/><circle class="cls-11" cx="233.95" cy="112.8" r="1.39"/><circle class="cls-11" cx="238.49" cy="112.8" r="1.39"/><path class="cls-47" d="M212.85,142.37A31.6,31.6,0,0,0,228,143.64"/><path class="cls-47" d="M233.3,144a31.52,31.52,0,0,0,14.83-3.31"/><circle class="cls-39" cx="223.73" cy="81.03" r="3.4"/><polygon class="cls-16" points="145.77 94.72 129.83 128.12 133.88 130.08 148.43 95.45 145.77 94.72"/><g class="cls-2"><polygon class="cls-3" points="182.49 12.93 182.49 11.64 53.93 11.64 0 105.05 53.93 105.05 107.87 105.05 127.82 105.05 182.49 105.05 235.68 105.05 182.49 12.93"/><g class="cls-4"><polygon class="cls-5" points="2.83 103.42 54.88 13.27 180.86 13.27 180.86 103.42 2.83 103.42"/><path class="cls-3" d="M179.23,14.9v86.89H5.66L55.82,14.9H179.23m3.26-3.26H53.93L0,105.05H182.49V11.64Z"/><polygon class="cls-5" points="130.65 103.42 181.75 14.9 232.86 103.42 130.65 103.42"/><path class="cls-3" d="M181.75,18.17,230,101.79H133.47l48.28-83.62m0-6.53-53.93,93.41H235.68L181.75,11.64Z"/><line class="cls-6" x1="181.75" y1="16.72" x2="181.75" y2="105.05"/></g><rect class="cls-7" x="55.16" y="33.15" width="76.83" height="40.73" rx="4.31"/><g class="cls-8"><line class="cls-9" x1="75.21" y1="1.2" x2="52.24" y2="109.57"/><line class="cls-9" x1="70.27" y1="0.15" x2="47.3" y2="108.52"/><line class="cls-9" x1="85.09" y1="3.29" x2="62.13" y2="111.66"/><line class="cls-9" x1="80.15" y1="2.25" x2="57.19" y2="110.62"/><line class="cls-9" x1="94.98" y1="5.39" x2="72.01" y2="113.76"/><line class="cls-9" x1="90.03" y1="4.34" x2="67.07" y2="112.71"/><line class="cls-9" x1="104.86" y1="7.48" x2="81.89" y2="115.85"/><line class="cls-9" x1="99.92" y1="6.43" x2="76.95" y2="114.81"/><line class="cls-9" x1="114.74" y1="9.58" x2="91.77" y2="117.95"/><line class="cls-9" x1="109.8" y1="8.53" x2="86.83" y2="116.9"/><line class="cls-9" x1="124.62" y1="11.67" x2="101.66" y2="120.04"/><line class="cls-9" x1="119.68" y1="10.62" x2="96.72" y2="118.99"/><line class="cls-9" x1="134.51" y1="13.76" x2="111.54" y2="122.14"/><line class="cls-9" x1="129.57" y1="12.72" x2="106.6" y2="121.09"/><line class="cls-9" x1="144.39" y1="15.86" x2="121.42" y2="124.23"/><line class="cls-9" x1="139.45" y1="14.81" x2="116.48" y2="123.18"/><line class="cls-10" x1="26.06" y1="86.12" x2="149.93" y2="112.38"/><line class="cls-10" x1="25.01" y1="91.07" x2="148.88" y2="117.32"/><line class="cls-10" x1="28.15" y1="76.24" x2="152.02" y2="102.49"/><line class="cls-10" x1="27.1" y1="81.18" x2="150.98" y2="107.43"/><line class="cls-10" x1="30.24" y1="66.36" x2="154.12" y2="92.61"/><line class="cls-10" x1="29.2" y1="71.3" x2="153.07" y2="97.55"/><line class="cls-10" x1="32.34" y1="56.48" x2="156.21" y2="82.73"/><line class="cls-10" x1="31.29" y1="61.42" x2="155.16" y2="87.67"/><line class="cls-10" x1="34.43" y1="46.59" x2="158.31" y2="72.85"/><line class="cls-10" x1="33.39" y1="51.54" x2="157.26" y2="77.79"/><line class="cls-10" x1="36.53" y1="36.71" x2="160.4" y2="62.96"/><line class="cls-10" x1="35.48" y1="41.65" x2="159.35" y2="67.9"/><line class="cls-10" x1="38.62" y1="26.83" x2="162.49" y2="53.08"/><line class="cls-10" x1="37.58" y1="31.77" x2="161.45" y2="58.02"/><line class="cls-10" x1="40.72" y1="16.95" x2="164.59" y2="43.2"/><line class="cls-10" x1="39.67" y1="21.89" x2="163.54" y2="48.14"/></g><rect class="cls-11" x="50.36" y="30.2" width="87" height="7.96" rx="3.98"/><rect class="cls-12" x="55.16" y="33.15" width="76.83" height="40.73" rx="4.31"/><rect class="cls-3" x="53.19" y="28.58" width="3.94" height="11.5" rx="1.97"/><rect class="cls-3" x="130.02" y="28.58" width="3.94" height="11.5" rx="1.97"/><line class="cls-13" x1="55.16" y1="34.33" x2="131.99" y2="34.33"/><path class="cls-11" d="M168,65.27,150,88.76a1,1,0,0,0,.76,1.54h18a1,1,0,0,0,1-1V65.85A1,1,0,0,0,168,65.27Z"/><path class="cls-11" d="M194.68,65.27l18,23.49a1,1,0,0,1-.76,1.54h-18a1,1,0,0,1-1-1V65.85A1,1,0,0,1,194.68,65.27Z"/><rect class="cls-11" x="40.06" y="76.79" width="2.48" height="28.56" transform="translate(-1.07 0.49) rotate(-0.68)"/><rect class="cls-11" x="22.66" y="76.99" width="2.48" height="28.56" transform="matrix(1, -0.01, 0.01, 1, -1.08, 0.29)"/><rect class="cls-11" x="31.54" y="73.6" width="1.43" height="25.86" transform="translate(-52.19 49.15) rotate(-45.68)"/><rect class="cls-11" x="31.54" y="73.6" width="1.43" height="25.86" transform="translate(-5.13 170.98) rotate(-135.68)"/><circle class="cls-11" cx="33.02" cy="66.54" r="9.12"/><g class="cls-14"><path class="cls-15" d="M21.88,62.08S35.79,59,38.38,75.67"/><path class="cls-15" d="M34,55.85S38.51,66.3,43.67,67"/></g><rect class="cls-16" x="19.44" y="74.45" width="26.16" height="3.96" rx="1.98"/><rect class="cls-11" x="164.56" y="41.41" width="36.72" height="16.01" rx="4.9"/><text class="cls-17" transform="translate(169.68 51.61)">Ｎ<tspan class="cls-18" x="6.59" y="0">O</tspan><tspan class="cls-19" x="11.37" y="0">.23</tspan></text></g><rect class="cls-11" x="88.2" y="88.3" width="50.67" height="4.4" rx="2.2"/><path class="cls-20" d="M76.77,123.26c1.69-4.08,2.76-17.73,2.76-17.73a8.71,8.71,0,0,0-9.11.7s.8,18.71.93,18.78c-1.36,1.92-1.2,2-1.66,5.72,0,0,9.63.77,13.5-1.37C83.19,129.36,81.55,124.15,76.77,123.26Z"/><path class="cls-21" d="M65.42,58.34H78.08a0,0,0,0,1,0,0V82.68a0,0,0,0,1,0,0H65.42a3.74,3.74,0,0,1-3.74-3.74V62.09A3.74,3.74,0,0,1,65.42,58.34Z"/><path class="cls-21" d="M81.82,58.34H94.48a0,0,0,0,1,0,0V82.68a0,0,0,0,1,0,0H81.82a3.74,3.74,0,0,1-3.74-3.74V62.09a3.74,3.74,0,0,1,3.74-3.74Z" transform="translate(172.55 141.02) rotate(-180)"/><rect class="cls-5" x="80.39" y="61.83" width="7.81" height="5.99" rx="2.99"/><rect class="cls-5" x="64.6" y="70.1" width="11.94" height="9.15" rx="4.58"/><rect class="cls-5" x="80.93" y="69.04" width="10.96" height="0.84" rx="0.42"/><rect class="cls-5" x="64.39" y="66.39" width="10.96" height="0.84" rx="0.42"/><rect class="cls-5" x="64.39" y="63.73" width="10.96" height="0.84" rx="0.42"/><rect class="cls-5" x="64.39" y="61.07" width="10.96" height="0.84" rx="0.42"/><rect class="cls-11" x="80.93" y="70.86" width="4.2" height="0.84" rx="0.26"/><rect class="cls-11" x="66.59" y="68.62" width="8.76" height="0.84" rx="0.37"/><rect class="cls-11" x="80.93" y="72.94" width="8.04" height="0.84" rx="0.36"/><rect class="cls-11" x="80.93" y="75.02" width="4.2" height="0.84" rx="0.26"/><rect class="cls-11" x="80.93" y="77.1" width="8.04" height="0.84" rx="0.36"/><path class="cls-22" d="M55.73,102.14c-.38.48,1,2.69,1.22,3a10.18,10.18,0,0,0,6.82,4.09,27.18,27.18,0,0,0,12.93-1.09,36.58,36.58,0,0,0,6-2.52c.6-.32,3.85-1.28,3.92-2,0,0,.72-6.48-2.05-10.54C84.6,93.15,67,88.23,55.73,102.14Z"/><path class="cls-23" d="M57.69,56.53v5.79s4.63,1.24,6.12,0l.79-5.79A32.72,32.72,0,0,0,57.69,56.53Z"/><path class="cls-11" d="M56.41,48.9s-7,4.48-5,12.94c0,0,.12,2.46,3.09,4.55a1.27,1.27,0,0,1,.32,2.32s3.16.05,2.26-2c0,0,1.83,1.38,1.09,2.13,0,0,1.68-.72,1.68-1.91,0,0,.53,1.63,0,2.16,0,0,2.9-.52,2.9-2l-.3,1.86s3.11-.6,3.11-1.87l-.36,1.84s8.17-2.93,7.39-11.29C71.74,48.74,62.32,45.68,56.41,48.9Z"/><path class="cls-11" d="M57.28,70.48s-7,2.91-8.43,10.09,1.8,20.52,7.27,22.4c0,0,17.18-1.88,19.23-8,0,0-6.66-9.57-6.66-12.74,0,0,5.38-1.19,5.89-3.16C74.58,79.12,69.56,67.07,57.28,70.48Z"/><path class="cls-24" d="M66.59,83.15s7.32,6.66,10,6.85,17.67-9.24,17.67-9.24,3.3-.21,3.63-2.78-1.52-7-4.49-4l-.26,3-15.3,6.49-5.44-4.53S67.58,80.51,66.59,83.15Z"/><path class="cls-3" d="M79.78,96.16a2.79,2.79,0,0,1-.7,1.68,2.79,2.79,0,0,1-.7-1.68c0-.94.31-1.69.7-1.69S79.78,95.22,79.78,96.16Z"/><path class="cls-3" d="M81.72,97.6a2.8,2.8,0,0,1-1.68.7,2.77,2.77,0,0,1,.69-1.69c.66-.65,1.42-1,1.69-.69S82.38,97,81.72,97.6Z"/><path class="cls-3" d="M82.07,100a2.79,2.79,0,0,1-1.68-.7,2.79,2.79,0,0,1,1.68-.7c.93,0,1.69.32,1.69.7S83,100,82.07,100Z"/><path class="cls-3" d="M80.62,102a2.85,2.85,0,0,1-.69-1.69,2.78,2.78,0,0,1,1.68.7c.66.65,1,1.41.7,1.68S81.28,102.61,80.62,102Z"/><path class="cls-3" d="M78.22,102.3a2.81,2.81,0,0,1,.71-1.69,2.83,2.83,0,0,1,.7,1.69c0,.93-.32,1.68-.7,1.68S78.22,103.23,78.22,102.3Z"/><path class="cls-3" d="M76.28,100.85a2.82,2.82,0,0,1,1.69-.7,2.82,2.82,0,0,1-.7,1.69c-.66.66-1.41,1-1.69.7S75.62,101.51,76.28,100.85Z"/><path class="cls-3" d="M75.93,98.45a2.83,2.83,0,0,1,1.69.7,2.83,2.83,0,0,1-1.69.7c-.93,0-1.68-.31-1.68-.7S75,98.45,75.93,98.45Z"/><path class="cls-3" d="M77.38,96.51a2.78,2.78,0,0,1,.7,1.68,2.85,2.85,0,0,1-1.69-.69c-.66-.66-1-1.42-.7-1.69S76.72,95.85,77.38,96.51Z"/><path class="cls-3" d="M69.49,102.24a2.13,2.13,0,0,1-.52,1.27,2.12,2.12,0,0,1-.53-1.27c0-.7.24-1.27.53-1.27S69.49,101.54,69.49,102.24Z"/><path class="cls-3" d="M71,103.33a2.11,2.11,0,0,1-1.27.53,2.16,2.16,0,0,1,.52-1.28c.5-.49,1.07-.73,1.27-.52S71.46,102.83,71,103.33Z"/><path class="cls-3" d="M71.22,105.14a2.12,2.12,0,0,1-1.27-.53,2.12,2.12,0,0,1,1.27-.53c.71,0,1.27.24,1.27.53S71.93,105.14,71.22,105.14Z"/><path class="cls-3" d="M70.13,106.6a2.12,2.12,0,0,1-.52-1.27,2.11,2.11,0,0,1,1.27.53c.49.49.73,1.06.52,1.27S70.63,107.1,70.13,106.6Z"/><path class="cls-3" d="M68.32,106.87a2.12,2.12,0,0,1,.53-1.27,2.12,2.12,0,0,1,.53,1.27c0,.7-.24,1.27-.53,1.27S68.32,107.57,68.32,106.87Z"/><path class="cls-3" d="M66.86,105.77a2.12,2.12,0,0,1,1.27-.52,2.12,2.12,0,0,1-.52,1.27c-.5.5-1.07.73-1.28.53S66.36,106.27,66.86,105.77Z"/><path class="cls-3" d="M66.59,104a2.14,2.14,0,0,1,1.28.52,2.12,2.12,0,0,1-1.28.53c-.7,0-1.27-.23-1.27-.53S65.89,104,66.59,104Z"/><path class="cls-3" d="M67.69,102.5a2.14,2.14,0,0,1,.52,1.27,2.14,2.14,0,0,1-1.27-.52c-.5-.5-.73-1.07-.53-1.27S67.19,102,67.69,102.5Z"/><path class="cls-20" d="M93,124.24c2.89-8.75,6.32-28.67,3.84-30.11-5-2.87-13-.53-13-.53C82,96.45,85.67,103,85.67,103l3.63-1.46c-2.14,3.49-2,19.34-2,23.24a6.36,6.36,0,0,0-1.26,5.78s9.38,2.53,14.07-.59C100.13,129.94,97.09,124.94,93,124.24Z"/><rect class="cls-11" x="68.5" y="128.61" width="15.86" height="2.89" rx="1.44"/><path class="cls-11" d="M100.13,131.93l-14,.37a1.44,1.44,0,0,1-1.45-1.44h0a1.45,1.45,0,0,1,1.45-1.44l14-.37a1.45,1.45,0,0,1,1.44,1.44h0A1.45,1.45,0,0,1,100.13,131.93Z"/><path class="cls-25" d="M94.49,125s1.27,2.78,1.08,4"/><path class="cls-25" d="M77.6,123.81s2,4,1.79,5.24"/><rect class="cls-11" x="102.46" y="91.93" width="1.89" height="34.97"/><rect class="cls-11" x="53.92" y="102.03" width="2.39" height="19.4"/><rect class="cls-11" x="77.73" y="112.1" width="2.39" height="19.4"/><rect class="cls-16" x="50.36" y="107.2" width="33.4" height="7.27" rx="3.63"/><path class="cls-3" d="M107.05,91h-.57a3.09,3.09,0,0,1-3.08-3.07v-9.6a3.09,3.09,0,0,1,3.08-3.07h.57a3.08,3.08,0,0,1,3.07,3.07v9.6A3.08,3.08,0,0,1,107.05,91Z"/><line class="cls-26" x1="108.49" y1="79.61" x2="104.15" y2="79.61"/><line class="cls-26" x1="108.49" y1="82.26" x2="104.15" y2="82.26"/><line class="cls-26" x1="108.49" y1="84.92" x2="104.15" y2="84.92"/><line class="cls-26" x1="108.49" y1="87.58" x2="104.15" y2="87.58"/><rect class="cls-11" x="104.84" y="74.35" width="3.52" height="2.16" rx="1.08"/><rect class="cls-11" x="145.51" y="103.79" width="1.89" height="30.93"/><rect class="cls-27" x="126.47" y="55.94" width="47.68" height="30.13" transform="translate(7.47 -14.03) rotate(5.48)"/><path class="cls-3" d="M153.33,64.07a13.54,13.54,0,0,0,6.41-1.87c2.8-1.82,6.92-3.85,7.61.94s1.3,5.51,2.4,5.9-3.49,4.15-6.52,4.15S153.33,64.07,153.33,64.07Z"/><path class="cls-3" d="M161.11,76s7.27-2.3,8.41-4.07,4.46,7.66-5.83,12.21Z"/><rect class="cls-11" x="194.59" y="94.95" width="2.35" height="30.69" rx="1.17" transform="translate(-14.99 32.38) rotate(-9.11)"/><rect class="cls-28" x="174.86" y="98.59" width="21.31" height="15.39" rx="3.24" transform="translate(-14.49 30.71) rotate(-9.11)"/><text class="cls-48" transform="translate(177.27 109.26) rotate(-9.11)">Ｇ<tspan class="cls-49" x="3.38" y="0">Ｏ</tspan><tspan x="6.73" y="0">Ｇ</tspan><tspan class="cls-50" x="10.1" y="0">Ｏ</tspan></text><path class="cls-30" d="M211.37,165.31s-3.73-3.19-5.64-2.4-5.36,4.44-2.52,7.22,7.12,6.48,12.95,4.62c0,0,4.12-4.51,1.18-7.53Z"/><path class="cls-31" d="M216.49,137.73l-2.1,12.51-3.3,15.5s4.65,4.44,6.62,1.44c0,0,4.69-12.22,4.08-15.1,0,0,4.53-8.05,5-12C226.78,140.11,220.14,137,216.49,137.73Z"/><path class="cls-11" d="M202.44,166.29s4.43,5.61,7,6.32,5.76,1.57,7.69.78c0,0,.61,1.33-2.89,1.78a11.21,11.21,0,0,1-7.92-2.34C205,171.78,201.67,170,202.44,166.29Z"/><path class="cls-30" d="M243.3,168.41s-4.88-.56-6,1.16-2,6.68,1.94,7.39,9.52,1.41,13.32-3.39c0,0,.9-6-3.22-6.91Z"/><path class="cls-31" d="M232.14,142.68l5.25,11.55,5.91,14.69s6.34,1.09,6.3-2.5c0,0-2.94-12.76-5-14.8,0,0-.73-9.21-2.55-12.72C242,138.9,234.77,140.06,232.14,142.68Z"/><path class="cls-11" d="M236.43,174.21s6.81,2.18,9.37,1.32,5.66-1.92,6.82-3.65c0,0,1.24.76-1.41,3.09a11.27,11.27,0,0,1-7.88,2.49C241.64,177.33,237.84,177.68,236.43,174.21Z"/><path class="cls-31" d="M213.37,125.91l-2.28,18.9a26.49,26.49,0,0,0,19.08,1.09l.56-9.35.58,9.58s13,2.74,17.71-3.43l-5-17.33Z"/><path class="cls-31" d="M244.49,101.42l8.46,7.93,5,4.42s14,1,4.32,4.54c-7.22,2.67-7.22-1.74-7.22-1.74L247,111l-6.6-4.62Z"/><path class="cls-11" d="M221.47,90.6s-7.39,0-14.91,12.53c0,0,3.26,7.23,10.39,7.14,0,0-4.72,13.28-4.81,17s29.5,7.93,34-2.41l-3.83-18a11.53,11.53,0,0,0,5.44-4.81S238,86,221.47,90.6Z"/><path class="cls-32" d="M222.82,89.19l.65,2.76A4.64,4.64,0,0,0,227.13,94c2.34,0,3.6-2.38,3.6-2.38l-.58-4.14S223.66,90.1,222.82,89.19Z"/><path class="cls-33" d="M215.86,68s-7.43.06-8.23,2.35,5.69,4.34,14.91,4.09S215.86,68,215.86,68Z"/><path class="cls-11" d="M164.52,167.91s5.88.41,7.16-3.18c.52-1.46,3.15-6.4,7.78-4.93s4.35,6.92-.37,10.31c-2.11,1.51-3.35,3.4-5.3,5.11-2.19,1.93-6.91,3-9.68,1.51C162.64,175.92,162.13,168.07,164.52,167.91Z"/><path class="cls-31" d="M150.31,120.28l8.27,19.93s2.19,17.47,4.28,23.25,3.06,5.53,6.87,4.35c5.05-1.56-3.41-28.91-3.41-28.91l-4.18-21Z"/><path class="cls-31" d="M131.31,117.86l-1.94,21s-5.05,16.72-5.7,22.86c-.18,6.74-.88,8.89,4.17,9.33,3.95.35,9.55-29.47,9.55-29.47l5.5-20.24Z"/><path class="cls-32" d="M132.25,100.85l-6.73,16.83s3.61,8,19,4.33l-1.14-17.72L144.54,122s12.82,3.12,21.49-4.64l-6.61-17S139.84,97.3,132.25,100.85Z"/><line class="cls-3" x1="154.51" y1="99.79" x2="159.28" y2="121.28"/><line class="cls-34" x1="154.51" y1="99.79" x2="154.65" y2="100.41"/><line class="cls-35" x1="154.91" y1="101.61" x2="159.01" y2="120.05"/><line class="cls-34" x1="159.14" y1="120.65" x2="159.28" y2="121.28"/><path class="cls-32" d="M156.57,83s3.26,13.94,10.48,12.3,10.53-19.4,10.53-19.4l.82-5.65-5-3.08s-2.29,1.61-.6,3.55,1.7,1.31,1,2.77a4.66,4.66,0,0,0-.17,4.09c.59,1.27-6.14,8.76-6.14,8.76l-2.44-6.15A11.39,11.39,0,0,0,156.57,83Z"/><path class="cls-32" d="M129.65,76.84s-9.49,12.12-2.8,14.78,8.86-4.85,8.86-4.85S140.89,75.89,129.65,76.84Z"/><path class="cls-36" d="M123,76.78s10.86-14.24,19.53-14.17c4.91,0,9.35-.89,16.64,4.58,2.95,2.2,6.39,8.58,8.37,14.3,0,0-5.35,1.87-9.63,3.21L160.71,102s-23.68,3.81-29.81,0l2.56-17.07S123,83.73,123,76.78Z"/><path class="cls-37" d="M143.45,58.69l-1.76,6.13s6.44,2.6,9.42.38l.11-3.73S147.34,56.92,143.45,58.69Z"/><path class="cls-32" d="M158.79,38.66a13.29,13.29,0,0,1,1.3,8.57c-.93,4.78.62,4.68,1.36,5.23S158.3,63,153.66,62.11s-7.67-2.86-8.78-6.76c0,0-3.94-1.49-1.73-5.61,1.95-3.63,4.36.31,4.36.31s-2.11-7.83.11-9.23S157.68,35.73,158.79,38.66Z"/><rect class="cls-11" x="155.49" y="47.27" width="1.27" height="3.18" rx="0.64" transform="translate(16.27 -36.02) rotate(13.88)"/><path class="cls-38" d="M158.68,56.49l-4.79-1.71s-2,3.4,2.2,5C156.64,60,158,58.84,158.68,56.49Z"/><path class="cls-11" d="M145.33,48.93s.92,3.72,3.41,4.49c0,0-1-7.25-.29-8.66a1.6,1.6,0,0,1,1.33,1.65s1.61-.2,1.41-2.45c0,0,1,1.81.68,2.65,0,0,2.13-.48,1.81-3.18,0,0,1.89,1.37,1.16,2.86,0,0,2,0,1.57-3,0,0,2.19,2.39,1.37,3.78,0,0,2.41-1.33,1.53-3.38,0,0,1.16,2.62,0,3.22,0,0,8.72-9-4.45-16.57,0,0-13.94-3.53-19.83,3.67s-5.24,15,.45,20.44,11.29,4.28,11.29,4.28l-1.89-3.36s-2.38-.93-2.4-2.25a13.13,13.13,0,0,1,.67-3.36s.63-1.36,1.48-1.29S145.33,48.93,145.33,48.93Z"/><path class="cls-11" d="M137.87,32.77s-16.33-7.51-18.5,9.25S132.21,58.24,127.53,61,122,63.57,122,63.57a19.74,19.74,0,0,0,5.64-.11,8.41,8.41,0,0,0,3.86-1.5c1.67-1.32,1.54-3.53,1.76-5.46a1.14,1.14,0,0,1,.13-.51c.62-1,1,1.27,1,1.55a7.53,7.53,0,0,1-2.19,5.71c-.32.35-1.16,1.5-1.61,1.57,0,0,12.65-1.59,9.12-9.62C137.37,49.82,137.87,32.77,137.87,32.77Z"/><path class="cls-36" d="M152.05,69.42s-2.22,5.77,3.08,15.06a2.8,2.8,0,0,0,2.73.22"/><line class="cls-36" x1="133.88" y1="82.11" x2="136.9" y2="69.71"/><circle class="cls-39" cx="151.22" cy="53.16" r="3.29"/><path class="cls-40" d="M133.06,98.55s16.23,2.69,25.43,0"/><path class="cls-40" d="M133.06,92.92s14.64,2.69,23.83,0"/><path class="cls-40" d="M134.69,87.89s12.69,2.57,21.88-.12"/><path class="cls-40" d="M136.35,82.41a75.45,75.45,0,0,0,16.11.28"/><path class="cls-40" d="M136.9,76.78s4.79,1.61,13.86.54"/><path class="cls-11" d="M123.54,167.74s6.62,1.48,6.7,0,5.1-4.34,8.87-1.15,1.57,8.12-4,9.41c-2.5.58-4.51,2.75-7,3.14s-5.77.31-7.34-2.15C119.8,175.55,121.27,167,123.54,167.74Z"/><path class="cls-36" d="M170.49,155.14c-.06.05,1.41,9.58,1.2,12.72-1.59,1.13-4.54,1.07-6.68,1.07-.94,0-3.25-9.2-3.86-11.83C161.14,157.07,168.66,156.59,170.49,155.14Z"/><path class="cls-36" d="M124.26,156.56a18.34,18.34,0,0,0,9.62,1.09s-2.31,10.15-3.32,11.19c0,0-6.59,1.37-7.07-.35A77.87,77.87,0,0,1,124.26,156.56Z"/><line class="cls-34" x1="125.55" y1="159.81" x2="125.13" y2="169.02"/><line class="cls-34" x1="127.91" y1="160.1" x2="126.7" y2="170.15"/><line class="cls-34" x1="130.72" y1="160.35" x2="128.95" y2="168.99"/><line class="cls-34" x1="163.52" y1="159.81" x2="166.32" y2="169.53"/><line class="cls-34" x1="166.32" y1="159.38" x2="168.03" y2="169.22"/><line class="cls-34" x1="169.09" y1="158.88" x2="170.13" y2="168.93"/><path class="cls-34" d="M161.7,159.45s2.81.6,8.79-1.48"/><path class="cls-34" d="M123.89,159.13a25.18,25.18,0,0,0,9.41,1"/><path class="cls-11" d="M154.05,64.14S143.82,81.9,139.2,94.74l3.69,1.42s8.48-24.4,14.3-30.32C157.19,65.84,157,63.07,154.05,64.14Z"/><path class="cls-11" d="M126.85,91.62l-13.07,28.7,20.1,9.76,14.55-34.63S134.71,91.42,126.85,91.62Z"/><line class="cls-41" x1="125.52" y1="94.38" x2="145.77" y2="99.43"/><circle class="cls-3" cx="137.48" cy="32.77" r="1.13"/><circle class="cls-3" cx="137.49" cy="35.13" r="1.91"/><circle class="cls-3" cx="136.77" cy="38.64" r="2.06"/><circle class="cls-3" cx="138.75" cy="37.53" r="1.26"/><circle class="cls-3" cx="135.38" cy="41.37" r="0.98"/><circle class="cls-3" cx="136.64" cy="40.89" r="1.26"/><circle class="cls-3" cx="135.12" cy="42.35" r="0.72"/><path class="cls-42" d="M172.3,163.91s2.5-.31,3.54,1.48"/><path class="cls-42" d="M173.63,161.71s2.5-.3,3.53,1.49"/><path class="cls-42" d="M131.55,166.92s2.37.84,2.5,2.91"/><path class="cls-42" d="M133.71,165.55s2.38.84,2.5,2.91"/><path class="cls-43" d="M215.85,73.6a42.2,42.2,0,0,0,0,5.77c.24,2.29-1.34,1.9-1.34,1.9s.79,8.06,9.33,8.14S231,82.69,231,82.69a10.63,10.63,0,0,0,1.74-2.21,3.53,3.53,0,0,0-1.12-3.84c-1.67-1.17-2.53,1.1-3.69,1.89,0-1.8.2-3.61.3-5.41Z"/><rect class="cls-11" x="217.07" y="75.88" width="1.3" height="3.38" rx="0.65" transform="translate(-3.11 9.36) rotate(-2.45)"/><path class="cls-38" d="M216.65,83.94l3.43-.91a2.93,2.93,0,0,1-1.52,3.43A4.37,4.37,0,0,1,216.65,83.94Z"/><path class="cls-33" d="M220.1,60.93l-.53.38a16.09,16.09,0,0,0-5.76,9.08c-.06.32-.44,3.12-.06,3.2,0,0,15.92,3.35,26.64-1.84a13,13,0,0,0-2.09-7.83C234,57.92,225.34,57.41,220.1,60.93Z"/><path class="cls-11" d="M223.7,74.65a4.39,4.39,0,0,0,4.19,3.88s1-2.1,2-1.94,2.72-.81,2.77,1.54-1,3.38-1.68,4.56-.23,3.66-1.52,5,3.29.71,3.79-.46c0,0,.74.12.37.61s2.17-1.1,2.17-3.15c0,0,.92-.93.74.37,0,0,8.85-4.39,3.59-12.81C240.1,72.3,229,74.47,223.7,74.65Z"/><path class="cls-11" d="M213.68,73.68S212,77,215.61,78.07l.68-3.75Z"/><path class="cls-44" d="M213.81,70.39a59.29,59.29,0,0,0,25.91-1.23"/><path class="cls-31" d="M209.51,104.19l-4.22,4.67-7.46,8.58s-6.1,1.25-6.85,2.12,3.1,3.6,9.27,2.23c0,0,1.31.13,1.19-2.61l7.21-6,8.34-5.57A7.73,7.73,0,0,0,209.51,104.19Z"/><path class="cls-5" d="M221.08,103.4v15a4.42,4.42,0,0,0,4.41,4.41H239.3a4.4,4.4,0,0,0,4.07-2.72c2-4.94,5.26-15.57-.34-23.27a4.28,4.28,0,0,0-3.48-1.7H229.33A8.24,8.24,0,0,0,221.08,103.4Z"/><path class="cls-5" d="M217,92.06a7.8,7.8,0,0,1,5.83,6.27L225.4,97s-.17-5.63-4.71-6.27C220.69,90.69,218,89.78,217,92.06Z"/><path class="cls-5" d="M233.62,91a7.79,7.79,0,0,1,5,7l2.73-1s.54-5.61-3.88-6.82C237.46,90.06,234.91,88.82,233.62,91Z"/><path class="cls-5" d="M222.19,116.76a11.51,11.51,0,0,1-8,1.46,2.84,2.84,0,0,0-.68,2.62s8.15,2.77,10.8-2.42C224.29,118.42,224.69,117.24,222.19,116.76Z"/><path class="cls-45" d="M227.34,97.91s-.56,24.9-.56,27.46"/><rect class="cls-46" x="229.56" y="108.5" width="12.96" height="11.87" rx="3.7"/><line class="cls-46" x1="230.73" y1="103.09" x2="242.53" y2="103.09"/><rect class="cls-3" x="239.88" y="103.09" width="1.67" height="3.59" rx="0.84"/><circle class="cls-11" cx="236.22" cy="114.84" r="2.61"/><circle class="cls-11" cx="233.95" cy="112.8" r="1.39"/><circle class="cls-11" cx="238.49" cy="112.8" r="1.39"/><path class="cls-47" d="M212.85,142.37A31.6,31.6,0,0,0,228,143.64"/><path class="cls-47" d="M233.3,144a31.52,31.52,0,0,0,14.83-3.31"/><circle class="cls-39" cx="223.73" cy="81.03" r="3.4"/><polygon class="cls-16" points="145.77 94.72 129.83 128.12 133.88 130.08 148.43 95.45 145.77 94.72"/></g></g></svg>