<svg xmlns="http://www.w3.org/2000/svg" viewBox="0 0 141.85 91.54"><defs><style>.cls-1{fill:#bdbdbd;}</style></defs><title>資產 27</title><g id="圖層_2" data-name="圖層 2"><g id="圖層_1-2" data-name="圖層 1"><path class="cls-1" d="M92.65,1.6A4.56,4.56,0,0,0,89.44,0H61c-1,0-1,.76-.54,1.64L110.74,89a2.21,2.21,0,0,0,2.65.64l27.43-8.67a1.52,1.52,0,0,0,.78-2.3Z"/><path class="cls-1" d="M24.46,89l24.27-51.8V87.3c0,4.49,4.75,4.23,5.76,4.23h47.29c1,0,1.42-1.62.92-2.5L53.84,2.42c-.5-.88-1.31-.88-1.81,0L39.8,23.9a7.69,7.69,0,0,1-2.5,2.48C24.92,33.25,8.23,42.42.83,45.66c-1.11.49-1,1.89-.18,2.73A83.49,83.49,0,0,1,9,58.11a51,51,0,0,1,4.86,8.31,4,4,0,0,1-.15,3.25L3.22,89c-.49.88-.08,2.5.93,2.5H21.8C22.81,91.53,24,89.89,24.46,89ZM10.34,49.08a.69.69,0,0,1,.14-1.22C15.69,45.14,40.32,32.2,47.17,28c.52-.32.71-.15.43.39L24.25,74.3c-.27.54-.59.49-.72-.1C22.65,70.32,19.09,56.81,10.34,49.08Z"/></g></g></svg>