<svg xmlns="http://www.w3.org/2000/svg" viewBox="0 0 186.45 144.56"><defs><style>.cls-1{fill:none;stroke-width:2.83px;}.cls-1,.cls-3,.cls-5,.cls-6,.cls-7,.cls-9{stroke:#4ba795;stroke-linecap:round;stroke-linejoin:round;}.cls-2{fill:#4ba795;}.cls-3,.cls-5,.cls-6,.cls-7,.cls-8,.cls-9{fill:#ffe97b;}.cls-3{stroke-width:0.94px;}.cls-4{fill:#2a7682;}.cls-5{stroke-width:0.77px;}.cls-6{stroke-width:0.73px;}.cls-7{stroke-width:0.45px;}.cls-9{stroke-width:0.46px;}</style></defs><title>資產 18</title><g id="圖層_2" data-name="圖層 2"><g id="D"><path class="cls-1" d="M146.35,135.75S179.13,53.57,157.06,9.88"/><path class="cls-2" d="M155.5,12.73a12.06,12.06,0,0,1,3.44,2.36c1.4,1.34,4.23,4.07,2.77,7.14-1.08,2.28-4.39,2.3-5.9,2.34A10.92,10.92,0,0,1,148,21.92c-1.43-1.33-4.16-4.48-2.74-7.49,1.06-2.22,3.55-2.45,5.14-2.59A10.17,10.17,0,0,1,155.5,12.73Z"/><path class="cls-2" d="M160.72,61.78a7.15,7.15,0,0,1,2.08,1.43c.85.82,2.56,2.49,1.66,4.38-.66,1.41-2.67,1.44-3.6,1.47a6.52,6.52,0,0,1-4.72-1.6c-.87-.81-2.52-2.74-1.64-4.59.65-1.38,2.17-1.53,3.14-1.62A6,6,0,0,1,160.72,61.78Z"/><path class="cls-2" d="M158.31,3.52a7.47,7.47,0,0,1,.6,2.45c.08,1.18.25,3.56-1.67,4.38-1.44.61-3-.71-3.67-1.3a6.55,6.55,0,0,1-2.47-4.34C151,3.53,151,1,152.93.2c1.4-.6,2.64.3,3.42.87A6.14,6.14,0,0,1,158.31,3.52Z"/><path class="cls-2" d="M154.45,101.91a7.24,7.24,0,0,1,1.53,2c.56,1,1.67,3.16.23,4.68-1.07,1.13-3,.54-3.88.28a6.56,6.56,0,0,1-4-3c-.57-1-1.54-3.38-.14-4.88,1.05-1.1,2.54-.78,3.48-.56A6.14,6.14,0,0,1,154.45,101.91Z"/><path class="cls-2" d="M175.27,36.45a10.44,10.44,0,0,1-3.37,1.81c-1.71.56-5.17,1.69-7.27-1-1.56-2-.3-4.81.26-6.11a9.28,9.28,0,0,1,5.31-5.37c1.7-.6,5.49-1.44,7.55,1.17,1.52,1.94.76,4.17.26,5.58A8.79,8.79,0,0,1,175.27,36.45Z"/><path class="cls-2" d="M163.3,119.87a10.49,10.49,0,0,1-3.38,1.81c-1.71.57-5.17,1.69-7.27-1-1.56-2-.3-4.8.26-6.1a9.27,9.27,0,0,1,5.31-5.38c1.71-.59,5.5-1.44,7.55,1.18,1.53,1.94.76,4.16.26,5.57A8.71,8.71,0,0,1,163.3,119.87Z"/><path class="cls-1" d="M124.54,98.81s8.59-14.48,25.61-15.12"/><path class="cls-1" d="M119.36,135.75s2.07-65,32.84-90"/><path class="cls-3" d="M144.14,35.87c4.35,0,10.09,3.53,10.09,7.88s-5.74,7.88-10.09,7.88-5.67-3.52-5.67-7.88S139.78,35.87,144.14,35.87Z"/><path class="cls-3" d="M164.33,51.63c-4.35,0-10.1-3.52-10.1-7.88s5.75-7.88,10.1-7.88S170,39.4,170,43.75,168.68,51.63,164.33,51.63Z"/><path class="cls-3" d="M162.12,33.66c0,4.35-3.53,10.09-7.89,10.09s-7.88-5.74-7.88-10.09S149.88,28,154.23,28,162.12,29.3,162.12,33.66Z"/><path class="cls-3" d="M146.35,53.85c0-4.35,3.53-10.1,7.88-10.1s7.89,5.75,7.89,10.1-3.53,5.67-7.89,5.67S146.35,58.2,146.35,53.85Z"/><circle class="cls-4" cx="154.23" cy="43.75" r="2.83"/><path class="cls-3" d="M139.34,78.74c4.13-1.37,10.69.17,12.06,4.3s-3,9.29-7.1,10.66-6.49-1.56-7.86-5.7S135.21,80.11,139.34,78.74Z"/><path class="cls-3" d="M163.47,87.35c-4.13,1.37-10.7-.17-12.07-4.31s3-9.28,7.11-10.65,6.49,1.56,7.86,5.7S167.6,86,163.47,87.35Z"/><path class="cls-3" d="M155.71,71c1.37,4.13-.17,10.69-4.31,12.06s-9.28-3-10.65-7.1,1.56-6.49,5.7-7.86S154.34,66.85,155.71,71Z"/><path class="cls-3" d="M147.1,95.11c-1.37-4.13.17-10.7,4.3-12.07s9.29,3,10.66,7.11-1.56,6.49-5.7,7.86S148.47,99.24,147.1,95.11Z"/><circle class="cls-4" cx="151.4" cy="83.04" r="2.83"/><path class="cls-1" d="M126.64,90.66s9.09-40.15-1.62-54.79"/><path class="cls-5" d="M125.38,28.81c2.07,2.7,2.61,7.94-.1,10s-7.62.18-9.69-2.52-.5-5.2,2.2-7.26S123.31,26.11,125.38,28.81Z"/><path class="cls-5" d="M123.18,29.31c-.63,3.35,1.24,8.27,4.58,8.91s6.9-3.26,7.53-6.6-1.88-4.87-5.22-5.51S123.82,26,123.18,29.31Z"/><path class="cls-6" d="M130.65,30c.78,3.31-.62,8.26-3.63,9s-6.48-3.08-7.26-6.39,1.42-4.89,4.42-5.6S129.86,26.68,130.65,30Z"/><path class="cls-2" d="M125.19,86.22a18.16,18.16,0,0,1,1,4.42c.22,2.07.64,6.24-1.91,7.14-1.89.67-4-2-5.06-3.23a16,16,0,0,1-3.69-8.17c-.24-2.08-.38-6.46,2.11-7.35,1.85-.65,3.59,1.23,4.7,2.44A14.5,14.5,0,0,1,125.19,86.22Z"/><path class="cls-2" d="M145.13,66.81a14.59,14.59,0,0,1-3.59.67c-1.67.1-5,.3-5.68-1.78-.48-1.54,1.75-3.2,2.77-4a13,13,0,0,1,6.7-2.7c1.68-.12,5.21-.09,5.84,1.95.47,1.51-1.11,2.85-2.12,3.7A11.7,11.7,0,0,1,145.13,66.81Z"/><path class="cls-2" d="M131.27,107.57a14.66,14.66,0,0,1-3.23,1.7c-1.56.6-4.73,1.79-6,0-.91-1.33.73-3.57,1.47-4.61a13,13,0,0,1,5.6-4.57c1.57-.61,4.95-1.63,6.16.13.89,1.3-.22,3.05-.93,4.16A11.56,11.56,0,0,1,131.27,107.57Z"/><path class="cls-2" d="M123.1,49.68a23,23,0,0,1,4,4.06c1.59,2.06,4.81,6.24,2.69,8.89-1.58,2-5.67.54-7.55-.1a20.06,20.06,0,0,1-9.37-6.28c-1.63-2-4.69-6.65-2.61-9.24,1.54-1.93,4.65-1.07,6.63-.52A18.28,18.28,0,0,1,123.1,49.68Z"/><path class="cls-7" d="M115.08,94.29c2.09.32,4.59,2.43,4.28,4.52s-3.33,3.37-5.42,3-2.47-2.1-2.15-4.19S113,94,115.08,94.29Z"/><path class="cls-7" d="M123.63,103.32c-2.09-.31-4.59-2.42-4.27-4.51s3.33-3.37,5.42-3,2.46,2.1,2.15,4.19S125.72,103.64,123.63,103.32Z"/><path class="cls-7" d="M123.87,94.53c-.31,2.09-2.42,4.59-4.51,4.28s-3.37-3.33-3.06-5.42,2.11-2.47,4.2-2.15S124.19,92.44,123.87,94.53Z"/><path class="cls-7" d="M114.84,103.08c.32-2.09,2.43-4.59,4.52-4.27s3.37,3.33,3,5.42-2.11,2.46-4.2,2.15S114.53,105.17,114.84,103.08Z"/><circle class="cls-4" cx="119.36" cy="98.81" r="1.37"/><path class="cls-4" d="M98.41,144.56s-19.63-20-36.16-19.83c0,0-.58,14.58,20.42,19.83Z"/><path class="cls-2" d="M90.63,144.56s-20.5-13.92-16-40.36c0,0,29.23,8.94,30.78,40.36Z"/><path class="cls-4" d="M105.21,144.56s19.63-20,36.16-19.83c0,0,.58,14.58-20.41,19.83Z"/><path class="cls-2" d="M113,144.56s20.5-13.92,16-40.36c0,0-29.23,8.94-30.77,40.36Z"/><path class="cls-4" d="M98.41,144.56S82.77,112,102.07,91.25c0,0,17.72,28.4,6.34,53.31Z"/><path class="cls-4" d="M26.36,144.56S12.05,130,0,130.11c0,0-.42,10.63,14.88,14.45Z"/><path class="cls-2" d="M20.69,144.56S5.74,134.42,9,115.14c0,0,21.31,6.52,22.43,29.42Z"/><path class="cls-4" d="M31.31,144.56S45.62,130,57.67,130.11c0,0,.42,10.63-14.88,14.45Z"/><path class="cls-2" d="M37,144.56s15-10.14,11.66-29.42c0,0-21.3,6.52-22.43,29.42Z"/><path class="cls-4" d="M26.36,144.56S15,120.8,29,105.7c0,0,12.92,20.71,4.62,38.86Z"/><path class="cls-2" d="M153.57,144.56s39-13,32.06-53.31c0,0-28.71-.59-54.7,53.31Z"/><path class="cls-4" d="M143,144.13s32-31.7,37.84-46.24C180.83,97.89,147.78,132.16,143,144.13Z"/><path class="cls-4" d="M157.4,126.79s2.23-11,1.92-12.36S155.69,121.76,157.4,126.79Z"/><path class="cls-4" d="M167.16,114.3s2.22-11,1.92-12.36S165.45,109.27,167.16,114.3Z"/><path class="cls-4" d="M146.69,138.81s2.22-11,1.92-12.35S145,133.78,146.69,138.81Z"/><path class="cls-4" d="M153.53,131.26l11.91-3.85S163.57,130.57,153.53,131.26Z"/><path class="cls-4" d="M162.58,121l11.91-3.85S172.63,120.32,162.58,121Z"/><path class="cls-4" d="M147.9,138.59l11.91-3.86S158,137.9,147.9,138.59Z"/><path class="cls-8" d="M65.84,144.56S88,137.18,84,114.3c0,0-16.3-.34-31.05,30.26Z"/><path class="cls-2" d="M59.83,144.32s18.15-18,21.48-26.25C81.31,118.07,62.55,137.52,59.83,144.32Z"/><path class="cls-2" d="M68,134.47s1.27-6.26,1.09-7S67,131.62,68,134.47Z"/><path class="cls-2" d="M73.55,127.38s1.27-6.26,1.09-7S72.58,124.53,73.55,127.38Z"/><path class="cls-2" d="M61.93,141.3s1.27-6.26,1.09-7S61,138.44,61.93,141.3Z"/><path class="cls-2" d="M65.81,137l6.77-2.19S71.52,136.62,65.81,137Z"/><path class="cls-2" d="M71,131.19,77.72,129S76.66,130.8,71,131.19Z"/><path class="cls-2" d="M62.62,141.17,69.38,139S68.32,140.78,62.62,141.17Z"/><path class="cls-7" d="M124.72,123.72c1.59-1.39,4.82-1.94,6.21-.35s.43,4.72-1.16,6.11-3.2.53-4.59-1.06S123.13,125.12,124.72,123.72Z"/><path class="cls-7" d="M137.14,123c-1.59,1.39-4.82,1.94-6.21.35s-.43-4.72,1.16-6.11,3.2-.52,4.6,1.06S138.73,121.62,137.14,123Z"/><path class="cls-7" d="M130.58,117.16c1.39,1.59,1.94,4.82.35,6.21s-4.72.43-6.11-1.16-.52-3.2,1.06-4.59S129.18,115.57,130.58,117.16Z"/><path class="cls-7" d="M131.29,129.58c-1.4-1.59-1.95-4.82-.36-6.21s4.72-.43,6.11,1.16.53,3.2-1.06,4.6S132.68,131.17,131.29,129.58Z"/><circle class="cls-4" cx="130.93" cy="123.37" r="1.37"/><path class="cls-9" d="M43.33,125.09c2.07.58,4.32,3,3.73,5.1s-3.79,3-5.86,2.39-2.21-2.44-1.63-4.51S41.26,124.5,43.33,125.09Z"/><path class="cls-9" d="M50.8,135.3c-2.07-.59-4.32-3-3.74-5.11s3.79-3,5.86-2.38,2.22,2.44,1.64,4.51S52.87,135.88,50.8,135.3Z"/><path class="cls-9" d="M52.17,126.46c-.59,2.06-3,4.32-5.11,3.73s-3-3.79-2.38-5.86,2.44-2.21,4.51-1.63S52.75,124.39,52.17,126.46Z"/><path class="cls-9" d="M42,133.93c.58-2.07,3-4.32,5.1-3.74s3,3.79,2.39,5.86-2.44,2.22-4.51,1.64S41.37,136,42,133.93Z"/><circle class="cls-4" cx="47.06" cy="130.19" r="1.4"/></g></g></svg>