<svg xmlns="http://www.w3.org/2000/svg" viewBox="0 0 167.16 88.32"><defs><style>.cls-1{fill:#2a7682;}.cls-2{fill:#4ba795;}.cls-3{fill:none;stroke-width:2.13px;}.cls-3,.cls-4,.cls-5,.cls-6,.cls-7{stroke:#4ba795;stroke-linecap:round;stroke-linejoin:round;}.cls-4,.cls-5,.cls-6,.cls-7{fill:#ffe97b;}.cls-4{stroke-width:0.7px;}.cls-5{stroke-width:0.58px;}.cls-6{stroke-width:0.55px;}</style></defs><title>資產 19</title><g id="圖層_2" data-name="圖層 2"><g id="D"><path class="cls-1" d="M131.5,87.82s-16.31-16.63-30-16.47c0,0-.48,12.11,17,16.47Z"/><path class="cls-2" d="M125,87.82s-17-11.55-13.29-33.51c0,0,24.27,7.42,25.55,33.51Z"/><path class="cls-1" d="M137.14,87.82s16.3-16.63,30-16.47c0,0,.48,12.11-16.95,16.47Z"/><path class="cls-2" d="M143.6,87.82s17-11.55,13.28-33.51c0,0-24.27,7.42-25.55,33.51Z"/><path class="cls-1" d="M131.5,87.82s-13-27.07,3-44.26c0,0,14.72,23.58,5.26,44.26Z"/><path class="cls-3" d="M32.13,55.08S26.3,43.87,13.57,42.68"/><path class="cls-3" d="M34.46,83s1.18-48.81-20.83-68.8"/><path class="cls-4" d="M20.08,7.11c-3.26-.19-7.71,2.22-7.89,5.48s4,6.14,7.23,6.33,4.39-2.41,4.58-5.67S23.34,7.29,20.08,7.11Z"/><path class="cls-4" d="M4.29,18.07c3.26.18,7.71-2.22,7.9-5.48S8.21,6.44,5,6.26.56,8.67.37,11.93,1,17.89,4.29,18.07Z"/><path class="cls-4" d="M6.7,4.69c-.18,3.26,2.22,7.72,5.49,7.9s6.14-4,6.32-7.24S16.11,1,12.85.78,6.89,1.43,6.7,4.69Z"/><path class="cls-4" d="M17.67,20.48c.18-3.26-2.22-7.71-5.48-7.89s-6.15,4-6.33,7.23,2.4,4.4,5.67,4.58S17.49,23.74,17.67,20.48Z"/><circle class="cls-1" cx="12.19" cy="12.59" r="2.12"/><path class="cls-4" d="M21.88,39.42c-3-1.2-8-.32-9.22,2.72s1.84,7.09,4.88,8.29,4.92-.91,6.12-4S24.92,40.62,21.88,39.42Z"/><path class="cls-4" d="M3.44,44.86c3,1.2,8,.32,9.22-2.72s-1.84-7.08-4.88-8.28-4.92.9-6.12,3.94S.4,43.66,3.44,44.86Z"/><path class="cls-4" d="M9.94,32.92c-1.2,3-.32,8,2.72,9.22s7.08-1.83,8.28-4.87S20,32.34,17,31.14,11.14,29.89,9.94,32.92Z"/><path class="cls-4" d="M15.38,51.36c1.2-3,.32-8-2.72-9.22S5.58,44,4.38,47s.9,4.93,3.94,6.13S14.18,54.4,15.38,51.36Z"/><circle class="cls-1" cx="12.66" cy="42.14" r="2.12"/><path class="cls-3" d="M30.9,48.88s-5.13-30.46,3.5-41"/><path class="cls-5" d="M34.43,2.6c-1.66,1.94-2.29,5.84-.35,7.51s5.7.45,7.37-1.49S42,4.75,40.1,3.09,36.09.66,34.43,2.6Z"/><path class="cls-5" d="M36.05,3.07c.34,2.53-1.27,6.14-3.8,6.48s-5-2.73-5.37-5.26S28.5.72,31,.38,35.71.54,36.05,3.07Z"/><path class="cls-6" d="M30.43,3.26c-.73,2.45.12,6.22,2.34,6.88s5-2,5.71-4.49-.85-3.72-3.08-4.38S31.16.82,30.43,3.26Z"/><path class="cls-2" d="M18,30.24a10.56,10.56,0,0,0,2.66.65C22,31,24.47,31.33,25,29.8c.43-1.14-1.18-2.47-1.91-3.09a9.61,9.61,0,0,0-4.9-2.3c-1.25-.17-3.9-.29-4.46,1.21-.41,1.11.71,2.18,1.43,2.86A8.6,8.6,0,0,0,18,30.24Z"/><path class="cls-2" d="M35.26,18.33a17.63,17.63,0,0,0-3.17,2.87c-1.28,1.48-3.87,4.48-2.39,6.55,1.1,1.55,4.23.64,5.66.25a15,15,0,0,0,7.28-4.32C44,22.21,46.43,18.9,45,16.87c-1.08-1.51-3.44-1-5-.67A13.83,13.83,0,0,0,35.26,18.33Z"/><path class="cls-1" d="M56.19,87.82S33.11,64.28,13.69,64.51c0,0-.69,17.14,24,23.31Z"/><path class="cls-2" d="M47.05,87.82S22.94,71.46,28.23,40.38c0,0,34.36,10.51,36.18,47.44Z"/><path class="cls-1" d="M64.17,87.82s23.08-23.54,42.51-23.31c0,0,.68,17.14-24,23.31Z"/><path class="cls-2" d="M73.32,87.82s24.1-16.36,18.81-47.44c0,0-34.36,10.51-36.17,47.44Z"/><path class="cls-1" d="M56.19,87.82S37.8,49.5,60.49,25.16c0,0,20.83,33.38,7.44,62.66Z"/><path class="cls-7" d="M94.18,87.82S80,73.34,68,73.48c0,0-.42,10.54,14.76,14.34Z"/><path class="cls-7" d="M88.55,87.82S73.73,77.76,77,58.64c0,0,21.12,6.47,22.24,29.18Z"/><path class="cls-7" d="M99.09,87.82s14.19-14.48,26.14-14.34c0,0,.42,10.54-14.76,14.34Z"/><path class="cls-7" d="M104.71,87.82s14.82-10.06,11.57-29.18c0,0-21.13,6.47-22.25,29.18Z"/><path class="cls-7" d="M94.18,87.82S82.87,64.25,96.82,49.28c0,0,12.81,20.54,4.58,38.54Z"/></g></g></svg>