<svg xmlns="http://www.w3.org/2000/svg" viewBox="0 0 76.88 131.48"><defs><style>.cls-1{fill:#2a7682;}</style></defs><title>資產 25</title><g id="圖層_2" data-name="圖層 2"><g id="圖層_1-2" data-name="圖層 1"><path class="cls-1" d="M66.9,11.69C60.63,4.14,51.4.22,39.46,0h-1C26,0,16.45,3.93,10,11.69,2.89,20.25-.37,33.09,0,50.93.14,55.51.48,60.1,1,64.59a2.27,2.27,0,0,0,3.24,1.8L74.07,33.05a2.25,2.25,0,0,0,1.25-2.49C73.73,22.8,70.94,16.55,66.9,11.69ZM58.54,27.48a8.33,8.33,0,0,1-8.33,8.32H26.69a8.33,8.33,0,0,1-8.33-8.32V17.76a8.33,8.33,0,0,1,8.33-8.32H50.21a8.33,8.33,0,0,1,8.33,8.32Z"/><path class="cls-1" d="M74.26,42.08,65,61.4v0c-4,8-11.81,11.91-23.81,11.91H7.12c-3.12,0-4.61,2-4.23,4.7,1,5.8,2.75,15.85,2.9,16.68,2.64,14.41,5.8,23.33,10.22,28.93,4.28,5.42,9.81,7.83,17.93,7.83h9c8.12,0,13.65-2.41,17.93-7.83,6.87-10.93,10.62-31.08,10.83-32.23,2-10.9,4.81-25.83,5.15-40.49,0-2.31-.06-5.76-.17-8.36a1.28,1.28,0,0,0-1.84-1.1A1.27,1.27,0,0,0,74.26,42.08Z"/></g></g></svg>