<svg xmlns="http://www.w3.org/2000/svg" viewBox="0 0 100.94 131.61"><defs><style>.cls-1{fill:#bdbdbd;}</style></defs><title>資產 30</title><g id="圖層_2" data-name="圖層 2"><g id="圖層_1-2" data-name="圖層 1"><path class="cls-1" d="M31.68,25.32a28.53,28.53,0,0,1,2.52-1.89A16.31,16.31,0,0,1,50.46,7.71h0A16.3,16.3,0,0,1,66.74,23.45a30,30,0,0,1,2.49,1.87A28.73,28.73,0,0,1,73.69,30,24,24,0,0,0,50.47,0h0A24,24,0,0,0,27.24,30,29.69,29.69,0,0,1,31.68,25.32Z"/><path class="cls-1" d="M100.74,89.81l-5-31.91A16.67,16.67,0,0,0,79.48,43.75s1.86,7.22,2.18,8a9,9,0,0,1,6.44,7.3l5,31.91a9,9,0,0,1-7,10.23c-.53,1.11-2.73,7.93-2.73,7.93h.77a16.76,16.76,0,0,0,16.55-19.36Z"/><path class="cls-1" d="M17.52,109.17s-2.2-6.82-2.73-7.93A9,9,0,0,1,7.82,91l5-31.91c.35-2.25,2.82-4.18,5.76-5.54.55-1.4,2.67-9,2.67-9-7.3,1.87-15,6.93-16,13.38L.2,89.81a16.76,16.76,0,0,0,16.55,19.36Z"/><path class="cls-1" d="M23.67,101.45H46.43c-.07-.07-5.21-6-5.47-6.32a44.11,44.11,0,0,1-3.21-4.72c-.11-.18-.21-.37-.31-.55a15.17,15.17,0,0,1-2.23-7.18c0-1.26,0-5.13,6.38-14.44,2.56-3.73,5.09-6.82,5.77-7.63l.17-.21a3.82,3.82,0,0,1,1.7-1.16,4,4,0,0,1,2.08-.11,3,3,0,0,1,.4.11,3.82,3.82,0,0,1,1.7,1.16l.17.2c.68.82,3.21,3.91,5.78,7.64,6.38,9.31,6.38,13.17,6.38,14.44,0,3.57-2.15,8-6.56,13.47l-4.66,5.3H77.27a33.23,33.23,0,0,0,5.1-19.67C82,73.61,78.94,65.94,76,58.53c-1-2.41-1.87-4.74-2.68-7H27.61c-.81,2.29-1.73,4.62-2.68,7C22,65.94,19,73.61,18.57,81.78A33.23,33.23,0,0,0,23.67,101.45Z"/><path class="cls-1" d="M86.34,123.9H80.93l-5.79-14.7H25.8L20,123.9h-5.4a3.86,3.86,0,1,0,0,7.71H86.34a3.86,3.86,0,0,0,0-7.71Zm-26.69-2.66a4.47,4.47,0,1,1,4.47-4.46A4.46,4.46,0,0,1,59.65,121.24Z"/><path class="cls-1" d="M50.42,26.19A21.5,21.5,0,0,0,29.28,43.8c9,0,33,0,42.27,0A21.49,21.49,0,0,0,50.42,26.19Z"/><path class="cls-1" d="M50.54,73s-7.49,9.17-7.49,13.31,7.49,12,7.49,12S58,90.45,58,86.32,50.54,73,50.54,73Z"/></g></g></svg>