<svg xmlns="http://www.w3.org/2000/svg" viewBox="0 0 110.06 110.06"><defs><style>.cls-1{fill:#4ba795;}.cls-2{fill:#ffe97b;}.cls-3{font-size:14.16px;fill:#fff;font-family:CP-Font, CP Font-83pv-RKSJ-H;letter-spacing:0.2em;}.cls-4,.cls-5{fill:none;stroke:#fff;stroke-linecap:round;stroke-linejoin:round;stroke-width:2.33px;}.cls-5{stroke-dasharray:4.33 4.33;}</style></defs><title>資產 14</title><g id="圖層_2" data-name="圖層 2"><g id="廣告男子"><path class="cls-1" d="M55,0A55,55,0,0,0,9.09,85.32l-3.22,12a3.11,3.11,0,0,0,3.81,3.81l11.17-3A55,55,0,1,0,55,0Z"/><path class="cls-2" d="M72,58.34a18.23,18.23,0,0,1-3.85,11.27c-1.89,2.47-3.58,5.11-5.36,7.67Q60.43,80.75,58,84.19c-1.69,2.43-4.35,2.43-6,0-3.23-4.65-6.42-9.34-9.68-14a23.44,23.44,0,0,1-3.24-5.56,17,17,0,1,1,32.55-9.25C71.85,56.54,72,57.72,72,58.34Zm-8.38.52a8.63,8.63,0,1,0-8.52,8.62A8.65,8.65,0,0,0,63.65,58.86Z"/><path class="cls-2" d="M60.17,58.85A5.14,5.14,0,1,1,55,53.71,5.15,5.15,0,0,1,60.17,58.85Z"/><text class="cls-3" transform="translate(26.96 32.72)">WISH</text><line class="cls-4" x1="24.61" y1="88.68" x2="26.94" y2="88.68"/><line class="cls-5" x1="31.27" y1="88.68" x2="81.1" y2="88.68"/><line class="cls-4" x1="83.26" y1="88.68" x2="85.59" y2="88.68"/></g></g></svg>