<svg xmlns="http://www.w3.org/2000/svg" xmlns:xlink="http://www.w3.org/1999/xlink" viewBox="0 0 326.81 332.77"><defs><style>.cls-1,.cls-10,.cls-13,.cls-14{fill:none;}.cls-2,.cls-4,.cls-9{fill:#fff;}.cls-10,.cls-11,.cls-13,.cls-14,.cls-2,.cls-9{stroke:#4ba795;stroke-linejoin:round;}.cls-10,.cls-11,.cls-13,.cls-2,.cls-9{stroke-linecap:round;}.cls-10,.cls-14,.cls-2{stroke-width:2.57px;}.cls-11,.cls-3{fill:#ffe97b;}.cls-5{fill:#4ba795;}.cls-6{fill:#2a7682;}.cls-7,.cls-8{fill:#efa495;}.cls-7{opacity:0.37;}.cls-9{stroke-width:1.71px;}.cls-11,.cls-13{stroke-width:3.42px;}.cls-12{clip-path:url(#clip-path);}.cls-14{stroke-linecap:square;}</style><clipPath id="clip-path"><rect class="cls-1" x="84.44" y="174.74" width="162.13" height="125.56" rx="3"/></clipPath></defs><title>資產 13</title><g id="圖層_2" data-name="圖層 2"><g id="廣告男子"><path class="cls-2" d="M215.36,294.64S216.94,310,232,310.83s33.56-3.25,36.72-18.61,15.8-18.91,17-29.57-3.55-10.66-2-15.79,18.95-15,18.56-22.12a101.33,101.33,0,0,1,0-12.24s-37.52-5.9-46.6-19.26c0,0-7.9-2.85-11.45,9.39S215.36,294.64,215.36,294.64Z"/><path class="cls-3" d="M264.64,170.91s-9,11.74-9,22.33,32.35,24,46.6,19.26c0,0,7.56-11.57,6.72-20.3S287,169.51,264.64,170.91Z"/><path class="cls-4" d="M280.34,145.7s-6.59-2.3-8,2.89,1.82,30.79,1.82,30.79l-3,7.74s19.41,9.5,23.95,9.14,3.75-8.13,3.75-8.13,6.75-2,9.08-4.38,8.29-11.81,8.29-11.81l5.36-3.84s3.8-3.08,3.93-6.6-.63-3.67-3.56-5.76-6.63-5.21-6.63-5.21A65,65,0,0,0,305,145.61c-4.79-1.62-9.37-1.75-13.12,0S280.34,145.7,280.34,145.7Z"/><path class="cls-2" d="M281.13,144.19l23.39-42.51s7.66,1.33,3,12.66-5.67,12.5-5.67,12.5L293,149"/><path class="cls-2" d="M199.48,149.19s26,9.46,35.33,25.55-24.47,14.35-24.47,14.35L188.4,175.77Z"/><path class="cls-5" d="M188.65,104.89S228,110.41,236,134.66s-9.37,31.1-21.86,32.88c0,0,11.91-12.9,9.44-22.47,0,0,5.67,18.62-16.59,20.64,0,0,7.07-8.75,3.63-16.48,0,0,1.06,12.18-16.1,13.91,0,0,13.3-23.83-11-46.8C183.54,116.34,179.63,105.75,188.65,104.89Z"/><polygon class="cls-4" points="58.75 219.05 85.47 236.55 79.26 244.83 46.09 244.83 46.09 235.04 58.75 219.05"/><path class="cls-2" d="M56.79,222.08S22.28,240.3,32.2,261.21l7.5,7.23s-14.3,25.47-9.29,36.72,9.56,20.1,24.84,25.2,29.21-8.31,32.7-14.74,4.29-14.21,4.29-20.11-21.45,1.67-23.59-18.73,6.7-21.2,6.7-21.2l26-8.85L129,285l20.29-105.6-31-24s-32.69,6.43-49.31,33-21,26.8-12.13,33.77,22.07,15.44,22.07,15.44l-28.7-1"/><path class="cls-3" d="M137,146s-13,.25-14.88,3.85-4.56,2.88-7.2,5.52,11.13,27.13,28.49,34.81,44.14.24,45-14.4,1.13-26.41,1.13-26.41a6.78,6.78,0,0,0-6.83-5.17c-5.65.13-6.85-2.75-11.89-1.31S137,146,137,146Z"/><rect class="cls-6" x="106.16" y="151.51" width="16.78" height="29.06" rx="3" transform="translate(-27.34 22.66) rotate(-10.1)"/><rect class="cls-6" x="182.13" y="147.04" width="16.78" height="34.62" rx="3.28" transform="translate(67.43 -55.1) rotate(19.93)"/><path class="cls-2" d="M136.24,139.9l1.29,10.87L131,153.71s5,12.86,22.34,14.15,25.24-18.38,25.24-18.38l-8.84-1.42-1.47-11.84Z"/><path class="cls-5" d="M106.13,116.74S66.74,122.25,58.8,146.5s9.37,31.1,21.86,32.88c0,0-11.91-12.89-9.43-22.47,0,0-5.68,18.63,16.59,20.65,0,0-7.08-8.75-3.64-16.49,0,0-1.05,12.18,16.11,13.91,0,0-13.31-23.83,10.95-46.79C111.24,128.19,115.15,117.6,106.13,116.74Z"/><path class="cls-6" d="M202.86,84.31s23.67-2,31.95-10.53c0,0-23.75-15.67-30.26-14.19S202.86,84.31,202.86,84.31Z"/><path class="cls-6" d="M58.61,89.55s13.77,6.27,40.51,4.55L87.82,69.15Z"/><path class="cls-2" d="M99.12,97.37s-5-4.36-8.29-.82c-4.64,5-7.52,24.14,19.59,24.85Z"/><path class="cls-2" d="M197.05,91.76s5-4.37,8.28-.82c4.64,5,7.52,24.14-19.59,24.85Z"/><path class="cls-2" d="M197.05,84.48c0,31.38-20.52,59.71-50.25,59.71S95.12,115.06,95.12,83.67s22-53.14,51.68-53.14S197.05,53.09,197.05,84.48Z"/><rect class="cls-5" x="165.63" y="84.31" width="6.9" height="15.32" rx="2.01" transform="translate(-2.72 5.2) rotate(-1.75)"/><rect class="cls-5" x="119.09" y="87.36" width="6.9" height="15.32" rx="2.01" transform="translate(-2.84 3.78) rotate(-1.75)"/><circle class="cls-7" cx="107.62" cy="114.89" r="14.46"/><circle class="cls-7" cx="188.4" cy="108.96" r="14.46"/><path class="cls-8" d="M133.83,118.47l30.1-2.67c2.23-.2,4,2.59,3.4,5.32-1.21,5.32-5,12.62-16.88,13.67s-16.91-5.46-19-10.48C130.33,121.72,131.6,118.67,133.83,118.47Z"/><path class="cls-9" d="M140.54,104.89s0,5.19,5.65,4"/><path class="cls-5" d="M103.27,76.9S98.7,88.84,113.42,91.83c0,0-1-12.94,0-15.72,0,0-3,12.69,5.54,14.8,0,0-.37-10,.83-13.41,0,0,.4,9.15,8.55,12.14,0,0-2.58-10.75,0-13.73,0,0,.6,10.54,10.75,12.73,0,0-3.38-8.75,0-13.73,0,0-1.29,8.38,7.71,12.45,0,0-1.54-8.67,1.44-12.84,0,0,5.57,9.16,4.18,12.84,0,0,6.76-2.89,5.37-13.64,0,0,8,10,6,13.64,0,0,11.54-7.27,6.37-16,0,0,10.46,7.6,7.56,12.74,0,0,8.55-1,5.57-12.54,0,0,4.84,13.33.63,18.51,0,0,10.31,1.19,10.71-10,0,0,6.57,7.72.8,14.4,0,0,26.26-8.63,9.15-34.9L155.72,42.08l-50.26,4.38s-38.2,29.93-8.55,54c0,0-3.59-12.77-1.79-16.75,0,0,.39,6.57,8.75,9.55C103.87,93.22,101.68,89,103.27,76.9Z"/><path class="cls-3" d="M95.12,12.86,91.24,42.08S59.29,73.72,58.61,89.55c0,0,75.22-56.64,176.2-15.77,0,0-7.22-18.05-31.95-31.7l-16-39.22S123.38-8.09,95.12,12.86Z"/><path class="cls-10" d="M95.12,40.6s57.75-19.21,100-4.53"/><rect class="cls-11" x="84.44" y="174.74" width="162.13" height="125.56" rx="3"/><g class="cls-12"><path class="cls-4" d="M84.44,203.85s17,6.66,23.18,29.77,21.08,7.25,30.48,18.32,21.55,19.29,0,26.34-22.27,5.87-26,13.94l-3.75,8.08H76.2l-4.27-58.84Z"/><path class="cls-4" d="M136.54,185.3s-12.52,16.78-9.86,26.63,9.6,18.11,13.86,21.84-.14-4,5.65-17.31S150.12,181,136.54,185.3Z"/><path class="cls-4" d="M202.42,223.21s-.63,6.95-8.62,24.73-29,18.86-13.59,31.64,25.29,2.93,35.15,6.66-1.06,24.68-1.06,24.68l37.23-2.43V181.31s-22.31-15.46-30.57,3.45S202.42,223.21,202.42,223.21Z"/></g><line class="cls-11" x1="165.5" y1="174.74" x2="165.5" y2="300.3"/><rect class="cls-13" x="84.44" y="174.74" width="162.13" height="125.56" rx="3"/><rect class="cls-5" x="185.29" y="215.49" width="4.62" height="4.62" rx="1.35" transform="translate(100.49 -56.14) rotate(23.1)"/><rect class="cls-5" x="181.55" y="224.25" width="4.62" height="4.62" rx="1.35" transform="translate(264.09 507.09) rotate(-156.9)"/><rect class="cls-5" x="177.23" y="234.39" width="4.62" height="4.62" rx="1.35" transform="translate(251.81 524.86) rotate(-156.9)"/><rect class="cls-3" x="217.1" y="244.21" width="4.62" height="4.62" rx="1.35" transform="translate(-49.48 55.18) rotate(-12.89)"/><rect class="cls-3" x="219.22" y="253.5" width="4.62" height="4.62" rx="1.35" transform="translate(494.57 455.72) rotate(167.11)"/><rect class="cls-3" x="221.68" y="264.24" width="4.62" height="4.62" rx="1.35" transform="translate(501.82 476.39) rotate(167.11)"/><rect class="cls-5" x="107.83" y="188.51" width="4.62" height="4.62" rx="1.35" transform="translate(-79.24 78.22) rotate(-29.27)"/><rect class="cls-5" x="107.83" y="197.31" width="4.62" height="4.62" rx="1.35" transform="translate(303.82 319.91) rotate(150.73)"/><rect class="cls-5" x="107.83" y="208.06" width="4.62" height="4.62" rx="1.35" transform="translate(309.07 340.02) rotate(150.73)"/><path class="cls-3" d="M65.14,260s-19.77,11.93-19,20.89,5.23,28.72,28.35,27.6c0,0,15.29-2,17.76-10.74L71.22,260S70.52,256.32,65.14,260Z"/><path class="cls-2" d="M71.86,257.7l20.62-14.29s10.23-.22,12.5,2.74-.46,5.68-5.46,5.9A15.09,15.09,0,0,0,91,255.48l-6.52,4.76,11.67-3.19L107,258.87s1.14,6.59-6.81,6.82A40.86,40.86,0,0,0,85.65,269l21.51,1.87s5.77,6.38-6.27,7.74-16.06-1.54-16.06-1.54l25,3.12s2.16,7.39-5.79,9-9.86-1.7-14.72-.33-4.85,3.35-4.85,3.35S61.24,292.88,71.86,257.7Z"/><polyline class="cls-10" points="277.76 247.94 251.53 265.12 269.93 265.12"/><path class="cls-10" d="M63.75,264s-15.87,32.56,19.87,33.73"/><path class="cls-10" d="M264.64,179.38s6.4,16.08,37.6,17.51"/><path class="cls-14" d="M279.67,156l2.66-.17s-1.83,15.5,3.51,15.83,8.83-13.83,8.33-19.66-8-6.83-15.83-6.17-6.5,4.5-7.21,11.5,3,22,3,22l-3,7.74c2.95,2.71,25.1,9.77,25.1,9.77l2.6-8.76c11.33-1.35,17.37-16.19,17.37-16.19s-4.81,1.21-2.31.88S325,167,325.49,161.5s-4-5-6.5-7.84-8.14-6-12.11-8-11.24-.74-11.24-.74"/><path class="cls-14" d="M293.56,165.79s7.09,5.77,10.34,5.77,7.49,1.59,10,1.26"/><path class="cls-10" d="M306.88,145.61s-2.3,16.65-10.42,22.35"/><path class="cls-10" d="M317.75,152.44s-.78,13.35-10.87,19.43"/><path class="cls-6" d="M225.34,200.67a13.86,13.86,0,0,1-2.93,8.57c-1.44,1.88-2.72,3.88-4.07,5.83-1.21,1.75-2.42,3.51-3.64,5.26a2.6,2.6,0,0,1-4.6,0c-2.45-3.54-4.88-7.1-7.36-10.62a18.3,18.3,0,0,1-2.47-4.23,12.9,12.9,0,1,1,24.76-7C225.2,199.3,225.28,200.19,225.34,200.67Zm-6.37.39a6.56,6.56,0,1,0-6.48,6.56A6.57,6.57,0,0,0,219,201.06Z"/><path class="cls-6" d="M216.32,201.06a3.91,3.91,0,1,1-3.91-3.91A3.92,3.92,0,0,1,216.32,201.06Z"/><path class="cls-6" d="M144,245.57a13.87,13.87,0,0,1-2.93,8.57c-1.44,1.88-2.72,3.89-4.08,5.84-1.21,1.75-2.41,3.51-3.63,5.25a2.6,2.6,0,0,1-4.6,0c-2.46-3.54-4.88-7.1-7.37-10.62a18.47,18.47,0,0,1-2.46-4.23,12.9,12.9,0,1,1,24.75-7C143.81,244.21,143.88,245.1,144,245.57Zm-6.37.4a6.56,6.56,0,1,0-6.48,6.55A6.57,6.57,0,0,0,137.58,246Z"/><path class="cls-6" d="M134.92,246a3.91,3.91,0,1,1-3.9-3.91A3.91,3.91,0,0,1,134.92,246Z"/><polygon class="cls-5" points="30.11 99.26 48.47 126.88 43.72 131.82 15.39 114.59 30.11 99.26"/><polygon class="cls-5" points="7.72 132.19 47.34 155.37 44.85 161.75 0 151.99 7.72 132.19"/></g></g></svg>