<svg xmlns="http://www.w3.org/2000/svg" viewBox="0 0 134.03 106.95"><defs><style>.cls-1{fill:#2a7682;}</style></defs><title>資產 26</title><g id="圖層_2" data-name="圖層 2"><g id="圖層_1-2" data-name="圖層 1"><path class="cls-1" d="M129,53.2V40.71h-8.79a15.64,15.64,0,0,1-15.66-15.59V0H76.42a2,2,0,0,0-2,2V22.56a15.75,15.75,0,0,1-1.71,6.9L90.5,40.92a4,4,0,0,1,1.19,5.6,4.31,4.31,0,0,1-5.6,1.19L68,36.05l-3.21,3,11.37,16a4,4,0,0,1-1.24,5.58,4.12,4.12,0,0,1-5.59-1.24L58.15,43.68l-4.9,2.64,6.14,16.83A4,4,0,0,1,57,68.34a4.1,4.1,0,0,1-5.19-2.42l-6-16.51-6.4,1.87V66.93a4.05,4.05,0,0,1-8.1,0V52.58c-1.1.08-2.18.13-3.23.13a20.46,20.46,0,0,0-16.76,7.88c-3,3.93-5,9.18-5.87,15.41H90.31C92.23,63.1,107.32,53.2,129,53.2Z"/><path class="cls-1" d="M129,76V61.3c-15.13,0-26.31,4.26-30.25,14.7Z"/><path class="cls-1" d="M112.65,25.12a7.54,7.54,0,0,0,7.57,7.49H129V2a2,2,0,0,0-2-2H112.65Z"/><path class="cls-1" d="M132,107H96.16a2,2,0,0,1-2-2v-5H89.65L85.8,106a2,2,0,0,1-1.71.94H2a2,2,0,0,1-2-2V91.28a7.45,7.45,0,0,1,7.46-7.43H126.68A7.35,7.35,0,0,1,134,91.17v13.76A2,2,0,0,1,132,107Z"/></g></g></svg>