<svg xmlns="http://www.w3.org/2000/svg" xmlns:xlink="http://www.w3.org/1999/xlink" viewBox="0 0 297.21 316.75"><defs><style>.cls-1,.cls-7,.cls-9{fill:none;}.cls-10,.cls-2{fill:#4ba795;}.cls-11,.cls-13,.cls-3{fill:#fff;}.cls-3,.cls-7{stroke:#4ba795;}.cls-3,.cls-7,.cls-9{stroke-linecap:round;stroke-linejoin:round;}.cls-10,.cls-3,.cls-7,.cls-9{stroke-width:2px;}.cls-4{fill:#ffe97b;}.cls-5,.cls-6{fill:#efa495;}.cls-5{opacity:0.37;}.cls-8{fill:#2a7682;}.cls-10,.cls-9{stroke:#fff;}.cls-10{stroke-miterlimit:10;}.cls-12{fill:#e9dfda;}.cls-13{font-size:7.76px;font-family:Arial-Black, Arial Black;font-weight:800;}.cls-14{clip-path:url(#clip-path);}</style><clipPath id="clip-path"><path class="cls-1" d="M48.25,250.31s12.79,3.45,18.26,3.27,19.39-3.62,25.82-4.2,18.23,2.1,20.31,5.41,1.48,4.23,4.18,3.31,13.14-3.67,16.47-3.3,9.18-5.5,9.18-5.5l-2-33.31L111.2,178.93l-60.58,3.92-28,29.29v32.42Z"/></clipPath></defs><title>資產 15</title><g id="圖層_2" data-name="圖層 2"><g id="廣告男子"><path class="cls-2" d="M183.94,138.09s9.28-.27,14.09,7,7.57,21.66,17.19,24.41,19.59,33,21.66,36.78-35.39,94.88-46.06,94.88-24.4-4.81-24.4-4.81l-10.23-48.82-2-25.63S170.19,138.35,183.94,138.09Z"/><path class="cls-2" d="M64,146.38S43.09,157.09,41.8,168c0,0-30.93,24.57-22.58,39.45,0,0-22.31,27.65-18.86,36.07s6.92,7.21,6.92,7.21S-2,272.11,6.22,283.53s27.66,24.64,40.13,26,33.06,9.16,42.23,6.76,26.59-10.52,28.55-10.52c0,0-14.36-25.19,1.57-45L134.64,259V221s-43.88-76.51-69-71.93"/><path class="cls-3" d="M75.78,130.73l12.09,4.37L97,149.77l-12.75,9.6c.09-1.39-17.38-4.77-20.17-13s11.74-15.65,11.74-15.65"/><path class="cls-4" d="M113.31,115.35s-13.45-.54-16.5,2.13-5.24,15.6-6.69,16,23.19,28.35,23.19,28.35l25.21,26.59,14.53-17-1.16-26.31,12.79-15.4s-.58-14.48-5.81-14.44-19.58-3.13-19.58-3.13Z"/><path class="cls-2" d="M113.31,118s-6.66-.94-6.35,1.46a38.64,38.64,0,0,0,1.05,4.92L107,126l23.29,22.18L136.57,168s-.42-27.2,1.57-32.12,9.63-14.23,7.22-16.85-14.23-1.22-14.23-1.22Z"/><path class="cls-3" d="M113,122s2.49-5.5.69-9.18,25.6-.65,25.6-.65-2.4,6.8,0,9.21C139.29,121.38,119.68,126.19,113,122Z"/><path class="cls-2" d="M73.28,86.71s2.4,17.19,28,18.23L100.68,92S81.06,70.48,73.28,86.71Z"/><path class="cls-3" d="M92.35,75.16S81,65.79,79.12,76.45s.35,20,14.75,21.43c0,0,2-.26,3.17,2.21.8,1.7,6.64,8.54,16.65,12.73a42.84,42.84,0,0,0,16.13,3.33c19.8.23,29.52-16.86,31-31.5s.58-23.77.58-23.77-33.95-20.21-43.32-16.76S92.53,62,92.35,75.16Z"/><rect class="cls-2" x="109.89" y="68.3" width="4.88" height="10.84" rx="2.44" transform="translate(-2.19 3.46) rotate(-1.75)"/><rect class="cls-2" x="145.71" y="67.21" width="4.88" height="10.84" rx="2.44" transform="translate(-2.15 4.55) rotate(-1.75)"/><path class="cls-2" d="M84.21,70.69S95.45,81.43,95.54,83s8.84-18.34,5.79-26.5c0,0,3.28,6.7,1.61,9.51s15.91-8.18,16.18-18.38c0,0,7.21,14.07,21.36,14.51,0,0-6.19-5.15-6.19-9.81,0,0,17.51,18.46,27.91,16.88l-.76-8.35s-1.13,9.64-3.64,14.91c0,0,17.36-10.23,6.55-24.65L139.78,43l-24.09-2.28-24,13.8S84.21,66.65,84.21,70.69Z"/><circle class="cls-5" cx="102.78" cy="87.31" r="10.23"/><circle class="cls-5" cx="156.19" cy="87.31" r="10.23"/><path class="cls-6" d="M118.6,92.61h23.27c1.73,0,2.91,2.26,2.25,4.32-1.29,4-4.72,9.33-13.88,9.33s-12.6-5.33-13.88-9.33C115.7,94.87,116.87,92.61,118.6,92.61Z"/><path class="cls-3" d="M132.14,85s6.94-.4,4.47-5.4"/><path class="cls-4" d="M125.11.06c-76.2-2.42-74.75,74-51.83,88.33L78,84.67c0-.23-1.36-10.22,3.19-13.14a6.35,6.35,0,0,1,2.93-1c.2-.23,11.69-17.91,29.15-24.83C133,38,160.71,49.12,167.09,56.11,167.09,56.11,169.72,1.47,125.11.06Z"/><line class="cls-7" x1="67.81" y1="75.85" x2="78.04" y2="84.67"/><line class="cls-7" x1="74.52" y1="64.43" x2="82.69" y2="71.91"/><line class="cls-7" x1="80.66" y1="56.47" x2="88.43" y2="65.81"/><line class="cls-7" x1="86.74" y1="50.07" x2="94.98" y2="59.45"/><line class="cls-7" x1="97.3" y1="41.76" x2="104.54" y2="51.28"/><line class="cls-7" x1="109.47" y1="37.29" x2="114.06" y2="47.68"/><line class="cls-7" x1="120.14" y1="33.06" x2="122.62" y2="45.41"/><line class="cls-7" x1="130.94" y1="34.09" x2="131.3" y2="44.19"/><line class="cls-7" x1="142.64" y1="34.55" x2="140.43" y2="44.59"/><line class="cls-7" x1="152.22" y1="37.29" x2="149.25" y2="47.09"/><line class="cls-7" x1="160.31" y1="40.71" x2="157.17" y2="50.11"/><path class="cls-7" d="M67.81,75.85s29.82-66,92.5-35.14"/><polyline class="cls-7" points="114.13 159.6 120.14 146.38 125.61 151.88 132.73 168.04"/><polyline class="cls-7" points="138.52 188.45 140.14 138.09 144.3 156.41 151.89 145.14"/><circle class="cls-8" cx="143.6" cy="163.27" r="1.72"/><circle class="cls-8" cx="143.6" cy="174.63" r="1.72"/><path class="cls-3" d="M87.27,153.26,77.17,168l57.47,53-1.91-38.68s-37.66-38.28-37.46-44.26a38.21,38.21,0,0,1,9.34-22.57s-8.51-4.9-16.18-.22S72,123.17,75.78,130.73s12.65,12,12.65,12"/><path class="cls-3" d="M163,119.92s22,5.24,32.52,18.17c7.21,8.83-17.78,12.77-17.78,12.77l8.15,16.47-31.77,54.53-1.1-50.41-1.16-26.31,12.79-16.65Z"/><circle class="cls-4" cx="106.69" cy="180.27" r="5.02"/><circle class="cls-8" cx="120.14" cy="194.24" r="3.91"/><polygon class="cls-8" points="132.69 181.2 139.76 187 153.05 171.45 162.11 275.76 134.64 264.3 132.69 181.2"/><path class="cls-9" d="M50,213.47s26.7,7.48,36.71,30.65"/><path class="cls-10" d="M221.11,213.47s-12,14.22-12.3,27.56-14,16-18,27.41-8.38,25.35-2.52,32.59,17,18.08,42.19,8.71,31.34-33.1,30.46-43.06,3.51-25.48,5.86-30.75S235.17,208.89,221.11,213.47Z"/><path class="cls-4" d="M116.23,259.44s16.63-6.37,23.26-1.45.23,42.78,2.38,47.71-16.31,7.87-28.75,1.38C113.12,307.08,99.21,284.74,116.23,259.44Z"/><path class="cls-4" d="M231,181.87c-4.79,3.35-16.86,26.47-11.76,36.68,0,0,37.33,22.85,47.59,17.38s17.52-24,11.69-33.49C278.5,202.44,238.92,177,231,181.87Z"/><line class="cls-7" x1="235.57" y1="190.32" x2="224.71" y2="216.45"/><line class="cls-7" x1="245.9" y1="198.94" x2="235.57" y2="221.86"/><line class="cls-7" x1="257.54" y1="206.24" x2="247.24" y2="228.8"/><line class="cls-7" x1="268.52" y1="209.14" x2="257.54" y2="231.56"/><line class="cls-7" x1="114.13" y1="301.12" x2="137.21" y2="301.12"/><line class="cls-7" x1="113" y1="288.22" x2="138.52" y2="288.22"/><line class="cls-7" x1="111.42" y1="274.98" x2="137.21" y2="274.98"/><line class="cls-7" x1="116.23" y1="264.3" x2="134.64" y2="264.3"/><path class="cls-2" d="M286.14,84.08a7.62,7.62,0,0,0-2.56-3.4,7.8,7.8,0,0,0-6.21-1.8,14.29,14.29,0,0,0-4.72,1.53l-.74.41a.32.32,0,0,1-.43-.14,11.29,11.29,0,0,0-2.43-3.37A8,8,0,0,0,264.2,75a9.64,9.64,0,0,0-4.09.54,6.82,6.82,0,0,0-5,6.69,16.32,16.32,0,0,0,.68,5A39.91,39.91,0,0,0,258.92,95a89.79,89.79,0,0,0,4.79,8.16l.2.3a4.89,4.89,0,0,0,4,2.07,5.12,5.12,0,0,0,3.3-1.29c2.14-1.5,4.23-3.08,6.22-4.79a41.39,41.39,0,0,0,5.89-6,15.94,15.94,0,0,0,2.71-4.8A6.9,6.9,0,0,0,286.14,84.08Z"/><path class="cls-4" d="M249,73.77l-4.94-7.47a2.13,2.13,0,0,0-3.56,0l-3.87,5.84A2.14,2.14,0,0,0,238,75.42l8.81,1.63A2.14,2.14,0,0,0,249,73.77Z"/><path class="cls-4" d="M265,68.16l3-13.42a3.29,3.29,0,0,0-3.8-4l-10.59,2a3.28,3.28,0,0,0-2.14,5l7.58,11.48A3.28,3.28,0,0,0,265,68.16Z"/><path class="cls-4" d="M278.84,72l6.89-5.72a2.13,2.13,0,0,0-.39-3.54l-6.23-3.21a2.13,2.13,0,0,0-3.1,1.74l-.67,8.93A2.14,2.14,0,0,0,278.84,72Z"/><path class="cls-4" d="M181.56,281.1l3.93-7.86a2,2,0,0,0-1.75-2.83H144.43a2,2,0,0,0-1.75,2.83l3.93,7.86Z"/><path class="cls-4" d="M183.74,227.15H144.43a2,2,0,0,1-1.75-2.84l3.93-7.86h34.95l3.93,7.86a2,2,0,0,1-1.75,2.84Z"/><rect class="cls-11" x="143.47" y="226.19" width="41.23" height="45.18"/><path class="cls-2" d="M183.7,227.19v43.18H144.47V227.19H183.7m2-2H142.47v47.18H185.7V225.19Z"/><path class="cls-8" d="M179.18,241.38a8.4,8.4,0,0,1-8.38,8.39H157.37a8.39,8.39,0,0,1,0-16.77H170.8A8.39,8.39,0,0,1,179.18,241.38Z"/><path class="cls-11" d="M183.74,219.28H144.43a2,2,0,1,1,0-3.91h39.31a2,2,0,1,1,0,3.91Z"/><path class="cls-12" d="M183.74,282.19H144.43a2,2,0,0,1,0-3.92h39.31a2,2,0,1,1,0,3.92Z"/><path class="cls-4" d="M181.77,241.38A9.83,9.83,0,0,1,172,251.2H156.22a9.82,9.82,0,0,1,0-19.64H172A9.84,9.84,0,0,1,181.77,241.38Zm-31.45,0a5.91,5.91,0,0,0,5.9,5.91H172a5.91,5.91,0,0,0,0-11.81H156.22A5.91,5.91,0,0,0,150.32,241.38Z"/><path class="cls-2" d="M170.84,260.42c0,4-8,7.2-12,7.2a7.2,7.2,0,1,1,0-14.4C162.81,253.22,170.84,256.44,170.84,260.42Z"/><path class="cls-2" d="M168.85,261.68l5.37,3.1a1.46,1.46,0,0,0,2.19-1.26v-6.2a1.46,1.46,0,0,0-2.19-1.27l-5.37,3.1A1.46,1.46,0,0,0,168.85,261.68Z"/><path class="cls-11" d="M160.37,260.8l3,1.71a.81.81,0,0,0,1.21-.7v-3.42a.8.8,0,0,0-1.21-.69l-3,1.71A.8.8,0,0,0,160.37,260.8Z"/><circle class="cls-11" cx="156.15" cy="259.08" r="0.64"/><text class="cls-13" transform="translate(154.15 244.12)">FISH</text><path class="cls-11" d="M163.54,298.57c-.47,0-.95,0-1.44,0-15.83-.75-22-4.78-22.28-4.95a1.08,1.08,0,0,1-.48-.9v-21a1.08,1.08,0,0,1,1.08-1.09l.21,0c.62.13,15.39,3,22.69,8.12a7.79,7.79,0,0,0,4.54,1.28c5.87,0,12.79-4.47,14.25-5.45l3.94-11.29a1.09,1.09,0,0,1,.57-.62,8.58,8.58,0,0,1,3.25-.78,3.23,3.23,0,0,1,2.57,1,4.38,4.38,0,0,1,.76,3.57c-.72,5.47-5.63,19.31-5.84,19.9a1.19,1.19,0,0,1-.13.25C186.89,287.14,178.76,298.57,163.54,298.57Z"/><path class="cls-2" d="M189.87,263c1.35,0,2.61.68,2.25,3.39-.71,5.42-5.78,19.67-5.78,19.67s-8,11.45-22.8,11.45l-1.39,0c-15.71-.75-21.73-4.77-21.73-4.77v-21s15.08,2.92,22.28,7.93a8.82,8.82,0,0,0,5.16,1.48c7,0,15.16-5.84,15.16-5.84l4.06-11.62a7.67,7.67,0,0,1,2.79-.68m0-2.16a9.74,9.74,0,0,0-3.71.88,2.18,2.18,0,0,0-1.13,1.24l-3.82,10.95c-1.87,1.23-8.12,5.06-13.35,5.06a6.71,6.71,0,0,1-3.92-1.08c-7.49-5.22-22.47-8.17-23.11-8.29a1.9,1.9,0,0,0-.41,0,2.13,2.13,0,0,0-1.38.5,2.16,2.16,0,0,0-.79,1.67v21a2.15,2.15,0,0,0,1,1.8c.26.18,6.7,4.37,22.83,5.14l1.49,0c15.78,0,24.23-11.87,24.58-12.38a2,2,0,0,0,.26-.51c.21-.59,5.16-14.54,5.89-20.12a5.39,5.39,0,0,0-1-4.43,4.33,4.33,0,0,0-3.39-1.4Z"/><g class="cls-14"><path class="cls-4" d="M99.14,259.7l2.46-7.14a1.68,1.68,0,0,0-1.81-2.21l-33.47,4.42a1.67,1.67,0,0,0-1.32,1,1.69,1.69,0,0,0,.14,1.63l4.23,6.26Z"/><path class="cls-4" d="M94.93,213.51l-33.47,4.42a1.68,1.68,0,0,1-1.81-2.21l2.46-7.14,29.76-3.93,4.23,6.26a1.67,1.67,0,0,1-1.17,2.6Z"/><path class="cls-4" d="M96.38,211.63l-36.81,4.85,5.3,40.17,36.81-4.85Z"/><path class="cls-8" d="M92.65,226.15a7.23,7.23,0,0,1-6.2,8.08L75,235.73a7.2,7.2,0,1,1-1.88-14.27L84.57,220A7.21,7.21,0,0,1,92.65,226.15Z"/><path class="cls-8" d="M94.05,206.82l-33.48,4.42a1.68,1.68,0,0,1-.44-3.34l33.48-4.41a1.68,1.68,0,0,1,.44,3.33Z"/><path class="cls-12" d="M101.11,260.38l-33.47,4.41a1.68,1.68,0,1,1-.44-3.33L100.67,257a1.68,1.68,0,1,1,.44,3.34Z"/><path class="cls-11" d="M94.85,225.86a8.44,8.44,0,0,1-7.26,9.46L74.2,237.09A8.43,8.43,0,0,1,72,220.37l13.39-1.77A8.45,8.45,0,0,1,94.85,225.86Zm-26.78,3.53a5.08,5.08,0,0,0,5.69,4.36L87.15,232a5.07,5.07,0,1,0-1.33-10.06L72.43,223.7A5.07,5.07,0,0,0,68.07,229.39Z"/><circle class="cls-2" cx="83.78" cy="246.94" r="13.65"/><ellipse class="cls-8" cx="85.49" cy="236.3" rx="1.69" ry="3.3" transform="translate(-158.88 294.9) rotate(-83.59)"/><path class="cls-4" d="M121.4,276.33l5.35-6.74a1.91,1.91,0,0,0,.3-1.84,1.89,1.89,0,0,0-1.4-1.22L88,258.59a1.91,1.91,0,0,0-1.78.55,1.93,1.93,0,0,0-.47,1.81l2.18,8.32Z"/><path class="cls-4" d="M134.38,225.11l-37.63-7.94a1.9,1.9,0,0,1-1.1-3.06l5.35-6.74,33.46,7.06,2.17,8.32a1.91,1.91,0,0,1-2.25,2.36Z"/><rect class="cls-11" x="89.1" y="221.68" width="44.2" height="40.34" transform="translate(-148.4 300.73) rotate(-78.09)"/><path class="cls-2" d="M96.78,217.22l37.55,7.92-8.71,41.34-37.56-7.92,8.72-41.34m-1.51-2.32-9.53,45.17,41.39,8.73,9.52-45.17L95.27,214.9Z"/><path class="cls-8" d="M127.14,237.82a8.21,8.21,0,0,1-9.72,6.33l-12.85-2.71A8.2,8.2,0,0,1,108,225.39l12.85,2.71A8.2,8.2,0,0,1,127.14,237.82Z"/><path class="cls-11" d="M136,217.58l-37.63-7.94a1.91,1.91,0,1,1,.79-3.74l37.63,7.94a1.91,1.91,0,1,1-.79,3.74Z"/><path class="cls-12" d="M123.27,277.8l-37.64-7.94a1.92,1.92,0,0,1,.79-3.75l37.64,7.94a1.92,1.92,0,0,1-.79,3.75Z"/><path class="cls-4" d="M129.62,238.34a9.62,9.62,0,0,1-11.38,7.42l-15.06-3.18a9.61,9.61,0,1,1,4-18.8l15,3.18A9.61,9.61,0,0,1,129.62,238.34ZM99.51,232a5.78,5.78,0,0,0,4.46,6.84L119,242a5.78,5.78,0,0,0,2.38-11.31l-15-3.17A5.78,5.78,0,0,0,99.51,232Z"/><path class="cls-2" d="M115.31,254.36c-.8,3.8-9.13,5.27-12.94,4.47A7,7,0,0,1,105.28,245C109.08,245.84,116.11,250.55,115.31,254.36Z"/><path class="cls-2" d="M113.15,255.16l4.52,4.06a1.43,1.43,0,0,0,2.35-.77l1.26-5.94a1.44,1.44,0,0,0-1.85-1.65l-5.77,1.88A1.43,1.43,0,0,0,113.15,255.16Z"/><path class="cls-11" d="M105.22,252.61l2.48,2.23a.79.79,0,0,0,1.3-.42l.69-3.27a.78.78,0,0,0-1-.91l-3.18,1A.79.79,0,0,0,105.22,252.61Z"/><circle class="cls-11" cx="101.52" cy="250.11" r="0.62"/></g><path class="cls-9" d="M31.52,253.46s15.39-4.11,28,0,15.08-1,25-1.83,22.68-5.64,29.59,7.81"/><path class="cls-9" d="M211.39,250.14s27.51,35.94,19.49,34.94a14.48,14.48,0,0,1-11-6.81"/><path class="cls-9" d="M189.48,247.29s16.08-74.69,17.61-64.46l1.54,10.23"/><path class="cls-9" d="M72.83,171.45S89,189.54,86.74,201.37"/><circle class="cls-8" cx="106.69" cy="180.27" r="2.08"/><path class="cls-3" d="M173.16,150.31s-10.78,2.39-12.85,9.06L158.23,166"/><path class="cls-2" d="M102.78,117.22s-11.59,2.85-13.58,4.5S97,130.87,97,130.87Z"/><ellipse class="cls-2" cx="254.5" cy="198.15" rx="6.37" ry="24.36" transform="translate(-34.52 341.33) rotate(-64.26)"/><path class="cls-3" d="M254.73,142.76s-5.89,12.66-5.89,22.24a85.68,85.68,0,0,0,1.51,16.51l-6.49,14.63s12.47,9.18,22.23,8.45l4.7-15.33s1.45-6.43,7.71-6.43,15.6-1.32,16.69-5.2c1.55-5.5-.55-8.73-.55-12s2-4.8,1.47-9,1.47-10.75-2.76-13.2-22.59-1.56-22.59-1.56,2.76-15.15,1.11-21.86-6.08-13.89-10.14-8S262.29,128.08,254.73,142.76Z"/><path class="cls-3" d="M276,144.94a11.49,11.49,0,0,0-2,8.43c.68,5.18-.68,7.08-.81,11.3s.56,13.93,5.39,18.16"/><line class="cls-3" x1="273.67" y1="163.6" x2="295.19" y2="162.55"/><line class="cls-3" x1="273.67" y1="152.65" x2="296.21" y2="151.88"/><path class="cls-7" d="M264.84,181.51s8.59-1,9.09-6.72l21.54-2.37"/></g></g></svg>