<svg xmlns="http://www.w3.org/2000/svg" viewBox="0 0 127.93 99.45"><defs><style>.cls-1{fill:#bdbdbd;}</style></defs><title>資產 28</title><g id="圖層_2" data-name="圖層 2"><g id="圖層_1-2" data-name="圖層 1"><path class="cls-1" d="M105.24,24.49C102.38,19.55,96.94,16,88,16H75.71V11.24A11.25,11.25,0,0,0,64.47,0h-1A11.26,11.26,0,0,0,52.22,11.24V16H40c-9,0-14.42,3.56-17.29,8.5ZM59.72,11.24A3.75,3.75,0,0,1,63.47,7.5h1a3.75,3.75,0,0,1,3.74,3.74V16H59.72Z"/><path class="cls-1" d="M124.31,35.37A12,12,0,0,0,115.94,32H12a11.75,11.75,0,1,0,0,23.49h8.25V88.2A11.26,11.26,0,0,0,31.48,99.45h65A11.26,11.26,0,0,0,107.69,88.2V55.47h8.25a12.07,12.07,0,0,0,8.37-3.38A11.46,11.46,0,0,0,124.31,35.37ZM20.24,48H12A4.49,4.49,0,0,1,7.5,43.73,4.49,4.49,0,0,1,12,39.48h8.25Zm95.7,0h-8.25V39.48h8.25a4.5,4.5,0,0,1,4.5,4.25A4.49,4.49,0,0,1,115.94,48Z"/></g></g></svg>