<svg xmlns="http://www.w3.org/2000/svg" viewBox="0 0 149.54 101.83"><defs><style>.cls-1{fill:#2a7682;}</style></defs><title>資產 23</title><g id="圖層_2" data-name="圖層 2"><g id="圖層_1-2" data-name="圖層 1"><path class="cls-1" d="M77.45,18V6.24A6.74,6.74,0,0,0,75.15,1,4,4,0,0,0,71.74.08,32.82,32.82,0,0,0,49.1,16.88a56.78,56.78,0,0,1,9.3-.8A96,96,0,0,1,77.45,18Z"/><path class="cls-1" d="M37.25,54a44.38,44.38,0,0,1-3.72,18.35h69.83c2-1.47,6.52-5.09,7.59-6a17.59,17.59,0,0,1,15.33-4.12,2.48,2.48,0,0,1,.64.24l19.27,9.89A1,1,0,0,0,147,72a.84.84,0,0,0,.14-.56l-6.49-12.73c0-.13-.1-.24-.16-.38a9.6,9.6,0,0,1,0-6.13l6.67-15.73a.7.7,0,0,0-.24-.62.86.86,0,0,0-.77-.29L126.65,42.9a2.26,2.26,0,0,1-.37.11A17.47,17.47,0,0,1,111,38.88c-9.14-8-28.38-17.44-52.55-17.44a60.89,60.89,0,0,0-28.57,7.82A41,41,0,0,1,37.25,54ZM69.87,39a2.67,2.67,0,0,1,4.44-3c4.19,6.25,4.19,23.5,0,29.75A2.64,2.64,0,0,1,72.09,67a2.48,2.48,0,0,1-1.47-.45,2.65,2.65,0,0,1-.75-3.7C72.84,58.36,72.84,43.46,69.87,39ZM59.15,39a2.67,2.67,0,0,1,4.44-3c4.19,6.25,4.19,23.5,0,29.75A2.64,2.64,0,0,1,61.37,67a2.48,2.48,0,0,1-1.47-.45,2.65,2.65,0,0,1-.75-3.7C62.12,58.36,62.12,43.46,59.15,39ZM48.43,39a2.67,2.67,0,0,1,4.44-3c4.19,6.25,4.19,23.5,0,29.75A2.64,2.64,0,0,1,50.65,67a2.48,2.48,0,0,1-1.47-.45,2.65,2.65,0,0,1-.75-3.7C51.4,58.36,51.4,43.46,48.43,39Z"/><path class="cls-1" d="M0,77.71A13.41,13.41,0,0,0,13.13,88.43H136.41a13.41,13.41,0,0,0,13.13-10.72Z"/><path class="cls-1" d="M29.8,100.17a3.06,3.06,0,0,0,2.47,1.66h85.16a3,3,0,0,0,2.47-1.66l3.83-6.38H26Z"/><path class="cls-1" d="M19.67,72.35h7.88A37.92,37.92,0,0,0,31.89,54a35.32,35.32,0,0,0-6.78-22.06A116.92,116.92,0,0,0,4.93,47.83a8.64,8.64,0,0,0,0,12.2A118.81,118.81,0,0,0,19.67,72.35ZM16.59,49a2.68,2.68,0,0,1,2.92-.56,3.37,3.37,0,0,1,.88.56,2.84,2.84,0,0,1,.78,1.9,2.74,2.74,0,0,1-.21,1,2.42,2.42,0,0,1-1.45,1.45,2.55,2.55,0,0,1-1,.21,2.79,2.79,0,0,1-1.9-.77,2.85,2.85,0,0,1-.56-.89,2.23,2.23,0,0,1-.22-1A2.84,2.84,0,0,1,16.59,49Z"/></g></g></svg>