<svg xmlns="http://www.w3.org/2000/svg" viewBox="0 0 347.05 157.52"><defs><style>.cls-1{font-size:57.05px;font-family:PingFangTC-Regular-B5pc-H, PingFang TC;letter-spacing:0.1em;}.cls-2{font-size:15.68px;font-family:PingFangTC-Medium-B5pc-H, PingFang TC;letter-spacing:0.05em;}.cls-2,.cls-4{fill:#2a7682;}.cls-3{fill:#ffe97b;}</style></defs><title>資產 33</title><g id="圖層_2" data-name="圖層 2"><g id="圖層_1-2" data-name="圖層 1"><text class="cls-1" transform="translate(158.79 127.17)">露營蜂</text><text class="cls-2" transform="translate(161.72 153.88)">Camping Bee Buzzing</text><path class="cls-3" d="M179.59,32.15c.13-4.69-4.93-11.5-7.33-14.79s-15-7.31-23-7.91c-6.09-.45-14.8,6.82-18.63,10.35l2.84-5.69-6-7.06-10.6-5h-10.2L95.55,6.65l-9.71,11.8-4.69,9.72A49.31,49.31,0,0,0,67,38.27,14.72,14.72,0,1,0,54.2,61.56a49.36,49.36,0,1,0,97.42,11.23c0-.25,0-.51,0-.76,5.09-2.09,13.08-5.39,15.86-6.58,4.2-1.8,7.07-10,12.13-16.74S179.45,36.85,179.59,32.15Z"/><path class="cls-4" d="M98.68,71.63a3.59,3.59,0,1,0,3.58,3.59A3.59,3.59,0,0,0,98.68,71.63Z"/><circle class="cls-4" cx="73.37" cy="75.22" r="3.59"/><path class="cls-4" d="M174.44,17.25a31.62,31.62,0,0,0-37.53-5.35,33.16,33.16,0,0,0-2.38-2.67,31.58,31.58,0,0,0-44.63,0,36.24,36.24,0,0,0-3.11,3.54,68.39,68.39,0,0,0-62.48,88.79L.84,142.22a6.09,6.09,0,0,0,0,6.17,6.1,6.1,0,0,0,5.34,3.09H45a5.47,5.47,0,0,0,4.56,2.4h60.86a5.55,5.55,0,0,0,4.81-8.32l-.53-.9a68.38,68.38,0,0,0,43.26-63.59,69.32,69.32,0,0,0-.54-8.45,52.44,52.44,0,0,0,17.06-10.74A31.6,31.6,0,0,0,174.44,17.25ZM92.15,12.77c.21-.22.42-.45.63-.66a27.52,27.52,0,0,1,38.86,0,25.94,25.94,0,0,1,1.81,2,32.73,32.73,0,0,0-3.65,3.14,41.84,41.84,0,0,0-4.55,5.51,56.43,56.43,0,0,0-4.13,7,48.66,48.66,0,0,0-39.29.89C84.27,23.69,88,17.16,92.15,12.77Zm58.93,57.78c-1.31.41-2.63.78-4,1.08h0C136.8,74,128.26,72.7,123.62,68.06a14.51,14.51,0,0,1-3.1-4.79c-.25-.62-.48-1.26-.68-1.93s-.34-1.34-.47-2a36.42,36.42,0,0,1,.68-14.75,59,59,0,0,1,3.07-9.37c.53-1.26,1.1-2.5,1.71-3.7A52.57,52.57,0,0,1,128.67,25a36.57,36.57,0,0,1,4-4.88,28,28,0,0,1,3.11-2.68c.55-.41,1.12-.79,1.69-1.15s1.16-.71,1.76-1A27.49,27.49,0,0,1,171.55,59a48.4,48.4,0,0,1-14.81,9.46A60,60,0,0,1,151.08,70.55ZM47.1,38a10.88,10.88,0,0,1,18.37,9.6l.9.9a45.16,45.16,0,0,1,9.16-9.31c.75-.57,1.53-1.12,2.32-1.64s1.56-1,2.37-1.46a44.61,44.61,0,0,1,39.19-2.63,62.54,62.54,0,0,0-3.33,10.19c-1.51,6.54-1.68,12.42-.57,17.35.16.68.33,1.34.53,2s.45,1.28.71,1.9a18.58,18.58,0,0,0,4,6.06c3.93,3.94,9.72,6,16.79,6a46.5,46.5,0,0,0,9.65-1.11A44.71,44.71,0,1,1,60.31,60L57.15,56.8l-.45-.44a11.26,11.26,0,0,1-1.93.17A10.86,10.86,0,0,1,47.1,38ZM44.72,145.56a5.58,5.58,0,0,0-.66,1.84H6.18a2.1,2.1,0,0,1-1.81-3.15l21.75-37.67,8.34-14.45a8.81,8.81,0,0,1,15.25,0l12.93,22.4L49.83,136.7Zm66.93,3.51a1.42,1.42,0,0,1-1.27.73H49.52a1.37,1.37,0,0,1-1-.36,1.71,1.71,0,0,1-.31-.37,1.44,1.44,0,0,1,0-1.47l.12-.2L53.23,139,65,118.61l1.18-2,1.18-2,2.16-3.75A48.62,48.62,0,0,0,97.68,123.4l13.09,22.67.88,1.53A1.42,1.42,0,0,1,111.65,149.07Z"/><path class="cls-4" d="M54.77,53.53A7.92,7.92,0,0,0,57.59,53l.84.84,3.08,3.08,1.75,1.75a3.18,3.18,0,0,0,2.26.93,3.14,3.14,0,0,0,2.26-.94,3.19,3.19,0,0,0,0-4.52L64.65,51l-2.53-2.54a8.27,8.27,0,0,0,.41-1.61,7.88,7.88,0,0,0-2.19-6.76,7.86,7.86,0,1,0-5.57,13.42Z"/><path class="cls-4" d="M87.93,53.53A8,8,0,0,0,90.75,53l5.67,5.67a3.2,3.2,0,0,0,4.52-4.53l-5.67-5.67a7.86,7.86,0,1,0-7.34,5.05Z"/><path class="cls-4" d="M85.84,90.13A7.15,7.15,0,0,0,93,83H78.7A7.14,7.14,0,0,0,85.84,90.13Z"/></g></g></svg>