<svg width="12" height="16" viewBox="0 0 12 16" fill="none" xmlns="http://www.w3.org/2000/svg">
<path d="M5.53836 15.55L5.19754 15.1666C4.98452 14.9536 0 9.07438 0 5.53836C0 2.47096 2.47096 0 5.53836 0C8.60575 0 11.0767 2.47096 11.0767 5.53836C11.0767 9.07438 6.09219 14.9536 5.87918 15.2092L5.53836 15.55ZM5.53836 0.852055C2.93959 0.852055 0.852055 2.93959 0.852055 5.53836C0.852055 8.26493 4.43069 12.866 5.53836 14.2293C6.64603 12.866 10.2247 8.26493 10.2247 5.53836C10.2247 2.93959 8.13712 0.852055 5.53836 0.852055Z" fill="#F2F2F2"/>
<path d="M5.53834 7.66848C4.34546 7.66848 3.4082 6.73122 3.4082 5.53834C3.4082 4.34546 4.34546 3.4082 5.53834 3.4082C6.73122 3.4082 7.66848 4.34546 7.66848 5.53834C7.66848 6.73122 6.73122 7.66848 5.53834 7.66848ZM5.53834 4.26026C4.81409 4.26026 4.26026 4.81409 4.26026 5.53834C4.26026 6.26259 4.81409 6.81642 5.53834 6.81642C6.26259 6.81642 6.81642 6.26259 6.81642 5.53834C6.81642 4.81409 6.26259 4.26026 5.53834 4.26026Z" fill="#F2F2F2"/>
</svg>
