<svg xmlns="http://www.w3.org/2000/svg" viewBox="0 0 144.11 153.71"><defs><style>.cls-1{fill:#ffe97b;}.cls-2{fill:#fff;}.cls-3{fill:#2a7682;}</style></defs><title>資產 19</title><g id="圖層_2" data-name="圖層 2"><g id="圖層_1-2" data-name="圖層 1"><polygon class="cls-1" points="6.01 49.73 72.05 76.86 103.87 63.29 140.21 49.73 139.02 9.01 113.96 4.51 20.27 5.46 6.01 6.65 6.01 49.73"/><circle class="cls-2" cx="72.05" cy="36.63" r="13.1"/><path class="cls-3" d="M130.6,0H13.51A13.52,13.52,0,0,0,0,13.51V81.66a72.06,72.06,0,0,0,144.11,0V13.51A13.52,13.52,0,0,0,130.6,0Zm4.5,81.66A63,63,0,1,1,9,81.66V56.79l9,3.6v6a4.51,4.51,0,0,0,9,0V64L63.69,78.66a22.41,22.41,0,0,0,16.73,0L117.09,64v2.36a4.5,4.5,0,0,0,9,0v-6l9-3.6Zm0-34.57-58,23.21a13.48,13.48,0,0,1-10,0L9,47.09V13.51A4.51,4.51,0,0,1,13.51,9H130.6a4.51,4.51,0,0,1,4.5,4.5Z"/><path class="cls-3" d="M30.64,97.92a49.17,49.17,0,0,1-3.5-15,4.5,4.5,0,1,0-9,.63,57.84,57.84,0,0,0,4.14,17.76,4.5,4.5,0,1,0,8.34-3.39Z"/><path class="cls-3" d="M85.09,129.67A4.51,4.51,0,0,0,79.87,126a45.54,45.54,0,0,1-15.27.07A4.5,4.5,0,1,0,63.1,135a54.52,54.52,0,0,0,18.33-.08A4.5,4.5,0,0,0,85.09,129.67Z"/><path class="cls-3" d="M50.33,120.91a45,45,0,0,1-11.71-9.84,4.5,4.5,0,0,0-6.86,5.84,54.05,54.05,0,0,0,14,11.78,4.5,4.5,0,0,0,4.53-7.78Z"/><path class="cls-3" d="M121.71,78.78a4.5,4.5,0,0,0-4.65,4.36,44.67,44.67,0,0,1-3.08,15,4.5,4.5,0,0,0,8.38,3.3,53.56,53.56,0,0,0,3.7-18A4.5,4.5,0,0,0,121.71,78.78Z"/><path class="cls-3" d="M112.41,110.7a4.5,4.5,0,0,0-6.35.45,45.37,45.37,0,0,1-11.82,9.69,4.5,4.5,0,0,0,4.45,7.83,54.28,54.28,0,0,0,14.17-11.62A4.5,4.5,0,0,0,112.41,110.7Z"/><path class="cls-3" d="M72.05,18.61a18,18,0,1,0,18,18A18,18,0,0,0,72.05,18.61Zm0,27a9,9,0,1,1,9-9A9,9,0,0,1,72.05,45.63Z"/></g></g></svg>