<svg xmlns="http://www.w3.org/2000/svg" xmlns:xlink="http://www.w3.org/1999/xlink" viewBox="0 0 483.62 341.21"><defs><style>.cls-1,.cls-12,.cls-14,.cls-18,.cls-19,.cls-6,.cls-9{fill:none;}.cls-2{fill:#4ba795;}.cls-3{fill:#2a7682;}.cls-16,.cls-17,.cls-4,.cls-5,.cls-8{fill:#fff;}.cls-12,.cls-16,.cls-17,.cls-18,.cls-19,.cls-20,.cls-5,.cls-6,.cls-8,.cls-9{stroke:#4ba795;stroke-linecap:round;stroke-linejoin:round;}.cls-5,.cls-6{stroke-width:0.66px;}.cls-20,.cls-7{fill:#ffe97b;}.cls-8{stroke-width:0.56px;}.cls-9{stroke-width:0.73px;}.cls-10,.cls-11{fill:#efa495;}.cls-10{opacity:0.37;}.cls-12{stroke-width:0.47px;}.cls-13{clip-path:url(#clip-path);}.cls-14{stroke:#ffe97b;stroke-miterlimit:10;}.cls-15{clip-path:url(#clip-path-2);}.cls-16{stroke-width:0.93px;}.cls-17{stroke-width:0.94px;}.cls-18{stroke-width:5px;}.cls-19{stroke-width:1.02px;}</style><clipPath id="clip-path"><path class="cls-1" d="M247.33,207.36a24.49,24.49,0,1,0,24.49-24.49A24.49,24.49,0,0,0,247.33,207.36Zm16.77,0a7.72,7.72,0,1,1,7.72,7.71A7.72,7.72,0,0,1,264.1,207.36Z"/></clipPath><clipPath id="clip-path-2"><path class="cls-1" d="M45.27,207.36a24.49,24.49,0,1,0,24.49-24.49A24.49,24.49,0,0,0,45.27,207.36Zm16.77,0a7.72,7.72,0,1,1,7.72,7.71A7.72,7.72,0,0,1,62,207.36Z"/></clipPath></defs><title>主頁插圖</title><g id="C-2" data-name="C"><path class="cls-2" d="M192,69.86c-2.87,12.83-10.91,30-30,27.86-12.8-1.39-15.15-9.7-21-13.83s-9.42-1.2-18.5-3C111.14,78.57,104,67.48,107.68,51s14.9-23.49,26.15-20.72c9,2.22,11,6.37,18,5.14s12.72-7.74,24.9-3.55c18.17,6.27,18.15,25.18,15.27,38Z"/><path class="cls-3" d="M141,83.89c-5.85-4.12-9.41-1.2-18.49-3C111.14,78.57,104,67.48,107.68,51c.16-.69.33-1.36.51-2-2.69,15.39,4.33,25.66,15.22,27.85,9.08,1.83,12.63-1.08,18.49,3s8.21,12.43,21,13.83c18.13,2,26.29-13.31,29.54-25.85q-.19,1-.42,2c-2.87,12.83-10.91,30-30,27.86-12.8-1.39-15.15-9.7-21-13.83Z"/><path class="cls-4" d="M166.56,76.84,172,52.68a2.35,2.35,0,0,0-1.79-2.82l-2.71-.61A2.36,2.36,0,0,0,164.66,51L159.24,75.2A2.37,2.37,0,0,0,161,78l2.71.61a2.37,2.37,0,0,0,2.82-1.79Z"/><path class="cls-5" d="M60.53,44.87l31.59,7,3,.67L102,54.07l3,.66,9.86,2.21,6.87,1.54,3,.67L133.08,61a10.49,10.49,0,0,1,2.2-9.84l-8.41-1.89-3-.66L117,47.1l-9.86-2.21-3-.67L94.33,42l-31.6-7Z"/><line class="cls-6" x1="132.92" y1="54.22" x2="56.48" y2="38.05"/><line class="cls-6" x1="132.92" y1="56.6" x2="56.48" y2="40.43"/><circle class="cls-3" cx="143.87" cy="59.06" r="13.45"/><rect class="cls-3" x="44.81" y="26.69" width="15.19" height="22.72" rx="6.33" transform="translate(100.99 -4.78) rotate(102.62)"/><path class="cls-7" d="M15.05,174.94V97.45A39.86,39.86,0,0,1,54.79,57.71h233.7a39.86,39.86,0,0,1,39.74,39.74V133a51.38,51.38,0,0,1,32,47.45v26.13a4.54,4.54,0,0,1-4.52,4.52h-52.7a32.2,32.2,0,0,0,.24-3.69,31.48,31.48,0,0,0-63,0,32.2,32.2,0,0,0,.23,3.69H101a32.2,32.2,0,0,0,.24-3.69,31.45,31.45,0,0,0-52.93-23c-.52.49-1,1-1.51,1.51s-1,1.11-1.51,1.7v-8.69a3,3,0,0,0-3-3H19.56a3,3,0,0,0-3,3v17a3,3,0,0,0,3,3h19.9c-.14.5-.28,1-.39,1.5s-.2,1-.29,1.51a31.21,31.21,0,0,0-.5,5.42,32.2,32.2,0,0,0,.23,3.69H19.56a4.53,4.53,0,0,1-4.51-4.52v-6.67a6,6,0,0,1-1.51-3.94v-17A6,6,0,0,1,15.05,174.94Z"/><path class="cls-8" d="M247.56,47s17.75,10.39,13.23,14.44S252,65,249.21,62.62a18.41,18.41,0,0,1-3.13-3s-5.6,20.71-12.39,20.95-7.13-8.3-5.46-14.72-4.48,3.69-11.51,3.64c-5.7,0-8.24-11.48,1.32-18.67,4.23-3.18-.49-1.54-1-5.1-1.24-8.08,6.1-7.91,21.35-5.15C246.64,42.07,247.56,47,247.56,47Z"/><path class="cls-8" d="M244.23,22.12l.16-.26c1.67-2.62,6.13-10.8,6.13-10.8a4.54,4.54,0,0,1,7.38,5.28s-3.86,3.93-6.55,6.85a14,14,0,0,1,5.3,4.19c2-3.43,4.77-8.52,4.77-8.52a4.54,4.54,0,0,1,7.38,5.28s-6.55,6.68-8.53,9.08q-.45.57-.9,1.05a13.62,13.62,0,0,1-2.47,9.36,13.67,13.67,0,0,1-22.22-15.9A13.62,13.62,0,0,1,244.23,22.12Z"/><rect class="cls-2" x="247.88" y="37.14" width="3.02" height="3.02" rx="1.51" transform="translate(429.71 215.21) rotate(-144.42)"/><rect class="cls-2" x="238.2" y="30.22" width="3.02" height="3.02" rx="1.51" transform="translate(416.2 197.03) rotate(-144.42)"/><line class="cls-9" x1="242.09" y1="38.23" x2="240.82" y2="40"/><circle class="cls-10" cx="248.88" cy="42.33" r="2.8"/><circle class="cls-10" cx="236.48" cy="33.65" r="2.8"/><path class="cls-11" d="M240.92,36.05a2.62,2.62,0,0,0,.51,3.1,2.68,2.68,0,0,0,3.1-.51c.72-1,.12-1.87-.88-2.59S241.63,35.05,240.92,36.05Z"/><path class="cls-11" d="M265.75,20.59h0a2.46,2.46,0,0,0-3.34.87s-2.69,4.71-3.68,6.23c-.79,1.22-1.25,2.37-.26,3.08h0c1,.71,1.78-.2,2.69-1.34C262.3,28,266,24,266,24A2.46,2.46,0,0,0,265.75,20.59Z"/><path class="cls-11" d="M254.85,12.79h0a2.46,2.46,0,0,0-3.34.87s-2.69,4.72-3.68,6.23c-.8,1.22-1.25,2.37-.26,3.08h0c1,.71,1.78-.2,2.69-1.34,1.14-1.41,4.85-5.4,4.85-5.4A2.46,2.46,0,0,0,254.85,12.79Z"/><path class="cls-12" d="M242.79,41.07a8.38,8.38,0,0,1-2.31-.59,8.5,8.5,0,0,1-1.31-2"/><path class="cls-8" d="M229.17,45.13s-9.44,3-14.57,9.06"/><path class="cls-4" d="M17,84c4-14.74,19.67-25.32,37.76-25.32h233.7c18.09,0,33.74,10.58,37.76,25.32Z"/><path class="cls-7" d="M288.49,59.71c17.12,0,32,9.67,36.42,23.32H18.37c4.43-13.65,19.3-23.32,36.42-23.32h233.7m0-2H54.79c-19.33,0-35.54,11.82-39,27.32H327.53c-3.5-15.5-19.71-27.32-39-27.32Z"/><path class="cls-3" d="M247.33,207.36a24.49,24.49,0,1,0,24.49-24.49A24.49,24.49,0,0,0,247.33,207.36Zm16.77,0a7.72,7.72,0,1,1,7.72,7.71A7.72,7.72,0,0,1,264.1,207.36Z"/><g class="cls-13"><line class="cls-14" x1="271.82" y1="207.36" x2="271.82" y2="182.87"/><line class="cls-14" x1="271.82" y1="207.36" x2="254.5" y2="190.04"/><line class="cls-14" x1="271.82" y1="207.36" x2="247.33" y2="207.36"/><line class="cls-14" x1="271.82" y1="207.36" x2="254.5" y2="224.67"/><line class="cls-14" x1="271.82" y1="207.36" x2="271.82" y2="231.85"/><line class="cls-14" x1="271.82" y1="207.36" x2="289.13" y2="224.67"/><line class="cls-14" x1="271.82" y1="207.36" x2="296.31" y2="207.36"/><line class="cls-14" x1="271.82" y1="207.36" x2="289.13" y2="190.04"/></g><path class="cls-3" d="M45.27,207.36a24.49,24.49,0,1,0,24.49-24.49A24.49,24.49,0,0,0,45.27,207.36Zm16.77,0a7.72,7.72,0,1,1,7.72,7.71A7.72,7.72,0,0,1,62,207.36Z"/><g class="cls-15"><line class="cls-14" x1="69.76" y1="207.36" x2="69.76" y2="182.87"/><line class="cls-14" x1="69.76" y1="207.36" x2="52.44" y2="190.04"/><line class="cls-14" x1="69.76" y1="207.36" x2="45.27" y2="207.36"/><line class="cls-14" x1="69.76" y1="207.36" x2="52.44" y2="224.67"/><line class="cls-14" x1="69.76" y1="207.36" x2="69.76" y2="231.85"/><line class="cls-14" x1="69.76" y1="207.36" x2="87.07" y2="224.67"/><line class="cls-14" x1="69.76" y1="207.36" x2="94.25" y2="207.36"/><line class="cls-14" x1="69.76" y1="207.36" x2="87.07" y2="190.04"/></g><rect class="cls-4" x="286.03" y="100.18" width="41.2" height="31.76"/><path class="cls-7" d="M326.23,101.18V131H287V101.18h39.2m2-2H285V133h43.2V99.18Z"/><rect class="cls-16" x="194.33" y="102.11" width="75.31" height="37.67" rx="4.21" transform="translate(463.97 241.88) rotate(-180)"/><rect class="cls-17" x="91.88" y="102.11" width="77.05" height="37.67" rx="4.26" transform="translate(260.82 241.88) rotate(-180)"/><rect class="cls-2" x="91.88" y="108.62" width="77.05" height="2.31" transform="translate(260.82 219.54) rotate(-180)"/><rect class="cls-2" x="91.88" y="116.06" width="77.05" height="2.31" transform="translate(260.82 234.43) rotate(-180)"/><rect class="cls-2" x="91.88" y="123.51" width="77.05" height="2.31" transform="translate(260.82 249.33) rotate(-180)"/><rect class="cls-2" x="91.88" y="130.96" width="77.05" height="2.31" transform="translate(260.82 264.23) rotate(-180)"/><rect class="cls-2" x="15.05" y="113.04" width="54.71" height="7.72" transform="translate(84.8 233.8) rotate(-180)"/><rect class="cls-2" x="15.05" y="103.21" width="54.71" height="7.72" transform="translate(84.8 214.13) rotate(-180)"/><rect class="cls-2" x="15.05" y="122.29" width="54.71" height="7.72" transform="translate(84.8 252.3) rotate(-180)"/><rect class="cls-2" x="15.05" y="131.54" width="54.71" height="7.72" transform="translate(84.8 270.79) rotate(-180)"/><line class="cls-18" x1="326.22" y1="85.03" x2="17.06" y2="85.03"/><line class="cls-19" x1="181.57" y1="85.03" x2="181.57" y2="211.05"/><line class="cls-19" x1="79.79" y1="85.03" x2="79.79" y2="170.67"/><rect class="cls-2" x="290.23" y="147.1" width="23.59" height="10.62" rx="4.52" transform="translate(604.04 304.81) rotate(-180)"/><path class="cls-19" d="M282.4,85v88.19h15.94a22.2,22.2,0,0,1,21.57,16.92l2.93,11.9h37.44"/><ellipse class="cls-4" cx="345.71" cy="168.44" rx="9.11" ry="13.26"/><rect class="cls-2" x="154.26" y="150.15" width="19.77" height="15.17" rx="4.52" transform="translate(328.29 315.47) rotate(-180)"/><path class="cls-4" d="M19.56,198.93a3,3,0,0,1-3-3v-17a3,3,0,0,1,3-3H42.28a3,3,0,0,1,3,3v8.69a31.23,31.23,0,0,0-5.83,11.36Z"/><rect class="cls-2" x="91.88" y="65.64" width="11.47" height="11.47" rx="4.52" transform="translate(195.24 142.75) rotate(-180)"/><rect class="cls-2" x="74.81" y="65.64" width="11.47" height="11.47" rx="4.52" transform="translate(161.09 142.75) rotate(-180)"/><rect class="cls-2" x="57.74" y="65.64" width="11.47" height="11.47" rx="4.52" transform="translate(126.94 142.75) rotate(-180)"/><path class="cls-3" d="M438.74,230.53s-16.31-16.63-30-16.47c0,0-.48,12.11,17,16.47Z"/><path class="cls-2" d="M432.28,230.53S415.25,219,419,197c0,0,24.27,7.42,25.55,33.51Z"/><path class="cls-3" d="M444.38,230.53s16.3-16.63,30-16.47c0,0,.48,12.11-16.95,16.47Z"/><path class="cls-2" d="M450.84,230.53s17-11.56,13.28-33.51c0,0-24.27,7.42-25.55,33.51Z"/><path class="cls-3" d="M438.74,230.53s-13-27.07,3-44.26c0,0,14.71,23.58,5.26,44.26Z"/><path class="cls-3" d="M363.43,230.53s-23.08-23.54-42.5-23.31c0,0-.69,17.14,24,23.31Z"/><path class="cls-2" d="M354.28,230.53s-24.1-16.36-18.81-47.44c0,0,34.36,10.51,36.18,47.44Z"/><path class="cls-3" d="M371.41,230.53s23.08-23.54,42.51-23.31c0,0,.68,17.14-24,23.31Z"/><path class="cls-2" d="M380.56,230.53s24.1-16.36,18.81-47.44c0,0-34.36,10.51-36.17,47.44Z"/><path class="cls-3" d="M363.43,230.53s-18.39-38.32,4.3-62.66c0,0,20.83,33.38,7.44,62.66Z"/><path class="cls-20" d="M401.42,230.53s-14.2-14.48-26.14-14.34c0,0-.42,10.54,14.75,14.34Z"/><path class="cls-20" d="M395.79,230.53S381,220.47,384.23,201.35c0,0,21.12,6.47,22.24,29.18Z"/><path class="cls-20" d="M406.33,230.53s14.19-14.48,26.14-14.34c0,0,.42,10.54-14.76,14.34Z"/><path class="cls-20" d="M412,230.53s14.82-10.06,11.57-29.18c0,0-21.13,6.47-22.25,29.18Z"/><path class="cls-20" d="M401.42,230.53S390.11,207,404.06,192c0,0,12.81,20.53,4.58,38.54Z"/></g></svg>