<svg width="55" height="55" viewBox="0 0 55 55" fill="none" xmlns="http://www.w3.org/2000/svg">
<g filter="url(#filter0_d)">
<circle cx="27.5" cy="27.5" r="22.5" fill="#4BA795"/>
</g>
<path fill-rule="evenodd" clip-rule="evenodd" d="M30.8531 22.2593C30.9256 22.1866 31.0118 22.1288 31.1068 22.0894C31.2017 22.0501 31.3034 22.0298 31.4062 22.0298C31.5089 22.0298 31.6107 22.0501 31.7056 22.0894C31.8005 22.1288 31.8867 22.1866 31.9593 22.2593L36.6468 26.9468C36.7196 27.0194 36.7773 27.1056 36.8167 27.2005C36.8561 27.2954 36.8763 27.3972 36.8763 27.4999C36.8763 27.6027 36.8561 27.7044 36.8167 27.7994C36.7773 27.8943 36.7196 27.9805 36.6468 28.0531L31.9593 32.7406C31.8126 32.8873 31.6136 32.9697 31.4062 32.9697C31.1987 32.9697 30.9998 32.8873 30.8531 32.7406C30.7064 32.5939 30.6239 32.3949 30.6239 32.1874C30.6239 31.98 30.7064 31.781 30.8531 31.6343L34.989 27.4999L30.8531 23.3656C30.7803 23.293 30.7226 23.2068 30.6832 23.1119C30.6438 23.0169 30.6235 22.9152 30.6235 22.8124C30.6235 22.7097 30.6438 22.6079 30.6832 22.513C30.7226 22.4181 30.7803 22.3319 30.8531 22.2593V22.2593Z" fill="white"/>
<path fill-rule="evenodd" clip-rule="evenodd" d="M18.125 27.5C18.125 27.2928 18.2073 27.0941 18.3538 26.9476C18.5003 26.8011 18.699 26.7188 18.9062 26.7188H35.3125C35.5197 26.7188 35.7184 26.8011 35.8649 26.9476C36.0114 27.0941 36.0938 27.2928 36.0938 27.5C36.0938 27.7072 36.0114 27.9059 35.8649 28.0524C35.7184 28.1989 35.5197 28.2812 35.3125 28.2812H18.9062C18.699 28.2812 18.5003 28.1989 18.3538 28.0524C18.2073 27.9059 18.125 27.7072 18.125 27.5Z" fill="white"/>
<defs>
<filter id="filter0_d" x="0" y="0" width="55" height="55" filterUnits="userSpaceOnUse" color-interpolation-filters="sRGB">
<feFlood flood-opacity="0" result="BackgroundImageFix"/>
<feColorMatrix in="SourceAlpha" type="matrix" values="0 0 0 0 0 0 0 0 0 0 0 0 0 0 0 0 0 0 127 0"/>
<feOffset/>
<feGaussianBlur stdDeviation="2.5"/>
<feColorMatrix type="matrix" values="0 0 0 0 0 0 0 0 0 0 0 0 0 0 0 0 0 0 0.25 0"/>
<feBlend mode="normal" in2="BackgroundImageFix" result="effect1_dropShadow"/>
<feBlend mode="normal" in="SourceGraphic" in2="effect1_dropShadow" result="shape"/>
</filter>
</defs>
</svg>
